<svg id="Capa_1" data-name="Capa 1" xmlns="http://www.w3.org/2000/svg" viewBox="0 0 1965.17 1856.11"><defs><style>.cls-1{fill:#9eabd3;}.cls-2{fill:#561136;}.cls-3{fill:#152035;}.cls-4{fill:#e59375;}.cls-5{fill:#1a2652;}.cls-6{fill:#f7a483;}.cls-7{fill:#e1876f;}.cls-8{fill:#1f2732;}.cls-9{fill:#6652a2;}.cls-10{fill:#171f29;}.cls-11{fill:#2b3b6f;}.cls-12{fill:#f8a07d;}.cls-13{fill:#e98b6f;}.cls-14{fill:#3c2415;}.cls-15{fill:#fff;}.cls-16{isolation:isolate;}.cls-17{fill:#0093c6;}.cls-18{fill:#3dafe4;}.cls-19{fill:#80bbe6;}.cls-20{fill:#7c294b;}.cls-21{fill:#a1426f;}.cls-22{fill:#cc4e7e;}.cls-23{fill:#17181c;}.cls-24{fill:#104473;}.cls-25{fill:#065099;}.cls-26{fill:#872952;}.cls-27{fill:#271000;}.cls-28{fill:#394472;}.cls-29{fill:#424888;}.cls-30{fill:#5860ab;}.cls-31{fill:#6174b8;}.cls-32{fill:#053b6b;}.cls-33{fill:#007ea3;}.cls-34{fill:#040308;}.cls-35{fill:#30528b;}.cls-36{fill:#ffd47c;}.cls-37{fill:#3f1901;}.cls-38{fill:#004e89;}.cls-39{fill:#0061a2;}.cls-40{fill:#196eab;}.cls-41{fill:#4f1531;}.cls-42{fill:#00468b;}.cls-43{fill:#0058a9;}.cls-44{fill:#340e08;}.cls-45{fill:#f4b78e;}.cls-46{fill:#f8b78f;}.cls-47{fill:#dd9d7e;}.cls-48{fill:#e6e7e8;}.cls-49{fill:#7fc78d;}.cls-50{fill:#f38db6;}.cls-51{fill:#98c4e9;}.cls-52{fill:#a4def6;}.cls-53,.cls-54{fill:none;stroke:#699fd5;stroke-miterlimit:10;}.cls-53{stroke-width:12.47px;}.cls-54{stroke-width:13.46px;}</style></defs><title>acm</title><path class="cls-1" d="M1231.47,1222l-294.75-124L706.78,1253.1l122.09,51.37a52.66,52.66,0,0,1-8.23,5.37,67.49,67.49,0,0,1-15.06,4.38c-10.27,1.89-22.88,1.58-30.19,6.52-11.44,7.72-2.43,21.73,20.08,31.77.65.29,1.32.58,2,.87,24,10.08,52.93,11.82,64.7,3.87,9.56-6.45,2.21-16.69,7.91-24.19a57.91,57.91,0,0,1,9.53-7.24l121.93,51.31,95.14-64.19-1.22-.56a113,113,0,0,0-12.52-4.59c-14.19-3.12-33.38.66-45.63-4.5-15-6.69-12-21.86,6.53-34.33,18.69-12.61,46.07-17.69,61.16-11.35,9.36,4.17,9,10.74,12.63,16.13a27.76,27.76,0,0,0,8.43,8.06c.45.27,2.15,1.13,4.3,2.09,1.8.8,3.92,1.68,5.9,2.35Z" transform="translate(-68.9 -96.79)"/><path class="cls-1" d="M918.62,1657.44c-7.43-5-20.26-4.7-30.69-6.63a68.12,68.12,0,0,1-15.32-4.46,53.37,53.37,0,0,1-8.36-5.44l124.09-52.22-96.68-65.24c.39-.2.81-.39,1.24-.58a115,115,0,0,1,12.72-4.66c14.41-3.17,33.91.68,46.88-4.78,14.76-6.58,11.65-22-7.15-34.68-19-12.82-46.83-18-62.62-11.33-9.05,4-8.69,10.71-12.37,16.18a28.21,28.21,0,0,1-8.58,8.2c-.45.28-2.2,1.15-4.4,2.14-1.82.82-4,1.69-6,2.37L754.63,1431,455,1557.05l233.71,157.7,123.95-52.15a59.86,59.86,0,0,1,9.68,7.36c5.79,7.63-1.68,18,8,24.59,12,8.07,41.41,6.3,65.76-3.94.69-.29,1.36-.58,2-.88C921.09,1679.53,930.25,1665.29,918.62,1657.44Z" transform="translate(-68.9 -96.79)"/><path class="cls-1" d="M1150.35,1363.39l123.93-52.15a59.52,59.52,0,0,1,9.7,7.35c5.79,7.63-1.68,18,8,24.6,12,8.07,41.4,6.3,65.76-3.94l2-.87c22.89-10.21,32.06-24.46,20.43-32.31-7.44-5-20.25-4.7-30.69-6.62a68.21,68.21,0,0,1-15.31-4.46,54.29,54.29,0,0,1-8.36-5.45l124.09-52.21L1683.65,1395,1384.06,1521.1l-96.69-65.24c.38-.19.78-.37,1.2-.55a116.81,116.81,0,0,1,12.76-4.68c14.42-3.17,33.93.68,46.38-4.56,15.27-6.8,12.15-22.22-6.63-34.9-19-12.82-46.83-18-62.16-11.53-9.52,4.24-9.15,10.91-12.83,16.38a28.26,28.26,0,0,1-8.58,8.2c-.46.27-2.2,1.15-4.4,2.13-1.82.82-4,1.7-5.95,2.37Z" transform="translate(-68.9 -96.79)"/><path class="cls-1" d="M1549.58,1705.88l-121.95-51.31a58.46,58.46,0,0,0-9.52,7.23c-5.7,7.5,1.65,17.75-7.91,24.2-11.78,7.94-40.74,6.21-64.7-3.87l-2-.86c-22.51-10-31.52-24.06-20.09-31.77,7.31-4.94,19.93-4.62,30.19-6.52a66.93,66.93,0,0,0,15.06-4.39,52.68,52.68,0,0,0,8.22-5.36l-122.08-51.38-95.23,64.27c-2-.66-4.09-1.54-5.89-2.35-2.15-1-3.85-1.81-4.29-2.09a27.83,27.83,0,0,1-8.45-8.06c-3.63-5.39-3.27-12-12.17-15.92-15.55-6.55-42.92-1.47-61.62,11.14-18.48,12.47-21.54,27.64-7,34.12,12.76,5.38,31.94,1.58,46.12,4.71a112.57,112.57,0,0,1,12.52,4.59c.43.19.84.38,1.23.57L1024.88,1737l294.76,124Z" transform="translate(-68.9 -96.79)"/><ellipse class="cls-1" cx="618.92" cy="1101.77" rx="168.36" ry="74.91"/><polygon class="cls-2" points="664.24 1096.75 667 1096.24 669.77 1073.06 662.51 1064.47 664.24 1096.75"/><polygon class="cls-3" points="660.92 1094.87 664.24 1096.75 663.72 1058.81 657.86 1057.47 660.92 1094.87"/><path class="cls-4" d="M755.33,1143.9l6.16,20.35s8.38,19.6,15.3,27.33c0,0,12.48,17.11-10.87,16,0,0-24.9-1.33-24.52-17.3.32-13.74-12.3-30.79-12.3-30.79-4.64-8,.05-14.56,1.63-16.4l4.32-4.93,20.94-3.66Z" transform="translate(-68.9 -96.79)"/><path class="cls-3" d="M778.14,1197.88a31.37,31.37,0,0,1-27.12-8.21c-6.48-6.38-13.86-29.71-11.41-22,1,3.2-6.6-25.16-4.57-29.6l-4.32,4.93c-1.57,1.84-6.7,8.79-2.05,16.83,0,0,13.05,16.62,12.73,30.36-.38,16,24.52,17.3,24.52,17.3,14,.68,15.12-5.21,13.76-10A14.32,14.32,0,0,1,778.14,1197.88Z" transform="translate(-68.9 -96.79)"/><path class="cls-3" d="M789.88,1204.71s3.52,6.64-7.64,6.64c0,0-41.78-2.65-41.77-20.61l0-14.46s3.29,20.64,29.09,20.69c0,0,11.46,0,5.54-7.3Z" transform="translate(-68.9 -96.79)"/><circle class="cls-5" cx="625.91" cy="140.55" r="27.81"/><path class="cls-6" d="M714.75,365.51h54.77c-2.49-8-7.65-28.61.34-42.66l-55.33-36.33S724.35,347.48,714.75,365.51Z" transform="translate(-68.9 -96.79)"/><path class="cls-7" d="M720.88,331.1c3.28,8.39,8.58,12.47,17.24,15.21a57.78,57.78,0,0,0,27.81,2.06c-.87-8.4-.41-17.92,3.91-25.52l-55.33-36.33s3,18.6,4.06,38.28C719.33,326.89,720.06,329,720.88,331.1Z" transform="translate(-68.9 -96.79)"/><path class="cls-6" d="M780.38,335.53l2.91-8.24,7.09-24.23c1-3.85,1.44-9.1.12-12.86a38.91,38.91,0,0,1-1.13-20.12c4.51-22.05-5.28-33.56-5.28-33.56-12.87-20.27-43.25-20.18-43.25-20.18-37.55,1.95-40.62,38.31-40.62,38.31-6,24.2,13.26,44.28,13.29,44.32,2.44,2.54,2.7,6.66,3.88,9.8a30.21,30.21,0,0,0,5.51,9.19,67.53,67.53,0,0,0,19.25,15.46c6.71,3.42,19.72,6.93,29,6.83C775,340.21,778.71,340.26,780.38,335.53Z" transform="translate(-68.9 -96.79)"/><polygon class="cls-2" points="536.18 1101.11 538.97 1101.51 549.02 1080.44 544.91 1069.97 536.18 1101.11"/><polygon class="cls-3" points="533.64 1098.26 536.18 1101.11 547.87 1064.99 542.74 1061.86 533.64 1098.26"/><path class="cls-6" d="M642,1158c-.55,17-1.81,36,5,52,0,0,6.33,20.21-15.42,11.64,0,0-23.16-9.25-17.68-24.25,4.72-12.91-1.77-33.11-1.77-33.11-1.82-9.11,4.72-13.78,6.8-15l5.68-3.29h21.77Z" transform="translate(-68.9 -96.79)"/><path class="cls-3" d="M646.32,1216.45A31.38,31.38,0,0,1,623.26,1200c-4.09-8.12-3.6-32.6-3.76-24.46-.07,3.36,1.82-26,5.17-29.5L619,1149.3c-2.08,1.24-9.16,6.17-7.35,15.29,0,0,7,19.93,2.31,32.84-5.48,15,17.68,24.25,17.68,24.25,13.05,5.14,16-.08,16.25-5.08A14,14,0,0,1,646.32,1216.45Z" transform="translate(-68.9 -96.79)"/><path class="cls-3" d="M655.24,1226.68s1.2,7.42-9.37,3.84c0,0-38.72-15.92-32.95-32.92l4.62-13.7s-3.51,20.6,20.91,28.93c0,0,10.85,3.68,7.59-5.14Z" transform="translate(-68.9 -96.79)"/><path class="cls-6" d="M666.08,904.62c-27.77,51.28-32.69,72.15-37.62,111.14-2.88,22.68-1.92,118.21-4.9,132.46-1.24,5.91,21.21,2.67,21.21,2.67,4.11-10,69.49-229.49,69.49-229.49s7.31-22.74,1.24-26.69C685,874.85,678.18,882.26,666.08,904.62Z" transform="translate(-68.9 -96.79)"/><path class="cls-8" d="M645.44,1155.47c4.11-10,68.81-234.07,68.81-234.07s7.31-22.74,1.24-26.69c-30.48-19.86-37.31-12.45-49.42,9.9-27.77,51.28-32.69,72.15-37.62,111.14-2.88,22.68-7.56,114.91-10.54,129.17C617.92,1144.93,634.53,1164.72,645.44,1155.47Z" transform="translate(-68.9 -96.79)"/><path class="cls-8" d="M790.74,533.77S812.08,624.1,809.22,634c-8.25,28.42-84.82,68.31-154.64,10.14,0,0,16-66.81,49.11-123.32C703.68,520.79,715.86,533.37,790.74,533.77Z" transform="translate(-68.9 -96.79)"/><path class="cls-9" d="M779.86,350.22s27.93,54,40.4,83.62c-5.22,34.73-24.09,86.24-31.68,97.11C772,554.76,696,533.5,696,533.5l-21.9-73.11c63.92-23,30.26-90.31,30.26-90.31l10-6.33s10.22,33.11,51.83,31.92c0,0,13.67-8.9,3.61-46.66A58.56,58.56,0,0,1,779.86,350.22Z" transform="translate(-68.9 -96.79)"/><path class="cls-4" d="M710.33,658.29s7.35,145.72,34.31,224.1c4,11.69,50.09-3.84,50.09-3.84S818,753.16,816.58,701.21c-.79-29.36-11.29-92.67-11.29-92.67S718.89,597.25,710.33,658.29Z" transform="translate(-68.9 -96.79)"/><path class="cls-4" d="M746,881.86l48.76-3.32s-30,248.76-32.68,259.22c0,0-21,7.58-20.54,1.56,1-14.53-16.47-126.16-17-149C723.65,953.59,725.09,930.39,746,881.86Z" transform="translate(-68.9 -96.79)"/><path class="cls-10" d="M710.33,658.29s7.35,145.72,34.31,224.1c4,11.69,50.09-3.84,50.09-3.84S818,753.16,816.58,701.21c-.79-29.36-11.29-92.67-11.29-92.67S718.89,597.25,710.33,658.29Z" transform="translate(-68.9 -96.79)"/><path class="cls-10" d="M768.09,1139.32c4.95-9.6,26.64-260.78,26.64-260.78L746,881.86c-20.88,48.53-22.32,71.72-21.46,108.44.53,22.86,11.6,134.49,10.58,149C735.09,1139.32,761.59,1151.94,768.09,1139.32Z" transform="translate(-68.9 -96.79)"/><path class="cls-4" d="M868.07,527.12l-37-134c-13.31-35.85-33.17-36.73-33.17-36.73-38.07,5.76-13.7,72.56-13.7,72.56l47,111.32" transform="translate(-68.9 -96.79)"/><path class="cls-4" d="M975.21,627.25c-16-11.86-17.09-15.08-19.5-19.9-10.42-20.69,16.16-16.16,22.65-13.64,3.72,1.45,2.61,10.64,12.91,23.59,0,0,17.17,13.69,21.91,13.59,0,0,4.72,1.4,4.21,4.87C1017.37,635.77,1003,641.61,975.21,627.25Z" transform="translate(-68.9 -96.79)"/><path class="cls-4" d="M843.95,511.64" transform="translate(-68.9 -96.79)"/><path class="cls-4" d="M865.21,519.33l108.26,81.9c3,14.93-3.85,16-3.85,16L882.29,577.5c-37.39-16.18-50.4-34.8-50.4-34.8s-15.28-14.31,9-28.67C840.94,514,852,507.67,865.21,519.33Z" transform="translate(-68.9 -96.79)"/><path class="cls-4" d="M975.27,592.78s-4.74,9.16,7.64,8.57L996,594.13s3.94-1.41,3.17-5.1c0,0-1.11-2.21-5.16-.78Z" transform="translate(-68.9 -96.79)"/><path class="cls-6" d="M650.7,670.47s.56,145.78,19.79,226.4c2.86,12,46.78,8.34,46.78,8.34s28.66-137.87,32.31-189.7c2.07-29.3,7.93-80.57,7.93-80.57S654.69,624.74,650.7,670.47Z" transform="translate(-68.9 -96.79)"/><path class="cls-6" d="M672,387.61c-22.41,16.38-11,41-11,41l42.32,102.79s68.63,23.34,85.25-.46c7.59-10.87,14.61-39.68,23.82-81.24,6.26-28.24,6.69-77.58-9.21-92.19-9.17-8.43-38.84-8.26-39.06-9.26l-48.08,15.49Z" transform="translate(-68.9 -96.79)"/><path class="cls-6" d="M762.58,523c4.06-.74,26,7.93,26,7.93s15.8,67.36,16.7,77.59-69.54,63.25-148.22,33.07c0,0,39.73-93.71,45.54-113.31C709.28,505.81,762.58,523,762.58,523Z" transform="translate(-68.9 -96.79)"/><path class="cls-9" d="M800.79,391.88S824,419.23,826,439.54c1.08,11.31-13.2,30.25-20.34,37.23C800.55,481.72,770.56,410.76,800.79,391.88Z" transform="translate(-68.9 -96.79)"/><path class="cls-8" d="M676.35,619.29s-27.74,6.16-25.24,57c2.44,49.66,92.86,60,104.47,10C768.07,632.4,725.72,600.83,676.35,619.29Z" transform="translate(-68.9 -96.79)"/><path class="cls-11" d="M717.73,313c-.19-17.15.24-16.1.24-16.1.4-5,10.23,5.79,10-.74-.93-29.88,9.92-44.1,14.17-46.41,11.53-6.24,23.69-8,33.33-6.32,15.11,2.69,14.53,22.8,14.53,22.8,12.87-73.64-69.25-50.11-69.25-50.11-40,10.51-35.88,48.2-35.88,48.2-4.9,40.47,33.45,63.86,33.45,63.86Z" transform="translate(-68.9 -96.79)"/><path class="cls-12" d="M720.36,307.16a8,8,0,0,1-5.21,1.58c-5.82-.08-10.65-5.53-10.78-12.14s4.46-11.91,10.27-11.83a10.23,10.23,0,0,1,7.21,3.29c2.79,2.92,2.88,8.31,2.22,12C723.53,303.05,722.36,305.6,720.36,307.16Z" transform="translate(-68.9 -96.79)"/><path class="cls-13" d="M717,290.93c-.34-3.48-7.37-.16-6.31,1.8a10.71,10.71,0,0,0,2.82,2.74,5.1,5.1,0,0,1,2.16,3.8c0,.2.06.8-.14.94-.91.63-3.89-2.76-4.54-3.48a5.81,5.81,0,0,1-.84-5.55,3.48,3.48,0,0,1,3.85-2.6c1.58.09,3.19.2,3.1,2.16,0,0-.07.37-.09.19Z" transform="translate(-68.9 -96.79)"/><path class="cls-13" d="M714.73,294.54c.73-.73,1.43-.12,2.18.41a3.34,3.34,0,0,1,1.26,2,8.17,8.17,0,0,1-.87,5.8,4.38,4.38,0,0,1-3.77,2c-2.12-.06-2.75-1.93-2.83-3.72,0-.47-.06-1.61.4-1.91s.87.46,1.21.8a3,3,0,0,0,1.79.68,3.84,3.84,0,0,0,3.15-1.41,1.71,1.71,0,0,0,.32-.54c0,1.17-.06,1.43-.19.79a3.31,3.31,0,0,0-.4-.83c-.49-.81-1.32-1.36-1.87-2.14-.26-.36-.76-1.62-.39-2Z" transform="translate(-68.9 -96.79)"/><path class="cls-14" d="M753.67,281.57c.21,2.08-.78,3.88-2.19,4s-2.72-1.44-2.92-3.52.78-3.88,2.19-4S753.47,279.49,753.67,281.57Z" transform="translate(-68.9 -96.79)"/><path class="cls-14" d="M782.56,277.68c.08,2.09-1,3.82-2.43,3.87s-2.63-1.6-2.7-3.68,1-3.83,2.43-3.87S782.48,275.59,782.56,277.68Z" transform="translate(-68.9 -96.79)"/><path class="cls-11" d="M741.22,278.77c5.43-5.71,18.2-5.25,18.2-5.25s.85,0,.63-2.65c0,0-.06-2.3-1.91-2.08C758.14,268.79,741.89,267.72,741.22,278.77Z" transform="translate(-68.9 -96.79)"/><path class="cls-11" d="M789.89,267.86c-5.67-4.59-16.1-1-16.1-1-1.84.27-1.29,2.5-1.29,2.5.46,2.57,1.3,2.39,1.3,2.39s8.62-2.66,15.37-1.09C789.42,269.72,789.67,268.79,789.89,267.86Z" transform="translate(-68.9 -96.79)"/><path class="cls-15" d="M778.91,308l-20.57,3.81c-1.08.2-1.51.84-.93,1.42,0,0,5.92,5.92,12.59,4.67s10-8.9,10-8.9C780.29,308.28,779.79,307.9,778.91,308Z" transform="translate(-68.9 -96.79)"/><path class="cls-13" d="M764.13,301.48c10.78-.78,11.37-3.61,11.37-3.61l-5.65-11.37S771.15,297.88,764.13,301.48Z" transform="translate(-68.9 -96.79)"/><path class="cls-8" d="M650.7,670.47s.56,145.78,19.79,226.4c2.86,12,46.78,8.34,46.78,8.34s28.66-137.87,32.31-189.7c2.07-29.3,7.93-80.57,7.93-80.57S654.69,624.74,650.7,670.47Z" transform="translate(-68.9 -96.79)"/><path class="cls-8" d="M790.74,533.77S812.08,624.1,809.22,634c-8.25,28.42-84.82,68.31-154.64,10.14,0,0,16-66.81,49.11-123.32C703.68,520.79,715.86,533.37,790.74,533.77Z" transform="translate(-68.9 -96.79)"/><path class="cls-9" d="M696,533.5s78.13,24.07,94.75.27c7.59-10.87,24.3-65.2,29.52-99.93-12.47-29.62-40.4-83.62-40.4-83.62a58.56,58.56,0,0,0-10-1.21c10.06,37.76-3.61,46.66-3.61,46.66-41.6,1.18-51.83-31.92-51.83-31.92l-10,6.33s31,64.37-28.83,93.81C675.53,463.89,674.1,533,696,533.5Z" transform="translate(-68.9 -96.79)"/><circle class="cls-15" cx="648.17" cy="211.57" r="3.56"/><path class="cls-6" d="M705.52,397a32.11,32.11,0,0,1-1.39,45.4c-12.92,12.16-53.53,35.34-53.91,17.6-.75-34.86.62-53.8,13.54-66S693.37,384.07,705.52,397Z" transform="translate(-68.9 -96.79)"/><path class="cls-6" d="M707,426.47l-28.07-16.18L650.7,427.94S634.19,533.13,640.27,557.2c6.48,25.65,18.26,6.76,23.84-.26C664.11,556.94,710.15,446.91,707,426.47Z" transform="translate(-68.9 -96.79)"/><path class="cls-6" d="M644.53,567.47s50.47,36,95.27,55.65c0,0,14.8-6.22,7.4-13.06-12.57-11.62-67.51-64.23-80.2-75.87C644.53,526.52,644.53,567.47,644.53,567.47Z" transform="translate(-68.9 -96.79)"/><path class="cls-6" d="M765.35,643.25c-18.26-7.89-20.08-10.78-23.54-14.92-14.87-17.76,12-19.43,18.93-18.46,4,.56,5,9.77,18,20,0,0,19.84,9.39,24.44,8.22,0,0,4.91.28,5.2,3.78C808.34,641.89,795.71,650.86,765.35,643.25Z" transform="translate(-68.9 -96.79)"/><path class="cls-6" d="M759.89,609.65s-7.82,6.72,3.87,10.82l14.84-1.79s4.19.16,4.85-3.54c0,0-.21-2.46-4.49-2.65Z" transform="translate(-68.9 -96.79)"/><g class="cls-16"><path class="cls-17" d="M1076.15,740.52l-.66-.15-1-.22-.74-.13-.71-.12-.5,57.45-95.14,64.19L978,793l78.81-53.17q-1.73.2-3.5.49l-.76.13-1.35.24-.9.18-1.31.28-.82.18-2.07.49-.55.14q-1.28.33-2.55.71l-.45.13c-1.18.35-2.34.72-3.51,1.11l-.12,0q-1.76.6-3.5,1.28l-.25.1q-2,.78-3.89,1.64l-.18.08q-1.95.88-3.83,1.86l-.12.06c-1.27.66-2.52,1.35-3.75,2.07l-.07,0q-1.87,1.1-3.64,2.3c-10.5,7.08-16,15-16.08,21.81l.6-68.55c.06-6.78,5.58-14.73,16.08-21.82,1.18-.8,2.39-1.56,3.63-2.29l.07,0c1.22-.72,2.47-1.41,3.74-2.08l.13-.06c1.26-.65,2.53-1.27,3.82-1.86l.2-.08c1.28-.58,2.57-1.12,3.87-1.64l.08,0,.22-.08q1.7-.67,3.43-1.26l.16-.06c1.15-.39,2.31-.75,3.47-1.1l.3-.1.2-.05q1.27-.37,2.53-.69l.57-.15,2-.49.41-.1.46-.1,1.25-.26,1-.19,1.27-.23.67-.12.17,0c1.17-.2,2.33-.35,3.48-.49l.3,0,.22,0q1.51-.17,3-.27l.25,0h.34c.93-.06,1.86-.1,2.78-.12h.08c.86,0,1.71,0,2.56,0h.35l.29,0c.85,0,1.69.07,2.51.13h.07l.19,0c.86.07,1.69.17,2.51.28l.28,0,.19,0,1,.16.79.14.94.2.65.14.08,0c.74.18,1.45.38,2.15.6l.48.16c.7.23,1.39.48,2,.75s1,.48,1.49.73l.41.23.5.28.4.26.5.32c.26.18.51.35.74.54l.42.32.14.11c.28.23.55.48.8.72l.1.1c.2.2.39.39.57.59v0h0v0l.16.19.26.3c.18.21.35.43.51.65l.23.3.12.15.22.34c.14.21.28.43.41.65l.28.47.36.66.11.19.11.23c.19.38.38.77.55,1.16l.09.19c.23.52.46,1.05.68,1.58l.45,1,.21.46c.2.45.41.9.64,1.35.11.23.23.45.36.66l.2.37c.2.34.4.68.63,1s.3.43.45.64.44.6.67.9l.31.39c.32.4.65.79,1,1.18l.06.07c.37.4.77.8,1.17,1.19l.37.33c.3.28.61.55.93.83l.46.39c.32.26.66.52,1,.77l.45.33c.5.35,1,.7,1.55,1l.09.05.16.09.1,0,.23.13.16.08.27.13.19.1.32.16.26.13.34.16.41.2.25.12.48.22.26.12.78.35c1.8.8,3.92,1.68,5.9,2.34l95.22-64.26-.6,68.55-95.23,64.26c-2-.66-4.1-1.54-5.9-2.34l-.78-.35-.13-.06-.59-.28-.22-.1-.44-.21-.27-.13-.33-.16-.21-.1-.31-.16-.16-.08-.28-.14-.12-.07-.21-.12-.08,0-.13-.07,0,0c-.54-.33-1-.68-1.54-1l-.47-.35c-.34-.25-.66-.5-1-.76l-.25-.2-.23-.2-.9-.8-.38-.36c-.41-.39-.79-.79-1.16-1.18h0l-.07-.08c-.35-.38-.68-.77-1-1.15l-.3-.39c-.24-.3-.46-.6-.68-.91l-.16-.22-.28-.41c-.22-.33-.43-.66-.63-1l-.26-.47c-.09-.18-.2-.35-.28-.52v0c-.23-.46-.45-.91-.65-1.37l-.17-.38-.53-1.22c-.2-.47-.41-.95-.62-1.41l-.12-.26q-.25-.55-.52-1.1l-.23-.45q-.17-.32-.35-.64c-.09-.16-.18-.33-.28-.49s-.27-.43-.41-.64-.21-.33-.33-.49l-.23-.31c-.16-.21-.33-.43-.51-.63l-.27-.32c-.23-.26-.47-.52-.73-.77l-.1-.1c-.29-.28-.61-.55-.95-.83l-.41-.32c-.24-.18-.48-.36-.75-.54l-.5-.33q-.43-.27-.89-.54l-.41-.23c-.47-.25-1-.5-1.48-.73s-1.35-.52-2-.76l-.49-.16C1077.61,740.9,1076.89,740.7,1076.15,740.52Z" transform="translate(-68.9 -96.79)"/><path class="cls-18" d="M682.63,737.52l.6-68.55,122.09,51.37-.5,57.05h.12l.79.09c1,.11,1.94.21,2.9.29l.29,0,2.1.14.79,0,1.56.07h.58c1.23,0,2.44,0,3.62,0H818c1,0,2-.06,2.91-.12h.22c.89-.06,1.76-.14,2.62-.24l.64-.07c.73-.08,1.45-.19,2.15-.3l.25,0c.76-.13,1.49-.27,2.22-.43l.55-.12q1-.24,2-.51l.28-.07.39-.13,1-.33.52-.19.85-.33.47-.2.81-.37.44-.21.79-.42.36-.2c.37-.21.73-.43,1.07-.66,4.58-3.09,5.28-7.06,5.39-11.18l0-3.34c0-3.38.26-6.74,2.5-9.68a57.9,57.9,0,0,1,9.53-7.24L978,793l-.6,68.56L855.45,810.24a57.56,57.56,0,0,0-9.53,7.23c-2,2.64-2.4,5.62-2.48,8.65q0,1.66,0,3.33c0,4.48-.44,8.87-5.41,12.22-.34.23-.7.45-1.06.66l-.37.2-.79.41-.45.22-.8.36-.47.2-.26.11-.61.22-.51.19-1,.33-.43.13-.07,0-.18,0c-.65.19-1.32.36-2,.52l-.29.07-.24,0c-.73.16-1.47.3-2.23.43h0l-.17,0c-.71.12-1.45.21-2.2.3l-.32,0-.29,0c-.86.09-1.73.17-2.62.23h-.24c-1,.06-1.93.1-2.92.13H817q-1.77,0-3.62,0h-.59c-.52,0-1,0-1.56-.07l-.79,0c-.74,0-1.49-.09-2.24-.16H808c-1-.08-1.94-.18-2.93-.29l-.77-.09c-.86-.1-1.73-.21-2.61-.34l-.32,0h-.11l-2.43-.38-.42-.08-2.05-.37-.92-.19-1.56-.32-1-.23-1.46-.34-.39-.08-.34-.09c-1.32-.32-2.64-.66-4-1l-.52-.15c-1.35-.38-2.69-.79-4-1.22l-.41-.13c-1.37-.45-2.73-.92-4.09-1.42l-.24-.09c-1.4-.52-2.8-1.08-4.18-1.66-.68-.28-1.34-.57-2-.86q-1.39-.62-2.7-1.26l-.89-.44-1.69-.86-1-.52-1.49-.83-.91-.53-.55-.32-.89-.56-.79-.49c-.54-.35-1.06-.69-1.57-1l-.5-.34c-.66-.46-1.3-.93-1.91-1.39L756,828c-.36-.28-.73-.57-1.07-.85l-.19-.17c-.45-.38-.87-.75-1.28-1.13l-.55-.51c-.57-.55-1.12-1.09-1.62-1.64h0c-.44-.48-.85-1-1.24-1.44l-.35-.46c-.2-.26-.41-.53-.6-.79l-.14-.21-.26-.4c-.22-.34-.42-.67-.61-1l-.23-.42-.13-.24c-.18-.35-.34-.7-.49-1.05,0-.05,0-.12-.07-.18-.1-.24-.2-.49-.28-.73s-.1-.31-.14-.46l-.07-.24c-.09-.35-.18-.7-.24-1,0-.07,0-.14,0-.21s0-.15,0-.22a8.88,8.88,0,0,1-.09-1.18v-.12q.21-24.4.43-48.79Z" transform="translate(-68.9 -96.79)"/><path class="cls-19" d="M1207.92,637.84l-294.75-124L683.23,669l122.09,51.37a52.58,52.58,0,0,1-8.23,5.37A67.5,67.5,0,0,1,782,730.08c-10.27,1.89-22.88,1.58-30.19,6.52-11.44,7.72-2.43,21.73,20.08,31.77.65.29,1.32.58,2,.87,24,10.08,52.93,11.82,64.7,3.87,9.56-6.45,2.21-16.69,7.91-24.19a57.9,57.9,0,0,1,9.53-7.24L978,793l95.14-64.19-1.22-.56a113.81,113.81,0,0,0-12.52-4.59c-14.19-3.12-33.38.66-45.63-4.49-15-6.69-12-21.86,6.53-34.33,18.69-12.61,46.07-17.69,61.16-11.35,9.36,4.17,9,10.74,12.63,16.13a27.73,27.73,0,0,0,8.43,8.06c.45.28,2.15,1.13,4.3,2.09,1.8.8,3.92,1.68,5.9,2.34Z" transform="translate(-68.9 -96.79)"/></g><g class="cls-16"><path class="cls-20" d="M938.26,916.93c0,.17,0,.33,0,.51s0,.37,0,.54,0,.29,0,.45,0,.35-.07.52-.06.34-.1.51l-.08.38c0,.18-.09.35-.14.51l-.11.37-.08.21a10.52,10.52,0,0,1-.58,1.39l0,0a11.52,11.52,0,0,1-.77,1.27l-.14.21a12.3,12.3,0,0,1-.95,1.17l-.29.32c-.11.12-.22.23-.33.34l-.4.37-.37.33-.35.29-.67.51-.37.26c-.25.17-.51.34-.77.5l-.35.22c-.23.14-.47.26-.71.39l-.4.23c-.38.19-.78.38-1.19.57a32.42,32.42,0,0,1-4.93,1.59q-2.06.5-4.24.8c-1.38.2-2.8.35-4.24.47-2,.16-4.06.26-6.14.31-4.55.13-9.21.09-13.74.21-2,.06-4.06.15-6,.31l.61,69.68c2-.16,4-.26,6-.31,4.53-.13,9.19-.08,13.74-.21,2.08-.05,4.13-.15,6.14-.32q2.16-.17,4.24-.47t4.24-.81a31.63,31.63,0,0,0,4.93-1.59c.41-.18.81-.37,1.19-.57l.32-.18.79-.44.08,0,.22-.14c.28-.17.55-.34.81-.52l.36-.26.66-.51.21-.16.15-.13c.13-.11.25-.21.37-.33l.4-.37.34-.34c.07-.08.14-.15.2-.21l.09-.1a12.66,12.66,0,0,0,.95-1.18l.06-.07s0-.09.08-.13a11.76,11.76,0,0,0,.77-1.28h0a11.21,11.21,0,0,0,.59-1.41.66.66,0,0,0,0-.11l0-.08c0-.14.08-.28.12-.41s.09-.3.13-.46l.08-.42c0-.11.05-.23.08-.34l0-.13c0-.18.05-.37.07-.56s0-.27,0-.4,0-.42,0-.63,0-.2,0-.3v-.14Z" transform="translate(-68.9 -96.79)"/><path class="cls-20" d="M882.08,934.07l-.07,0a115.05,115.05,0,0,0-12.65,4.65c-.43.19-.85.38-1.24.58l.61,69.68c.39-.2.81-.38,1.25-.58a119.76,119.76,0,0,1,12.64-4.65l.07,0c1.1-.24,2.22-.44,3.37-.61,1.37-.2,2.78-.35,4.21-.46L889.65,933c-1.44.12-2.84.27-4.21.47C884.29,933.63,883.17,933.84,882.08,934.07Z" transform="translate(-68.9 -96.79)"/><path class="cls-21" d="M965.41,1074.24l-.61-69.68-124.09,52.22.51,58c-14.41,1.72-27.35.37-34.35-4.34-4.65-3.14-5.36-7.16-5.47-11.33,0-1.14,0-2.29,0-3.45,0-3.43-.27-6.83-2.53-9.81a60,60,0,0,0-9.68-7.36l-123.95,52.15.61,69.68,123.95-52.16a59.7,59.7,0,0,1,9.68,7.36c2,2.67,2.43,5.68,2.51,8.74q0,1.73,0,3.45c0,4.55.45,9,5.5,12.4,12,8.08,41.4,6.31,65.76-3.94q1-.43,2-.88c16.2-7.22,25.53-16.47,25.46-24l-.44-49.59Z" transform="translate(-68.9 -96.79)"/><path class="cls-20" d="M929,929.29l.61,69.68c-13,5.46-32.47,1.62-46.89,4.78a116.42,116.42,0,0,0-12.71,4.67c-.44.19-.85.38-1.25.58l-.61-69.68c.39-.2.81-.39,1.24-.58a115.65,115.65,0,0,1,12.72-4.67C896.48,930.91,916,934.75,929,929.29Z" transform="translate(-68.9 -96.79)"/><polygon class="cls-20" points="596.31 1033.82 362.59 876.13 363.2 945.8 596.92 1103.51 596.31 1033.82"/><path class="cls-22" d="M895.07,1073.3c-7.43-5-20.26-4.7-30.69-6.62a68.22,68.22,0,0,1-15.32-4.46,53.51,53.51,0,0,1-8.36-5.44l124.09-52.22-96.68-65.24c.39-.2.81-.39,1.24-.58a115.65,115.65,0,0,1,12.72-4.67c14.41-3.17,33.92.68,46.88-4.78,14.76-6.58,11.65-22-7.15-34.68-19-12.82-46.83-18-62.62-11.33-9.05,4-8.69,10.71-12.37,16.18a28.21,28.21,0,0,1-8.58,8.2c-.45.27-2.2,1.15-4.4,2.14-1.82.81-4,1.69-6,2.37l-96.8-65.32L431.49,972.92l233.71,157.7,123.95-52.15a60,60,0,0,1,9.68,7.36c5.79,7.63-1.68,18,8,24.59,12,8.07,41.41,6.3,65.76-3.94.69-.29,1.36-.59,2-.88C897.54,1095.39,906.7,1081.15,895.07,1073.3Z" transform="translate(-68.9 -96.79)"/></g><ellipse class="cls-1" cx="1615.19" cy="1243.61" rx="168.36" ry="74.91"/><path class="cls-23" d="M1627.37,1323.6c-11.89,12-31.5,18.36-31.5,18.37-16.53,4.2-26.25-6.8-26.25-6.8-3.55-5,.77-7.69.77-7.69,34.85-26.5,45.28-34,45.28-34h32c1.57,12.87.7,18.05.7,18.05a27.73,27.73,0,0,1-17.55,10.64c-.66.11-1.89-.86-2.51-.6Z" transform="translate(-68.9 -96.79)"/><path d="M1570.24,1327.6a9,9,0,0,0,.67,2.19c2.7,5.8,10.23,8.19,16.2,8.11,7.17-.1,13.68-3.61,19.92-6.76a88.75,88.75,0,0,0,16.5-11.19c3.61-3,8.21-4.38,12.47-6.24,4.8-2.1,8.43-5.36,12.58-8.48,0,3.45-.22,6.31-.22,6.31a27.73,27.73,0,0,1-17.55,10.64c-.66.11-1.89-.86-2.51-.6l-.93,2c-11.89,12-31.5,18.36-31.5,18.37-16.53,4.2-26.25-6.8-26.25-6.8C1566.47,1330.77,1569.52,1328.13,1570.24,1327.6Z" transform="translate(-68.9 -96.79)"/><path class="cls-4" d="M1651.19,1034c-35.58,39.28-49.68-2.27-49.68-2.27l-4.41-241.44c-.46,3.59-1.64-24.35,43.27-18.3s56.13,23.5,56.13,23.5-24.64,166.76-45.31,238.51" transform="translate(-68.9 -96.79)"/><path class="cls-4" d="M1601.29,1028.71s18.05,254.26,19.52,263.19c0,0,21.94,4.85,22-.2.25-12.18,25.3-161,25.63-180.11.82-48.45-11.67-57.61-24.13-90.25C1644.35,1021.33,1601.2,989.43,1601.29,1028.71Z" transform="translate(-68.9 -96.79)"/><path class="cls-24" d="M1661.9,1043.17c20.67-71.75,34.6-247.65,34.6-247.65s-11.34-17.46-56.13-23.5-43.73,21.89-43.27,18.3c0,0-13.61,130.92-1.15,249.91C1596,1040.24,1634.33,1060.61,1661.9,1043.17Z" transform="translate(-68.9 -96.79)"/><path class="cls-6" d="M1729.79,660.82c6.35,22.59,32.54,108.8,32.54,108.8-93.77,112.18-164.41,14-165.34,3.79-1.12-12.25,12.55-59,15-109.45C1612,664,1637.59,624.6,1729.79,660.82Z" transform="translate(-68.9 -96.79)"/><path class="cls-24" d="M1597.53,801.5c-4.45-30.22,4.77-60.69,9.51-91.22H1744.4c8.79,29.28,17.93,59.35,17.93,59.35s5.87,69.26-52.95,77.56C1709.38,847.19,1606.87,865,1597.53,801.5Z" transform="translate(-68.9 -96.79)"/><path class="cls-6" d="M1753.79,1039.32c-29.37,44.12-49.46,5.12-49.46,5.12l-47.64-235.2c.07,3.62,1.43-30.63,46.74-31.3s59,14.92,59,14.92,1.18,172.45-8.63,246.47" transform="translate(-68.9 -96.79)"/><path class="cls-6" d="M1703.64,1041.44s47.17,267.94,50,276.54c0,0,22.42,1.55,21.77-3.46-1.56-12.08,2.49-181,0-200-6.37-48-13-56.3-30.19-86.74C1745.14,1027.77,1697.74,1002.61,1703.64,1041.44Z" transform="translate(-68.9 -96.79)"/><path class="cls-23" d="M1751.45,1312.8l-13.27,40.46s2.74,36.22,31.79,13.78l8.65-8.39a9.26,9.26,0,0,0,3.12-8.89l-2.58-15.5-3.08-21.46S1757.88,1300.45,1751.45,1312.8Z" transform="translate(-68.9 -96.79)"/><path d="M1770,1361.87l8.65-8.38a9,9,0,0,0,3-4.63l.15.91a9.26,9.26,0,0,1-3.12,8.89L1770,1367c-29.05,22.45-31.79-13.78-31.79-13.78l.52-1.58C1740.33,1360.24,1746.73,1379.83,1770,1361.87Z" transform="translate(-68.9 -96.79)"/><path class="cls-3" d="M1760.05,1040.24" transform="translate(-68.9 -96.79)"/><path class="cls-25" d="M1698.51,1050.92c-16.55-48.56-47.78-249.43-47.78-249.43.07,3.62,9.35-48,54.67-48.64s56.93,16.77,56.93,16.77,14.15,196.59,4.34,270.61C1766.67,1040.24,1734.84,1077,1698.51,1050.92Z" transform="translate(-68.9 -96.79)"/><path class="cls-4" d="M1619,506.31s-76.73,90.23-114.88,120.13c0,0-25.64-9.48-24.85-26.9,0,0,56.18-83.1,91.44-132.26C1570.69,467.28,1618.38,453.55,1619,506.31Z" transform="translate(-68.9 -96.79)"/><path class="cls-4" d="M1490.36,592s-83.79,48.77-118.48,65.08c0,0-6.23,9.74,3.82,10.67,16.8,1.54,133.54-38,136.39-47.18C1525.39,577.78,1490.36,592,1490.36,592Z" transform="translate(-68.9 -96.79)"/><path class="cls-4" d="M1566.9,496.24a31.27,31.27,0,0,0,40,18.5A30.84,30.84,0,0,0,1625,474.88a31.28,31.28,0,0,0-40-18.5A30.84,30.84,0,0,0,1566.9,496.24Z" transform="translate(-68.9 -96.79)"/><path class="cls-26" d="M1605.21,454.66s-27.35-9.59-46.15,17.25L1492.13,569s13.79,30.91,46.37,47.78C1538.5,616.77,1658.32,506.42,1605.21,454.66Z" transform="translate(-68.9 -96.79)"/><path class="cls-6" d="M1755,1061.72" transform="translate(-68.9 -96.79)"/><path class="cls-12" d="M1682.74,422.06s5.52-10.63,17.71-31c0,0,25.93-26.63,11.4-60.1,0,0-8-28-56.92-23.92C1654.94,307,1650.25,384.06,1682.74,422.06Z" transform="translate(-68.9 -96.79)"/><path class="cls-6" d="M1684.68,378.45s-8.23,76.78,9.33,82.58l-62.62-3.73s9.84-23.2-1.6-40.31Z" transform="translate(-68.9 -96.79)"/><path class="cls-7" d="M1634.83,443.89c1-17.54-1.16-21.1-5-26.9l54.89-38.54s-2.65,24.8-1.73,47.28C1667.06,440.77,1653.93,444.31,1634.83,443.89Z" transform="translate(-68.9 -96.79)"/><path class="cls-6" d="M1587.23,454.51c-13.95,10.18-15.55,34.54-10.57,49.76,5.71,17.48,8,39.78,13.7,65.05,7.75,34.25,13,60.63,21.65,94.64,7.16,28.13,120.2,5.46,120.2,5.46L1772.72,531s7-36.14-25.76-48.17c0,0-34.49-18.62-59.74-27.17-22.3-7.55-30.37-8.26-53.27-6.85C1634,448.79,1603.29,449.92,1587.23,454.51Z" transform="translate(-68.9 -96.79)"/><path class="cls-27" d="M1607.37,312.85c-3.23,14.73-6.89,22.42-2.83,35.93,3.66,12.13,2.81,24.87,8.11,36.62,7.55,16.76,17.38,14.57,24.9-.85,7.69-15.79,15.71-37.11-1.66-48.81-11.15-7.51-15.17-20.42-28.52-22.89Z" transform="translate(-68.9 -96.79)"/><path class="cls-12" d="M1617,427.93l-2.61-8.68-6.59-32.1a32.52,32.52,0,0,1,.51-13.34c1.11-4.37,1.95-8.95,1.14-13.7-4-23,8.57-35,8.57-35,14.34-20.38,45.82-18.78,45.82-18.78,38.84,3.88,40.22,41.72,40.22,41.72,5.06,25.37-15.93,45.24-16,45.28-1.68,1.58-1.27,9.87-1.87,12.2-2.56,9.9-12.44,15.56-21.12,19.37-9.55,4.18-21.07,8.56-31.54,9C1629.64,434.06,1618.54,432.91,1617,427.93Z" transform="translate(-68.9 -96.79)"/><path class="cls-27" d="M1608.64,386.56c5.1,4.6,12,2.5,17.48,5.84,3.55,2.18,5.32,2,9.2.9a14.44,14.44,0,0,1,8.78.29c3.24.94,9.12,3.76,12.27,5,4.81,1.94,10.2,1.33,13.93-3.21,3.9-4.76,5.38-5.74,7.22-11.44,3.37-10.5,14-11.13,21.3-5.24a63,63,0,0,1-10.68,14.61c-1.68,1.58-1.27,16.72-1.87,19-2.56,9.9-12.44,15.56-21.12,19.37-9.55,4.18-24.12,4.76-34.59,5.2-4,.16-12-4-13.52-9l-2.61-8.68-6.59-32.1c-.12-.56-.16-1.18-.23-1.79A9.83,9.83,0,0,0,1608.64,386.56Z" transform="translate(-68.9 -96.79)"/><path class="cls-27" d="M1607.93,326.54c8.79,0,8.69,7.36,15.43,11.46,14.44,8.78,36.85-4.09,48.48,10.15a27.72,27.72,0,0,1,2.95,4.51c3.43,6.42,4.46,14.17,5.55,21.28.32,2.1-1.24,7.47.68,9.07,1.09.93,3,.65,5,0,.39,3.21-2.2,5.69-3.31,8.64s-2.85,5.49-1.28,8.48c4.06,7.7.95,6.43,1.31,21.91,2.51-3.67,8.69-8.12,10.64-9.83,5.65-4.92,11-10.29,15-16.63s6.56-13.19,9.13-20.05c4.2-11.26,6.63-23.44,3.25-35.25,0,0-2.66-27.44-25.62-30.38,0,0,2.92-17.67-39-22.35,0,0-33.13.52-34.95-10.91,0,0-6.7,5.72-5,14.55,0,0-13.63,4.15-19.75-11.44C1596.4,279.77,1585.05,320.83,1607.93,326.54Z" transform="translate(-68.9 -96.79)"/><path class="cls-12" d="M1682.15,399.8a6.91,6.91,0,0,0,4.4,2.62c5.22,1,10.46-3.9,11.69-10.87s-2-13.36-7.22-14.31a8.44,8.44,0,0,0-7,2.17c-3,2.58-4,8.24-4,12.27C1680,394.92,1680.61,397.81,1682.15,399.8Z" transform="translate(-68.9 -96.79)"/><path class="cls-13" d="M1687.78,383.42c.81-3.65,7.84.78,6.47,2.72a11.33,11.33,0,0,1-3.34,2.55,5.48,5.48,0,0,0-2.78,3.76c-.05.21-.17.85,0,1,.89.79,4.48-2.44,5.27-3.11a6.22,6.22,0,0,0,1.61-5.79,3.74,3.74,0,0,0-3.77-3.27c-1.68-.1-3.4-.2-3.56,1.91,0,0,0,.4.07.21Z" transform="translate(-68.9 -96.79)"/><path class="cls-13" d="M1689.71,387.54c-.68-.88-1.5-.32-2.36.16a3.51,3.51,0,0,0-1.6,2,8.73,8.73,0,0,0,.19,6.27,4.69,4.69,0,0,0,3.75,2.62c2.25.2,3.16-1.71,3.48-3.59.09-.51.27-1.71-.19-2.08s-1,.38-1.38.7a3.14,3.14,0,0,1-2,.49,4.08,4.08,0,0,1-3.17-1.89,2.15,2.15,0,0,1-.27-.62q-.22,1.86.1.86a3.46,3.46,0,0,1,.53-.83c.62-.8,1.58-1.29,2.25-2,.32-.34,1-1.62.66-2.06Z" transform="translate(-68.9 -96.79)"/><path class="cls-13" d="M1628.21,384.65l10.58,4.09s-14.28.89-14.83-3.26c0,0,2.16-8.1,4.5-15.77C1628.47,369.71,1626.64,384,1628.21,384.65Z" transform="translate(-68.9 -96.79)"/><path class="cls-27" d="M1646.68,369.71c0,2.24,1.24,4,2.75,4s2.75-1.8,2.75-4-1.23-4-2.75-4S1646.68,367.47,1646.68,369.71Z" transform="translate(-68.9 -96.79)"/><path class="cls-27" d="M1616.15,366.31c0,2.24,1.24,4,2.75,4s2.75-1.8,2.75-4-1.23-4-2.75-4S1616.15,364.08,1616.15,366.31Z" transform="translate(-68.9 -96.79)"/><path class="cls-27" d="M1643.82,361.86c-1,.2-1.23-1.13-1.23-1.13a4.61,4.61,0,0,1,.07-2.37,2.3,2.3,0,0,1,1.18-1.2c2.55-.35,7.5.28,11.69,1.53,2.32.69,6.08,2.42,6.33,4.56.07.64.13,1.74-.59,1.94A95.33,95.33,0,0,0,1643.82,361.86Z" transform="translate(-68.9 -96.79)"/><path class="cls-27" d="M1609.11,358.38a82.92,82.92,0,0,1,13.65,1.43c.9.47,1.49-.74,1.49-.74a4.63,4.63,0,0,0,.58-2.3,2.27,2.27,0,0,0-.8-1.47,24.76,24.76,0,0,0-10.12-1.58,19.84,19.84,0,0,0-5.08.69S1608.53,355.21,1609.11,358.38Z" transform="translate(-68.9 -96.79)"/><path class="cls-15" d="M1622.3,397.57c-.86,0-1.33.39-1,1,0,0,3.81,7.15,10.47,8s12.11-5.23,12.11-5.23c.53-.59.07-1.18-1-1.32C1642.88,400,1631.37,398.54,1622.3,397.57Z" transform="translate(-68.9 -96.79)"/><path class="cls-25" d="M1752.84,742.21s24.05,38.83,0,82.34-97.5,27.65-97.72-28.71C1654.91,740.16,1705.58,718.87,1752.84,742.21Z" transform="translate(-68.9 -96.79)"/><path class="cls-26" d="M1634,448.79s-30.67,1.13-46.72,5.71c-13.95,10.18-15.55,34.54-10.57,49.76,5.71,17.48,8,39.78,13.7,65.05,7.75,34.25-2,59.29,6.62,93.3,7.16,28.13,156.74,0,156.74,0l19-131.64s7-36.14-25.76-48.17c0,0-32.93-18.07-58.18-26.63,0,0,3.94,26.63-39.47,19.28C1649.31,475.46,1622.79,469.07,1634,448.79Z" transform="translate(-68.9 -96.79)"/><path class="cls-26" d="M1753.72,662.63c6.35,22.59,11.37,98.77,11.37,98.77-17.2,71.31-175.39,20-176.33,9.77-1.12-12.25,3.73-70.52,6.21-121C1595,650.21,1661.51,626.41,1753.72,662.63Z" transform="translate(-68.9 -96.79)"/><path class="cls-6" d="M1707.09,534.36c10.32,21,48.64,126.95,61,143.7,3.28,4.45,34.85,24.8,42-2.94-17.41-110-43.73-172.73-43.73-172.73s-30.75-25.64-55.31-1.94C1711,500.46,1699.81,519.82,1707.09,534.36Z" transform="translate(-68.9 -96.79)"/><path class="cls-6" d="M1702.74,515.59a37,37,0,1,0,42.64-30.33A37,37,0,0,0,1702.74,515.59Z" transform="translate(-68.9 -96.79)"/><path class="cls-26" d="M1739.23,478.77s31.8,11.93,39.33,37.73l19.63,70.24s-25.72,37.41-64.05,36.16l-37.87-84.13S1670.78,491.53,1739.23,478.77Z" transform="translate(-68.9 -96.79)"/><path class="cls-4" d="M1332.12,679.7l9.79-.27s-17.87,4.59-23.62-1.22c0,0-1.47-.91.82-3,0,0,15.8-.54,22.75-2.53,0,0-15.63,3.78-26.76,2.65,0,0-4.36-2.86.34-5.46-3.54-1.37-.52-3.71-.52-3.71a62,62,0,0,1,10.64-4.1,253.47,253.47,0,0,0,24.39-9.51s-10.31-6.75-6.45-12.19l15.9,8.39,14.39,9.25,1.91,9.74-15,10.41s-14.55,5.85-22.79,6.13C1337.94,684.29,1314.3,683.45,1332.12,679.7Z" transform="translate(-68.9 -96.79)"/><path class="cls-25" d="M1698.51,1050.92l41.14,256.39s13.63,13.14,45.26,0l5.25-125.27s9.29-82.77-23.49-141.8C1766.67,1040.24,1702.1,988.13,1698.51,1050.92Z" transform="translate(-68.9 -96.79)"/><path class="cls-24" d="M1661.9,1043.17s17.51,25.33,1.82,120.44l-16.06,129.87s-18.47,11.06-39.26.5l-12.95-258.73S1607.07,991.34,1661.9,1043.17Z" transform="translate(-68.9 -96.79)"/><g class="cls-16"><path class="cls-28" d="M1361.71,730.18c0-3.12-1.65-5.95-5-8.25a18.68,18.68,0,0,0-1.71-1l-.57-.28c-.43-.21-.86-.41-1.31-.59l-.33-.15-.3-.1c-.72-.27-1.45-.53-2.21-.75h-.05c-.77-.22-1.57-.42-2.38-.6l-.27-.07-.34-.07c-1-.21-1.93-.39-2.92-.56h-.08l-.25,0c-1-.16-2.06-.32-3.11-.45l-.33,0c-1.1-.15-2.21-.27-3.32-.39l-.19,0-2.7-.31-3.16-.38-.57-.07c-1-.14-2-.29-3-.44l-1.55-.27c-1-.19-2.1-.41-3.15-.63l-.56-.13c-.77-.17-1.53-.35-2.29-.54l-.06,0c-.77-.2-1.52-.4-2.27-.62l-.72-.22c-.52-.15-1-.32-1.53-.48l-.74-.26c-.52-.18-1-.37-1.54-.55l-.57-.22c-.65-.26-1.27-.52-1.88-.79a54.11,54.11,0,0,1-8.36-5.45l.61,69.68a53.36,53.36,0,0,0,8.36,5.45c.6.27,1.23.54,1.87.8l.14.05.44.16c.51.2,1,.38,1.55.57l.72.24,1.58.5.44.13.23.06c.75.22,1.52.43,2.29.63h0l2.34.55.22,0,.32.07c1.06.23,2.11.45,3.17.64l1.3.23.26,0c1,.16,2,.3,3,.44l.61.08,3.1.37h0l2,.23.83.09,3.37.41.26,0c1.06.14,2.11.29,3.15.46l.33,0c1,.16,2,.35,2.92.55l.62.14c.81.18,1.62.38,2.39.61s1.52.49,2.25.77l.62.24c.45.18.89.38,1.32.59l.56.27a17.52,17.52,0,0,1,1.71,1c3.39,2.29,5,5.13,5,8.24Z" transform="translate(-68.9 -96.79)"/><path class="cls-29" d="M1260.75,883.63l.71-.16,1-.21.81-.14.68-.12.51,58.39,96.69,65.24-.61-69.68-80.09-54c1.17.14,2.35.3,3.53.5l.82.14,1.33.24,1,.19,1.27.26.89.2,2.06.5.57.15c.86.22,1.72.46,2.58.71l.49.15c1.18.35,2.36.72,3.54,1.13l.18.06c1.17.4,2.34.83,3.5,1.28l.28.12c1.33.52,2.64,1.08,3.94,1.66l.19.09c1.32.59,2.62,1.22,3.89,1.89l.12.06c1.3.67,2.57,1.38,3.81,2.11l.06,0c1.27.75,2.5,1.52,3.7,2.33,10.68,7.2,16.29,15.29,16.35,22.18q-.31-34.84-.61-69.68c-.06-6.88-5.68-15-16.35-22.17-1.2-.81-2.44-1.59-3.7-2.33l-.07,0c-1.24-.73-2.51-1.43-3.81-2.1l-.13-.07c-1.28-.66-2.57-1.29-3.89-1.89l-.19-.08q-2-.88-3.94-1.67l-.08,0-.21-.07c-1.17-.46-2.34-.89-3.53-1.3l-.13,0c-1.19-.41-2.38-.78-3.57-1.13l-.27-.09-.18,0c-.87-.26-1.73-.49-2.6-.72l-.53-.13q-1.06-.28-2.12-.51l-.4-.1-.44-.09-1.33-.28-.92-.18-1.34-.24-.65-.12-.17,0c-1.2-.2-2.39-.37-3.57-.51l-.28,0-.21,0c-1-.11-2.06-.21-3.08-.28l-.25,0h-.33c-1.89-.12-3.74-.16-5.54-.11h-.6c-.87,0-1.74.07-2.59.14h-.06l-.15,0c-.89.07-1.75.17-2.6.29l-.27,0-.2,0-1,.18-.74.13-1.06.22-.56.12-.08,0c-.75.18-1.49.4-2.2.62l-.48.16c-.72.24-1.42.49-2.09.77s-1,.49-1.51.74l-.42.24-.51.28-.4.26-.51.34c-.26.18-.51.36-.75.55l-.42.32-.15.12c-.28.24-.56.48-.81.72l-.1.09c-.21.2-.41.41-.6.62l-.16.19-.27.31c-.18.22-.36.43-.52.66l-.23.3-.12.16c-.08.12-.15.23-.22.35s-.28.43-.41.65-.2.33-.29.5l-.35.63c0,.07-.08.14-.12.22l-.12.24c-.19.37-.36.75-.53,1.12l-.11.25-.65,1.5c-.16.38-.33.77-.5,1.15l-.2.44c-.21.46-.42.91-.65,1.37-.12.24-.25.48-.38.71l-.18.34c-.2.34-.41.69-.64,1l-.45.63-.7.93-.31.39c-.32.39-.66.79-1,1.18l-.08.1c-.37.4-.78.8-1.19,1.21l-.37.35c-.3.28-.62.56-.94.83l-.48.4c-.32.26-.66.52-1,.77l-.47.36c-.51.35-1,.71-1.57,1l-.17.09-.07,0-.22.12-.12.07-.26.13-.18.1-.28.14-.26.12-.28.14-.33.16-.32.15-.36.17-.51.23-.23.12-.8.35c-1.82.82-4,1.7-5.95,2.37l-96.81-65.32.61,69.69,96.81,65.32c2-.68,4.12-1.56,5.95-2.37l1.5-.68,0,0,.63-.29,0,0,.44-.21.18-.09.32-.16.21-.1.24-.13.21-.1.17-.09.18-.1.11-.06.11-.06,0,0c.55-.34,1.07-.7,1.58-1.05l.46-.34c.35-.26.69-.52,1-.79l.25-.19.23-.2c.32-.28.63-.55.93-.84l.38-.35c.41-.4.81-.8,1.18-1.21v0l.08-.09c.35-.39.68-.77,1-1.16l.32-.41c.24-.3.46-.6.68-.91l.18-.24.27-.39c.23-.34.44-.68.64-1l.2-.37c.12-.21.23-.42.34-.63l0,0c.23-.46.44-.91.65-1.38.06-.15.13-.29.19-.43l.5-1.15c.21-.51.44-1,.66-1.53l.1-.21c.17-.39.36-.77.55-1.15l.23-.44c.12-.22.23-.45.36-.66l.28-.49c.13-.21.27-.43.42-.64s.22-.34.34-.51l.23-.31c.16-.21.33-.43.51-.65l.28-.32c.24-.27.48-.53.75-.79l.1-.1c.3-.29.63-.57,1-.84l.41-.32q.37-.28.76-.55l.51-.33.91-.55.42-.23c.47-.26,1-.51,1.51-.75s1.37-.53,2.09-.77l.49-.16C1259.27,884,1260,883.81,1260.75,883.63Z" transform="translate(-68.9 -96.79)"/><polygon class="cls-30" points="1591.2 714.1 1591.82 783.78 1292.22 909.85 1291.61 840.17 1591.2 714.1"/><path class="cls-31" d="M1126.8,779.25l123.93-52.15a59.51,59.51,0,0,1,9.7,7.35c5.79,7.63-1.68,18,8,24.6,12,8.07,41.4,6.3,65.76-3.94l2-.87c22.89-10.21,32.06-24.46,20.43-32.31-7.44-5-20.25-4.7-30.69-6.62a68.31,68.31,0,0,1-15.31-4.46,54.11,54.11,0,0,1-8.36-5.45l124.09-52.21,233.71,157.7L1360.51,937l-96.69-65.24c.38-.19.78-.37,1.2-.55a116.63,116.63,0,0,1,12.76-4.68c14.42-3.17,33.92.68,46.38-4.56,15.27-6.8,12.15-22.22-6.63-34.9-19-12.82-46.83-18-62.16-11.53-9.52,4.24-9.15,10.91-12.83,16.38a28.28,28.28,0,0,1-8.58,8.2c-.45.27-2.2,1.15-4.4,2.13-1.82.82-4,1.7-5.95,2.37Z" transform="translate(-68.9 -96.79)"/></g><path class="cls-12" d="M706.69,1107.58s10.25-6.65.41-18.92c-25.44-1.62-55.35-15.36-55.35-15.36-37.4-11.77-89.93-69.66-113.84-96-26.86-29.58-67.52-4.47-45.7,29.3C533,1069.79,640.34,1111.45,706.15,1109" transform="translate(-68.9 -96.79)"/><path class="cls-32" d="M428.27,1401.5c15.63-73,20.31-242.11,20.31-242.11s-12.52-16.62-57.62-19.53-42.1,24.87-41.89,21.27c0,0,0,119.67,20.75,237.5C369.81,1398.63,402,1420.81,428.27,1401.5Z" transform="translate(-68.9 -96.79)"/><path class="cls-33" d="M349.52,1169.41c-4.45-30.21,4.76-60.69,9.51-91.22H496.38c8.79,29.28,17.92,59.35,17.92,59.35s5.88,69.26-52.95,77.56C461.36,1215.1,358.85,1232.87,349.52,1169.41Z" transform="translate(-68.9 -96.79)"/><path class="cls-1" d="M268.88,1696.65c0,58.23,106.1,105.44,237,105.44s237-47.2,237-105.44-106.09-105.43-237-105.43S268.88,1638.42,268.88,1696.65Z" transform="translate(-68.9 -96.79)"/><path class="cls-23" d="M643.69,1692.84l-7.83-.45c-2.67-.41-2.65,3.78-3,3.92-8.19,3.23-15.46,5.75-18.53,5.88,0,0-14.48-1.88-16-6.27l2-26.86c16.13-1.36,33-4.48,33-4.48l35.46-5c17.06-1.78,20.17,4.39,20.17,4.39S699.39,1679.59,643.69,1692.84Z" transform="translate(-68.9 -96.79)"/><path class="cls-34" d="M622.17,1691.25a42.48,42.48,0,0,1,9.17-3c17.49-3.06,34.6-4.8,49.17-16,3.56-2.75,6.07-6.16,6.32-10.24a6.35,6.35,0,0,1,2.11,2s10.45,15.6-45.25,28.85l-7.83-.45c-2.67-.41-2.65,3.78-3,3.92-8.19,3.23-15.46,5.75-18.53,5.88,0,0-14.48-1.88-16-6.27l.5-6.55C604.56,1692.68,614.73,1694.69,622.17,1691.25Z" transform="translate(-68.9 -96.79)"/><path class="cls-23" d="M406.79,1686.19l-7.83-.45c-2.67-.41-2.65,3.78-3,3.92-8.18,3.22-15.45,5.75-18.53,5.88,0,0-14.47-1.88-16-6.27l2-26.86c16.14-1.36,33-4.48,33-4.48l35.46-5c17.06-1.78,20.16,4.4,20.16,4.4S462.49,1672.94,406.79,1686.19Z" transform="translate(-68.9 -96.79)"/><path class="cls-34" d="M385.26,1684.6a42.72,42.72,0,0,1,9.17-3c17.5-3.06,34.61-4.8,49.17-16,3.56-2.75,6.07-6.16,6.32-10.23a6.35,6.35,0,0,1,2.11,2s10.45,15.6-45.25,28.85l-7.83-.45c-2.67-.41-2.65,3.78-3,3.92-8.18,3.22-15.45,5.75-18.53,5.88,0,0-14.47-1.88-16-6.27l.49-6.54C367.65,1686,377.83,1688,385.26,1684.6Z" transform="translate(-68.9 -96.79)"/><path class="cls-32" d="M403.79,1664.36c5.81-6.93,24.87-261.63,24.87-261.63,3.16-39.15-61.94-22.72-61.94-22.72-9.48,39-7.95,46.32-10.93,94.68-1.18,19.11,1.86,177.33,1.16,189.5C356.95,1664.2,387.16,1684.22,403.79,1664.36Z" transform="translate(-68.9 -96.79)"/><path class="cls-35" d="M453.73,1113.59s39.09,66.56,15,110.07-125.41-3.84-119.18-54.23C356.42,1114.16,406.48,1090.24,453.73,1113.59Z" transform="translate(-68.9 -96.79)"/><path class="cls-6" d="M481.77,1028.73c6.35,22.59,32.54,108.8,32.54,108.8-71.77,67.69-164.4,14-165.34,3.79-1.11-12.25,12.55-59,15-109.45C364,1031.88,389.56,992.51,481.77,1028.73Z" transform="translate(-68.9 -96.79)"/><path class="cls-3" d="M512,1408.15" transform="translate(-68.9 -96.79)"/><path class="cls-35" d="M568.13,1388.86c-7.62-74.28-60.53-263.76-60.53-263.76s-15.46-14.24-59.27-3.11-48.65,68.31-49.57,64.8c0,0,51,119.93,118.79,225.6C517.55,1412.39,550.32,1429.16,568.13,1388.86Z" transform="translate(-68.9 -96.79)"/><path class="cls-35" d="M634.22,1661.53c-1.29-9-67.34-275.09-67.34-275.09-15.55-32.82-60.2,1.74-60.2,1.74.15,23.82.79,52.56,16.17,98.51,6.07,18.15,62.23,182.51,66.14,194C589,1680.73,622.17,1691.25,634.22,1661.53Z" transform="translate(-68.9 -96.79)"/><path class="cls-4" d="M312.28,856.25s-7.1,119.54-2.57,167.79c0,0,0,21.93,38.62,32.92,0,0,14.05-133.09,25.49-192.5C373.82,864.46,351,820.4,312.28,856.25Z" transform="translate(-68.9 -96.79)"/><path class="cls-4" d="M355.41,887.13a31.26,31.26,0,0,1-40.92-16.29A30.84,30.84,0,0,1,331,830.25a31.27,31.27,0,0,1,40.92,16.3A30.83,30.83,0,0,1,355.41,887.13Z" transform="translate(-68.9 -96.79)"/><path class="cls-36" d="M339.21,822.42S311,829,309.47,861.69L304.9,979.51s28.2,18.73,64.74,15.54C369.64,995.05,411.79,837.71,339.21,822.42Z" transform="translate(-68.9 -96.79)"/><path class="cls-6" d="M507,1429.63" transform="translate(-68.9 -96.79)"/><path class="cls-6" d="M445.81,747.62s.25,42.08,3.93,84l-55.51-9.2s8.13-19.14-3.31-36.25Z" transform="translate(-68.9 -96.79)"/><path class="cls-6" d="M339.21,822.42c-13.94,10.19-15.54,34.55-10.57,49.76,5.72,17.48,8,39.78,13.71,65.05,7.75,34.25,13,60.63,21.65,94.64,7.16,28.13,120.19,5.46,120.19,5.46L524.71,898.9s7-36.14-25.77-48.17c0,0-34.49-18.62-59.74-27.18-22.3-7.55-30.38-8.26-53.26-6.85C385.94,816.71,355.27,817.83,339.21,822.42Z" transform="translate(-68.9 -96.79)"/><path class="cls-35" d="M504.82,1110.13s24.05,38.82,0,82.33-97.5,27.65-97.72-28.71C406.89,1108.07,457.57,1086.78,504.82,1110.13Z" transform="translate(-68.9 -96.79)"/><path class="cls-36" d="M385.94,816.71s-30.67,1.13-46.73,5.71C324.71,833,325,853.84,327.76,869.59c5.35,30.12,10.77,60.55,13.57,91,1.24,13.5,4.61,41,5.61,54.49,1,13.11,5.13,20.34,18.55,27.27,10.2,5.26,17.78,1.08,28.9,1.38,28.26.77,56.17-2.32,84.18-5.79,1.18-.14,44.9,29.35,30.51,7.65L524.71,898.9s7-36.14-25.77-48.17c0,0-23-14.42-48.28-23C450.67,827.76,406.76,828.88,385.94,816.71Z" transform="translate(-68.9 -96.79)"/><path class="cls-12" d="M464.48,796.22l2.37-9.14,5.62-33.7a33.87,33.87,0,0,0-1.05-13.87c-1.32-4.5-2.38-9.24-1.72-14.22,3.22-24.13-10.3-36.13-10.3-36.13-15.73-20.67-48.45-17.78-48.47-17.78-17,2.57-31.79,9.59-40.24,25.07-7.66,14-11.83,31.16-7.28,46.83,5,17.18,14.61,30.6,27.35,42.79,8.15,7.79,16.49,8.75,27.16,12.66,7.43,2.71,21.65,4.3,29.54,4.35C451.6,803.09,463.12,801.47,464.48,796.22Z" transform="translate(-68.9 -96.79)"/><path class="cls-37" d="M458,703.15l-5.21,20.92c-6,2.61-8.34,4.91-7.52,12.73l1.89,17.28-4.7,1.8c.39-6.92-9.21-7-9.21-7-7-.4-8.21,5.58-7.81,11.33,1,15-4.4,38.7-16.94,42.87-5,1.65-14.28,3.37-15.85-3.34-1.91-8.2-17.44-24.48-17.44-24.48-18.65-18.06-23.33-48.9-14.51-72.46A57,57,0,0,1,374.11,683c11.63-11.13,26.28-16.6,41.72-18.61,0,0,21.27-2.59,33.22,5.8,7.4,5.21,12.27,10,15.44,14.12C464.48,684.32,469,693.93,458,703.15Z" transform="translate(-68.9 -96.79)"/><path class="cls-12" d="M440.88,770.56a8.62,8.62,0,0,1-5.46,2.05c-6.21.3-11.74-5.18-12.33-12.23s4-13,10.16-13.32a11,11,0,0,1,7.92,3c3.18,2.93,3.64,8.67,3.19,12.69C444,766,442.92,768.78,440.88,770.56Z" transform="translate(-68.9 -96.79)"/><path class="cls-13" d="M436.18,753.48c-.61-3.68-7.88.33-6.61,2.35a11.31,11.31,0,0,0,3.19,2.73,5.48,5.48,0,0,1,2.56,3.9c0,.22.12.86-.09,1-.93.74-4.34-2.69-5.09-3.4a6.24,6.24,0,0,1-1.29-5.88,3.75,3.75,0,0,1,3.95-3c1.69,0,3.42,0,3.45,2.1,0,0-.05.4-.08.21Z" transform="translate(-68.9 -96.79)"/><path class="cls-13" d="M434,757.48c.73-.84,1.52-.24,2.35.29a3.53,3.53,0,0,1,1.48,2.1,8.73,8.73,0,0,1-.54,6.25,4.68,4.68,0,0,1-3.9,2.4c-2.26.08-3.06-1.87-3.27-3.78-.05-.51-.18-1.72.3-2.07s1,.44,1.34.78a3.21,3.21,0,0,0,2,.6,4.11,4.11,0,0,0,3.27-1.71,2.32,2.32,0,0,0,.3-.6c.08,1.25,0,1.53-.15.85a3.14,3.14,0,0,0-.48-.85c-.58-.83-1.5-1.37-2.14-2.16-.3-.36-.91-1.67-.54-2.09Z" transform="translate(-68.9 -96.79)"/><path class="cls-6" d="M745.89,1094.87c-2.87-4.26-.36-6.47-6.19-6.66-6.63-.22-12.58-3.49-17.08-3.37-7.84.22-37.46,7.13-17.58,24.08,4.62,4,17.86,21.65,27,16.41,13.54-7.76,8.94-4.9,15.82-21.74Z" transform="translate(-68.9 -96.79)"/><path class="cls-6" d="M469.7,877.41a34.76,34.76,0,1,0,48-10.46A34.76,34.76,0,0,0,469.7,877.41Z" transform="translate(-68.9 -96.79)"/><path class="cls-36" d="M513.28,1006.21c4.51,47.39,7.43,163.45,7.43,163.45-16.82,44.88-177.26,7-178.19-3.23-1.12-12.25,2.17-98.5,4.65-148.93C347.16,1017.5,421.07,970,513.28,1006.21Z" transform="translate(-68.9 -96.79)"/><path class="cls-36" d="M491.44,846.79c42.26,11.89,47.51,63,47.51,63l19.08,84s-48,38.08-77.28,27.36c0,0-23.84-63.4-31.32-126.59C449.43,894.59,449.73,848.17,491.44,846.79Z" transform="translate(-68.9 -96.79)"/><path class="cls-37" d="M467,702.67c-4.77,3.85-10.85,1.32-16.31.05-7.44,8.73,1.46,17.46-9.81,21.69-6,2.24-14.8,2.88-21.41,3.95-5.28.85-10.62-.37-14.4,3.57-4.09,4.27-.22,17.57-5,20.12-8.45,4.46-15.07-18.66-25.84-16.83-9.18,1.56-10.81,16.13-7.59,23.3a11.34,11.34,0,0,0-2.41-1.63c-4.38-11.41-10-11.61-14.8-19.73-7.48-12.58-6.22-9.58-7.71-21.66,0-.11,1.47-5.29,1.49-5.36,3.51-12.86,9.53-15,12.41-20.51,3-5.76,7.75-9.8,11.65-14.87,3.6-4.68,5.41-11,9.54-15.15,6.27-6.35,16.56-9.53,25.19-10.66,9.3-1.22,18.14,4.55,27.35,2.93,3.78-.66,7.32-4.09,11.11-3.88,4.62.26,7.83,4.85,11.82,6.64,7.43,3.34,19.14,2,25.48,7.22,7,5.78,5.51,14.13,1.19,21.22-2.42,4-7.34,6.26-9.52,10.37C468.81,694.59,467.17,702.55,467,702.67Z" transform="translate(-68.9 -96.79)"/><path class="cls-6" d="M1772.6,668.9s-38.51,67.36-68.95,143.31c0,0,.56,14.45,11.2,10s96.51-126.08,96.6-137.16C1811.67,656.58,1772.6,668.9,1772.6,668.9Z" transform="translate(-68.9 -96.79)"/><path class="cls-6" d="M1683.11,841.13l9.28-3.15s-15.71,9.67-22.93,5.83c0,0-1.68-.44-.11-3.1,0,0,14.94-5.19,21-9.15,0,0-13.82,8.23-24.78,10.46,0,0-5-1.44-1.29-5.32-3.79-.26-1.59-3.39-1.59-3.39a61.8,61.8,0,0,1,9-7.07,252.68,252.68,0,0,0,20.48-16.3s-11.85-3.4-9.77-9.73l17.67,3.3,16.48,4.58,4.71,8.74L1710,831.19s-12.17,9.89-20,12.6C1690,843.79,1667.2,850,1683.11,841.13Z" transform="translate(-68.9 -96.79)"/><g class="cls-16"><path class="cls-38" d="M1294.91,1073.46c0-3.07,1.62-5.86,5-8.11a17.08,17.08,0,0,1,1.68-1l.56-.27c.42-.2.84-.4,1.28-.58l.32-.14c.09,0,.2-.07.3-.1.7-.27,1.42-.52,2.16-.74h0c.75-.22,1.54-.41,2.33-.59l.28-.07.36-.07q1.39-.3,2.84-.55h.09l.31,0c1-.15,1.93-.29,2.92-.43l.39,0c1.06-.14,2.13-.26,3.2-.38l.19,0,.72-.09,2.16-.24,3-.37.6-.07c1-.13,2-.27,2.93-.43l1.53-.26q1.55-.29,3.11-.63l.58-.13q1.12-.25,2.22-.53l.07,0c.75-.19,1.49-.39,2.22-.61l.68-.2,1.51-.48.74-.25c.5-.17,1-.35,1.46-.54l.61-.22c.64-.26,1.26-.52,1.85-.79a52.3,52.3,0,0,0,8.22-5.36l-.6,68.55a52.09,52.09,0,0,1-8.22,5.36c-.6.28-1.23.54-1.87.79l-.14.06-.42.15c-.5.19-1,.37-1.52.55l-.72.24-1.51.47-.46.15-.24.06c-.73.21-1.46.41-2.21.61l-.1,0c-.72.19-1.46.36-2.2.53l-.24.05-.36.07c-1,.23-2.07.44-3.1.63l-1.28.23-.27,0q-1.43.23-2.9.42l-.65.08-2.9.35h-.09l-2.06.24-1,.12c-1.06.12-2.11.24-3.16.38l-.38,0c-1,.13-2,.27-2.93.43l-.39.06c-1,.16-1.92.35-2.85.55l-.61.13c-.8.18-1.59.38-2.35.6h0c-.75.22-1.48.47-2.19.75l-.62.24c-.44.18-.87.37-1.29.58l-.56.27c-.58.31-1.15.63-1.68,1-3.34,2.25-4.93,5-5,8.11Z" transform="translate(-68.9 -96.79)"/><path class="cls-38" d="M1027.17,1138.07c0-.13-.05-.26-.08-.39s-.05-.24-.08-.35a1.05,1.05,0,0,0,0-.12c0-.18,0-.37-.07-.54s0-.27,0-.41,0-.38,0-.58,0-.21,0-.33v-.13l.6-68.56c0,.16,0,.31,0,.47s0,.38,0,.57,0,.27,0,.41,0,.36.07.54.06.32.09.47.05.26.08.4.09.32.13.49.07.25.11.37l.07.19a11.34,11.34,0,0,0,.58,1.38v0a12.06,12.06,0,0,0,.76,1.25l.14.2a13.29,13.29,0,0,0,.93,1.15l.29.31.32.33.39.37.36.32.35.29.66.5.35.25c.26.18.52.35.79.51l.3.19c.24.15.5.29.75.42l.34.19c.38.19.77.38,1.17.56.78.33,1.59.62,2.42.89l.85.24c.57.16,1.13.33,1.71.47l.47.1c.66.15,1.32.29,2,.4l.82.13c.63.1,1.27.19,1.91.27l.63.08c.84.1,1.68.18,2.54.25l1.62.1,1.37.09,1.67.07,1.35,0c1.07,0,2.15,0,3.23.06h.09l3.82,0,2.43,0,1.2,0,2.06,0h.53l.9,0,1.56.06,1.46.08,1.5.1.51,0h0c.56,0,1.12.1,1.67.16l.34,0c.72.08,1.44.16,2.14.27l.25,0c1,.15,2.08.33,3.09.55l.09,0,.1,0,.14,0,.22.06.18.05.29.09.22.07.36.12.23.07.43.14.26.09.47.16.28.1.52.18.3.1.54.19.35.12.51.18.42.15.5.18.45.16.51.19.45.17.51.2.46.18.51.19.45.18.51.21.44.18.54.22.39.16.89.39c.43.19.84.38,1.23.57l-.6,68.55-1.22-.57-.89-.39-.3-.12-.63-.27-.37-.14-.59-.24-.41-.16-.55-.22-.43-.16-.54-.21-.45-.17-.51-.2-.44-.16-.52-.19-.41-.14-.5-.18-.44-.16-.42-.15-.44-.15-.39-.13-.39-.13-.37-.12-.34-.12-.35-.11-.3-.1-.29-.1-.27-.08-.24-.07-.21-.06-.2-.06-.15,0-.19,0c-1-.23-2-.4-3.1-.56-.78-.12-1.56-.23-2.37-.31l-.41,0-2.12-.19-1.49-.1-1.47-.08-1.53-.06-1.46,0-2,0-1.26,0-2.41,0-3.14,0h-.79q-1.6,0-3.18-.07h-.16l-1.31,0-1.57-.06-1.42-.09-1.56-.1h-.17q-1.21-.1-2.39-.24l-.6-.07-1.19-.15v0h0v0l-.76-.13-.8-.13c-.68-.12-1.34-.26-2-.4l-.47-.1-.13,0c-.55-.13-1.07-.29-1.6-.45l-.83-.23c-.83-.27-1.64-.56-2.42-.89-.41-.18-.79-.37-1.17-.56l-.39-.21-.7-.39-.09,0-.25-.16c-.26-.16-.51-.32-.76-.49l-.37-.26c-.22-.16-.44-.32-.64-.49l-.21-.16h0l-.15-.13-.35-.31-.4-.38-.32-.32-.21-.21-.08-.1a13.35,13.35,0,0,1-.93-1.16l-.05-.07-.08-.12a12.75,12.75,0,0,1-.76-1.25h0v0a10.9,10.9,0,0,1-.58-1.36s0-.08,0-.12v0h0v0l0-.09c0-.12-.07-.24-.11-.37S1027.21,1138.24,1027.17,1138.07Z" transform="translate(-68.9 -96.79)"/><polygon class="cls-39" points="932.43 1056.08 931.83 1124.63 1226.59 1248.66 1227.19 1180.11 932.43 1056.08"/><polygon class="cls-38" points="1227.19 1180.11 1226.59 1248.66 1456.53 1093.51 1457.13 1024.95 1227.19 1180.11"/><path class="cls-40" d="M1526,1121.74l-121.95-51.31a58.51,58.51,0,0,0-9.53,7.23c-5.7,7.5,1.65,17.75-7.91,24.2-11.78,7.94-40.74,6.21-64.7-3.87l-2-.87c-22.51-10-31.52-24.05-20.09-31.77,7.31-4.94,19.93-4.62,30.19-6.52a66.93,66.93,0,0,0,15.06-4.39,52.3,52.3,0,0,0,8.22-5.36l-122.08-51.38L1136,1062c-2-.66-4.09-1.54-5.89-2.35-2.15-1-3.85-1.81-4.29-2.09a27.83,27.83,0,0,1-8.45-8.06c-3.63-5.39-3.27-12-12.17-15.93-15.54-6.55-42.92-1.47-61.62,11.15-18.48,12.47-21.54,27.64-7,34.12,12.76,5.38,31.94,1.58,46.12,4.71a112.59,112.59,0,0,1,12.52,4.59c.43.19.84.38,1.23.57l-95.13,64.18,294.76,124Z" transform="translate(-68.9 -96.79)"/></g><ellipse class="cls-1" cx="1459.06" cy="1740.09" rx="168.36" ry="74.91"/><path class="cls-4" d="M1442.63,1834.6s-17.86-3.27-12.83,11.31c0,0,41.69,17.9,70.81,13.87,0,0,20.46-.69,17.26-22.89l.34-18-27.45,5.2,1.56,17.15Z" transform="translate(-68.9 -96.79)"/><path class="cls-41" d="M1517.86,1836.88a11.56,11.56,0,0,1-2.74,7.74c-7.19,8.28-21.31,8.53-31.25,7.9a336.22,336.22,0,0,1-47.56-6.65c-3.4-.72-4.35-1.83-4.39-2.83a13.88,13.88,0,0,1,10.7-8.44l-15.2-1.94c-14-.5-20.4,2.72-23.67,4.84-3.88,11.1,15,18.51,15,18.51a307.59,307.59,0,0,0,44.27,12.36s53.37,12.59,59.82-3.83Z" transform="translate(-68.9 -96.79)"/><path class="cls-4" d="M1548.64,1809.79s-17.86-3.26-12.83,11.3c0,0,41.69,17.9,70.81,13.87,0,0,20.47-.69,17.26-22.89l.34-18-27.46,5.19,1.56,17.15Z" transform="translate(-68.9 -96.79)"/><path class="cls-41" d="M1623.88,1812.07a11.52,11.52,0,0,1-2.74,7.73c-7.19,8.29-21.31,8.54-31.25,7.9a337.26,337.26,0,0,1-47.56-6.65c-3.4-.72-4.35-1.83-4.39-2.83a13.89,13.89,0,0,1,10.7-8.44l-15.2-1.94c-14-.5-20.4,2.71-23.67,4.84-3.88,11.1,15,18.5,15,18.5a307.88,307.88,0,0,0,44.27,12.36s53.37,12.58,59.82-3.83Z" transform="translate(-68.9 -96.79)"/><path class="cls-42" d="M1543.7,1327.87a51,51,0,1,0,51-51A51,51,0,0,0,1543.7,1327.87Z" transform="translate(-68.9 -96.79)"/><path class="cls-42" d="M1626.73,1573.19S1626,1586,1603,1586.32c0,0-21.79,7.43-31.19-20.94-37.06-111.72-27.27-228.3-27.27-228.3s52.33-29.15,101.07-9.21C1645.62,1327.87,1637.74,1474.51,1626.73,1573.19Z" transform="translate(-68.9 -96.79)"/><path class="cls-42" d="M1571.81,1565.38s18,241.45,19.63,250.09c17.52,11.12,33-.3,33-.3-.09-11.85,12.82-110.58,14.16-129.12,2.29-31.87,6.12-72.13-14-117.93Z" transform="translate(-68.9 -96.79)"/><path class="cls-43" d="M1479,1580.56s-4.91,11.85-26.73,4.52c0,0-23-.2-22.49-30.08,2-117.69,53.61-239.66,53.61-239.66s58.08-5.55,97.47,29.41C1580.89,1344.75,1522.11,1491.09,1479,1580.56Z" transform="translate(-68.9 -96.79)"/><circle class="cls-43" cx="1532.8" cy="1327.87" r="50.96" transform="translate(-296.75 2237.46) rotate(-70.65)"/><path class="cls-43" d="M1645.62,1320.45c-6.16-56.67-34.59-83-34.59-83L1512.52,1225s-27.16,47.25-30,95.41c11.77,32.12,53.74,41.48,53.74,41.48l31.87,9.46S1640.36,1360.41,1645.62,1320.45Z" transform="translate(-68.9 -96.79)"/><path class="cls-43" d="M1434.35,1578.44s48.86,253.65,51.8,261.93c-1.29-.62,23.09,11.21,33.89-4.06-1.84-11.7-2.87-140.54-4.29-159.07-2.45-31.86-2.11-61.59-28.81-103.9C1486.94,1573.33,1420.23,1525.58,1434.35,1578.44Z" transform="translate(-68.9 -96.79)"/><path class="cls-44" d="M1520.75,1759.46" transform="translate(-68.9 -96.79)"/><path class="cls-4" d="M1652.91,1134.32s-17.95,21.13-53.63,72.15l6.17,10.46s61.13-30.79,80.63-65.36Z" transform="translate(-68.9 -96.79)"/><path class="cls-4" d="M1602.38,1058.71s46,100.41,73.65,96.6c0,0,9.54.6,11.45-6.59,0,0,19.52-17.31-61.64-142.17,0,0-7.93-10.61-24.17-7.87C1601.67,998.68,1577,1015,1602.38,1058.71Z" transform="translate(-68.9 -96.79)"/><rect class="cls-45" x="1459.06" y="883.32" width="49.74" height="52.87"/><path class="cls-6" d="M1497.19,981.31l-1.87-8.45-3.72-31a28.2,28.2,0,0,1,1.84-12.58c1.58-4,2.92-8.3,2.53-12.86-1.86-22.14,12.4-32.36,12.4-32.36,17-18,49.69-13.7,49.7-13.7,16.91,3.21,31.39,10.37,39,24.9,6.9,13.17,10.11,29,4.66,43-6,15.39-16.41,27.11-29.9,37.55-8.64,6.68-17.06,7.13-28,10.13-7.62,2.09-22,2.8-29.92,2.44C1509.74,988.23,1498.26,986.16,1497.19,981.31Z" transform="translate(-68.9 -96.79)"/><path class="cls-44" d="M1519.84,952.65" transform="translate(-68.9 -96.79)"/><path class="cls-44" d="M1519.84,952.65c2.46-3.48,11.39-5.63,11.4-5.63,10.8,0,9.39,14.41,10.4,20.66.33,2,.72,4.12,1.19,6.2,5.14,18.32,20.54,18.17,33.71,20.38.49-.29,1-.58,1.54-.87,2.38-8.12,10-16.56,10-16.56,19.77-17.09,26.22-47.8,18.69-72a57.24,57.24,0,0,0-12.33-20.63c-11.05-11.84-25.46-18.17-40.85-21.06s-70.05,4.54-55.12,37.79c0,0,22.53,26,21.41,51.71" transform="translate(-68.9 -96.79)"/><path class="cls-46" d="M1519.84,952.65c1.95-4.94,6.77-8.75,12.19-7.13a8.15,8.15,0,0,1,6,8.79c-.08.89-.28,1.77-.36,2.65-1.56,9.48-11.57,13.1-11.57,13.1" transform="translate(-68.9 -96.79)"/><path class="cls-47" d="M1531,950a5.5,5.5,0,0,0-2.4-.65c-3.62-.23-6.55,5.36-2.92,6.36,1.37,1.33,0,2.87,0,2.87-1.25,1.36-2.93,3.31-2.55,5.22.23,1.13,1.49,1.74,2.63,2,.91.23,1.09-.49.37-.83a4.1,4.1,0,0,1-1.38-1.13l-.11-.2a.52.52,0,0,1-.09-.14,1.21,1.21,0,0,1,0-.83,2.24,2.24,0,0,0,2.81,0c.69-.83.16-2.12.4-3.07a7.2,7.2,0,0,1,.84-1.87c1.66-2.77-1.33-3.24-1.33-3.24a8.28,8.28,0,0,0-1.1.08c-1.52-.79.18-3.07,1.1-3.44a2.92,2.92,0,0,1,3.16.55,4.51,4.51,0,0,1,1,3.2,10.58,10.58,0,0,1-1,3.84c-.33.68-.75,1.49-1.08,2.18s.53,1.12.9.33c.79-1.64,2.28-4,2.59-6.31A4.8,4.8,0,0,0,1531,950Z" transform="translate(-68.9 -96.79)"/><path class="cls-47" d="M1519.84,952.65s.43-.62,1.14-1.74a14.39,14.39,0,0,1,1.5-1.74,11.74,11.74,0,0,1,2.29-1.78,9.52,9.52,0,0,1,3.1-1.12,8,8,0,0,1,3.54.24,9.58,9.58,0,0,1,1.79.76,8.37,8.37,0,0,1,1.43,1.1,6.84,6.84,0,0,1,1.89,3.22,9.71,9.71,0,0,1,.06,4l-.13,1.09,0,.14v0c0-.07,0,.16,0-.13v.1l-.05.27-.11.54a12,12,0,0,1-.52,1.92,15.47,15.47,0,0,1-1.69,3.36,20,20,0,0,1-2.18,2.7,24.4,24.4,0,0,1-4.1,3.4c-1.09.72-1.76,1.08-1.76,1.08a12.68,12.68,0,0,0,2-.65,20.55,20.55,0,0,0,4.83-2.77,16.54,16.54,0,0,0,2.71-2.65,14.26,14.26,0,0,0,2.24-3.7,13.8,13.8,0,0,0,.73-2.17l.14-.52.07-.27,0-.07,0-.21,0-.14.16-1.09a11.93,11.93,0,0,0,0-4.87,9.35,9.35,0,0,0-2.66-4.34,12.25,12.25,0,0,0-1-.8l-1.14-.64a10.14,10.14,0,0,0-2.19-.77,9.11,9.11,0,0,0-4.48.06,9.87,9.87,0,0,0-3.52,1.76,10.08,10.08,0,0,0-2.2,2.37,15.43,15.43,0,0,0-1.23,2.11C1520.08,951.93,1519.84,952.65,1519.84,952.65Z" transform="translate(-68.9 -96.79)"/><path class="cls-15" d="M1526.06,967.75a3,3,0,1,1-3-3A3,3,0,0,1,1526.06,967.75Z" transform="translate(-68.9 -96.79)"/><path class="cls-48" d="M1523.77,969.35a2.38,2.38,0,0,1-2.38-2.39,2.35,2.35,0,0,1,1.66-2.23h0a3,3,0,1,0,3,3c0-.07,0-.15,0-.21A2.35,2.35,0,0,1,1523.77,969.35Z" transform="translate(-68.9 -96.79)"/><path class="cls-41" d="M1657.59,1261.11l-54.91-78.79c-2.56-11.58,3.21-34.62,3.21-34.62l17.55-120.75c-2.08-13.84-3-31.41-21.77-28.26-13.21,2.22-15.82,4.06-24,6.68,2.39,11.21-17,18.42-17,18.42-26.62,11.5-32.78,3.92-32.78,3.92-7.09,3.84-31,15.8-37.27,20.92-6.46,5.32-10.37,13.59-8.34,27.53l19.16,114.45-3.37,28.43-35,88.75a75.25,75.25,0,0,1,34.1-4.07c10.88,1.3,20.26,7.72,31.07,8.92,16.33,1.79,28.46-4.1,40.78-11.91a196.63,196.63,0,0,0,47.21-16.59h1c12.22.07,26.05-.15,35.07-9.71C1654.31,1272.38,1659.9,1264.43,1657.59,1261.11Z" transform="translate(-68.9 -96.79)"/><path class="cls-6" d="M1468.07,1231.82l.32-139c3.38-38.09,22.3-44.18,22.3-44.18,38.24-4.48,32.35,66.38,32.35,66.38l-16,119.77" transform="translate(-68.9 -96.79)"/><path class="cls-6" d="M1346.34,1307.83c17.54-9.39,19.11-12.42,22.21-16.83,13.33-18.95-13.62-18.35-20.41-16.81-3.89.89-4.13,10.15-16.22,21.46,0,0-19,11-23.66,10.24,0,0-4.87.7-4.87,4.2C1303.39,1310.08,1316.72,1318,1346.34,1307.83Z" transform="translate(-68.9 -96.79)"/><path class="cls-46" d="M1493.1,1212.68" transform="translate(-68.9 -96.79)"/><path class="cls-6" d="M1470.95,1217.17l-119.08,65.18c-5.14,14.33,1.47,16.39,1.47,16.39l92.19-26.52c39.35-10.54,55-27.06,55-27.06s17.21-11.92-4.75-29.68C1495.73,1215.47,1485.73,1207.56,1470.95,1217.17Z" transform="translate(-68.9 -96.79)"/><path class="cls-44" d="M1509.27,944.14c3.09,23.06-.39,53.57,11.1,78.78,5.11,11.22,10.76,16.78,7.69,29.79-2.51,10.65-7.55,20.7-10.28,31.73-6,24.34,2.16,48.13,30.54,39.31,13.6-4.23,15.13-4.16,27.51.64,10.4,4,20.19,5.15,30.53.12,16-7.81,11.21-19.62,20.2-31.44,6.85-9,16.53-8.79,21.69-20.9,6.23-14.62-1.19-22.42-8.78-34.82-7.9-12.92-9.16-21.43-6.56-37,2.18-13.09-1.05-19.7-5.38-31.73-4.44-12.33-2.51-23.07-4.61-35.43-4.16-24.45-17.52-57.62-43.13-64.8-12.55-3.51-28.77-6.26-40.85-1.83-16.45,6-34.77,12.46-34.05,32.69C1505.6,920.06,1506.53,923.6,1509.27,944.14Z" transform="translate(-68.9 -96.79)"/><path class="cls-6" d="M1351.32,1273.71s3.34,9.76-8.81,7.37l-11.89-9.06s-3.69-2-2.39-5.51c0,0,1.42-2,5.22,0Z" transform="translate(-68.9 -96.79)"/><circle class="cls-49" cx="1511.6" cy="87.15" r="41.11"/><circle class="cls-49" cx="229.4" cy="1815" r="41.11"/><path class="cls-50" d="M298.3,496.83a29.43,29.43,0,1,1-29.43-29.42A29.43,29.43,0,0,1,298.3,496.83Z" transform="translate(-68.9 -96.79)"/><path class="cls-50" d="M1993.73,717.73a29.43,29.43,0,1,1-29.43-29.43A29.43,29.43,0,0,1,1993.73,717.73Z" transform="translate(-68.9 -96.79)"/><circle class="cls-51" cx="1081.45" cy="337.12" r="29.43"/><circle class="cls-52" cx="76.08" cy="1018.45" r="29.42"/><path class="cls-52" d="M2017.3,1308.77a29.43,29.43,0,1,1-29.43-29.43A29.42,29.42,0,0,1,2017.3,1308.77Z" transform="translate(-68.9 -96.79)"/><circle class="cls-36" cx="860.67" cy="29.42" r="29.42"/><circle class="cls-36" cx="1782.98" cy="1668.44" r="29.42"/><line class="cls-53" y1="1247.98" x2="92.26" y2="1247.98"/><line class="cls-53" x1="106.02" y1="1247.98" x2="152.15" y2="1247.98"/><line class="cls-54" x1="1787.93" y1="1444.88" x2="1895.4" y2="1444.88"/><line class="cls-54" x1="1911.43" y1="1444.88" x2="1965.17" y2="1444.88"/><line class="cls-53" x1="921.44" y1="1795.17" x2="829.16" y2="1795.17"/><line class="cls-53" x1="815.42" y1="1795.17" x2="769.29" y2="1795.17"/><line class="cls-53" x1="1700.82" y1="199.01" x2="1739.54" y2="199.01"/><line class="cls-53" x1="1749.51" y1="199.01" x2="1782.98" y2="199.01"/><line class="cls-53" x1="1655.88" y1="199.01" x2="1689.34" y2="199.01"/><line class="cls-53" x1="1827.42" y1="850.1" x2="1963.38" y2="850.1"/><line class="cls-53" x1="1121.63" y1="159.58" x2="1134.49" y2="172.44"/><line class="cls-53" x1="1143.56" y1="181.51" x2="1156.42" y2="194.38"/><line class="cls-53" x1="1156.42" y1="159.58" x2="1143.56" y2="172.44"/><line class="cls-53" x1="1134.49" y1="181.51" x2="1121.63" y2="194.38"/><line class="cls-53" x1="41.28" y1="592.57" x2="54.14" y2="605.43"/><line class="cls-53" x1="63.21" y1="614.51" x2="76.08" y2="627.37"/><line class="cls-53" x1="76.08" y1="592.57" x2="63.21" y2="605.43"/><line class="cls-53" x1="54.14" y1="614.51" x2="41.28" y2="627.37"/><line class="cls-53" x1="1010.16" y1="1394.72" x2="1023.02" y2="1407.59"/><line class="cls-53" x1="1032.1" y1="1416.66" x2="1044.96" y2="1429.52"/><line class="cls-53" x1="1044.96" y1="1394.72" x2="1032.1" y2="1407.59"/><line class="cls-53" x1="1023.02" y1="1416.66" x2="1010.16" y2="1429.52"/><circle class="cls-53" cx="379.68" cy="340.56" r="15.96"/><ellipse class="cls-53" cx="1433.25" cy="415.46" rx="15.96" ry="15.97"/></svg>