<svg width="867" height="401" viewBox="0 0 867 401" fill="none" xmlns="http://www.w3.org/2000/svg">
<path d="M465.301 48.326C465.301 48.326 453.244 26.4355 464.299 16.768C475.353 7.10048 494.825 12.8714 498.406 16.768C501.987 20.6646 506.76 31.7524 496.866 47.5235L465.301 48.326Z" fill="#2C3A64"/>
<path d="M441.277 398.041C441.277 398.041 441.277 391.97 442.142 389.953C443.007 387.936 446.187 379.715 446.187 379.715H458.571C458.571 379.715 460.875 387.212 461.018 389.662C461.16 392.112 461.018 398.041 461.018 398.041H441.277Z" fill="#233862"/>
<path d="M519.913 398.041C519.913 398.041 519.913 391.97 519.053 389.953C518.194 387.936 515.019 379.715 515.019 379.715H502.619C502.619 379.715 500.315 387.212 500.172 389.662C500.03 392.112 500.172 398.041 500.172 398.041H519.913Z" fill="#233862"/>
<path d="M470.295 57.3337C470.295 57.3337 469.862 70.8503 468.132 76.9063L454.457 86.4577L505.942 94.1716L493.653 77.1862C493.653 77.1862 489.962 59.0655 491.887 52.3706C493.812 45.6756 470.295 57.3337 470.295 57.3337Z" fill="#B56F40"/>
<path d="M470.221 59.2031C470.221 59.2031 474.292 69.0132 481.961 68.7967C489.629 68.5802 491.375 59.9001 491.375 59.9001L470.221 59.2031Z" fill="#99592E"/>
<path d="M491.681 27.9219H470.485C467.631 27.9219 465.3 30.6622 465.3 34.0096V48.3235C465.3 57.4947 475.527 64.9024 481.086 65.0027C487.457 65.1136 496.866 57.1304 496.866 47.5156V34.0096C496.866 30.6622 494.534 27.9219 491.681 27.9219Z" fill="#B56F40"/>
<path d="M442.827 187.816C442.827 187.816 444.995 254.065 441.773 291.859C438.55 329.653 441.773 382.263 441.773 382.263C441.773 382.263 452.136 387.981 463.396 382.263C463.396 382.263 475.716 309.241 475.637 291.859C475.558 273.379 489.049 190.705 489.049 190.705L442.827 187.816Z" fill="#EE9849"/>
<path d="M519.497 382.275C519.497 382.275 509.133 387.999 497.873 382.275C497.873 382.275 485.558 309.258 485.637 291.876C485.669 284.062 483.285 264.8 480.516 245.164C476.724 218.299 472.225 190.727 472.225 190.727L520.219 187.723C520.219 187.723 516.264 254.082 519.507 291.876C522.751 329.67 519.497 382.275 519.497 382.275Z" fill="#EE9849"/>
<path d="M511.163 80.3911V80.4227C505.403 78.9626 499.554 77.8814 493.653 77.1861C488.874 83.5221 485.441 85.0163 481.074 86.7482C474.044 85.7714 468.121 77.1069 468.121 76.9062C463.071 77.3632 458.078 78.3092 453.211 79.7311C452.794 79.7786 430.332 82.7512 398.54 147.537C398.54 147.537 400.249 153.503 408.587 163.905C414.521 171.297 423.813 180.949 438.227 192.285C439.3 189.819 440.17 187.269 440.828 184.661C440.828 184.661 432.257 167.971 427.115 156.677C424.61 151.175 422.896 146.951 423.423 146.544C424.351 145.773 434.715 136.766 442.368 130.108C442.304 131.771 442.289 133.276 442.331 134.601C442.742 149.073 443.327 163.139 441.466 178.715C439.013 199.186 443.164 198.827 443.164 198.827C443.164 198.827 448.744 199.92 456.528 200.939C463.575 201.879 472.414 202.776 480.557 202.776C499.222 202.776 519.68 198.811 519.68 198.811C525.566 198.885 518.029 162.126 516.927 140.013C516.669 134.875 516.431 130.187 516.21 125.905C523.246 132.019 538.825 145.573 539.975 146.528C540.465 146.935 538.762 151.159 536.283 156.661C531.125 167.96 522.57 184.645 522.57 184.645C523.228 187.253 524.098 189.803 525.171 192.269C539.585 180.933 548.878 171.286 554.811 163.889C563.149 153.487 564.832 147.521 564.832 147.521C532.681 82.1599 511.163 80.3911 511.163 80.3911Z" fill="#74ACBE"/>
<path d="M456.487 200.972C448.702 199.916 443.122 198.86 443.122 198.86C443.122 198.86 438.972 199.219 441.424 178.748C443.286 163.172 442.7 149.106 442.289 134.634C442.242 133.05 442.289 131.117 442.373 129C443.55 130.896 456.856 152.385 460.427 168.352C463.064 180 459.108 193.722 456.487 200.972Z" fill="#578E9B"/>
<path d="M485.637 291.858C485.668 284.044 483.285 264.782 480.516 245.146C483.39 233.414 490.389 222.125 490.389 222.125C499.244 246.994 485.637 291.858 485.637 291.858Z" fill="#E58638"/>
<path d="M439.119 185.507C439.119 185.507 446.893 178.3 450.063 182.339C453.233 186.378 453.808 192.719 451.36 192.286C448.913 191.853 443.871 189.546 443.149 190.702C442.426 191.858 439.204 194.06 438.223 192.286C437.242 190.512 439.119 185.507 439.119 185.507Z" fill="#B56F40"/>
<path d="M440.828 184.686C440.17 187.292 439.3 189.84 438.228 192.304C423.814 180.968 414.521 171.322 408.587 163.925C413.06 163.592 419.589 161.992 427.099 156.691C432.257 167.99 440.828 184.686 440.828 184.686Z" fill="#B56F40"/>
<path d="M524.195 185.507C524.195 185.507 516.421 178.3 513.251 182.339C510.082 186.378 509.507 192.719 511.954 192.286C514.401 191.853 519.443 189.546 520.16 190.702C520.878 191.858 524.111 194.06 525.086 192.286C526.062 190.512 524.195 185.507 524.195 185.507Z" fill="#B56F40"/>
<path d="M522.486 184.686C523.145 187.292 524.014 189.84 525.086 192.304C539.5 180.968 548.793 171.322 554.727 163.925C550.254 163.592 543.725 161.992 536.209 156.691C531.051 167.99 522.486 184.686 522.486 184.686Z" fill="#B56F40"/>
<path d="M539.934 146.559C538.779 145.598 523.093 131.955 516.095 125.867C516.095 125.867 523.078 120.624 527.402 128.269C531.727 135.915 539.934 146.559 539.934 146.559Z" fill="#578E9B"/>
<path d="M564.773 147.559C564.773 147.559 563.065 153.525 554.753 163.926C545.075 163.794 564.773 147.559 564.773 147.559Z" fill="#578E9B"/>
<path d="M465.3 39.8113C465.3 39.8113 469.155 28.0266 481.792 29.864C494.428 31.7014 495.504 34.4047 496.865 37.541C498.226 40.6772 500.805 26.0783 500.805 26.0783L485.895 21.6484C485.895 21.6484 467.858 23.7023 466.566 26.7277L465.268 29.7584L465.3 39.8113Z" fill="#2C3A64"/>
<path d="M480.052 17.0068C480.052 17.0068 466.693 4.86296 472.426 2.26524C478.159 -0.332479 480.052 17.0068 480.052 17.0068Z" fill="#2C3A64"/>
<path d="M479.514 17.3333C479.514 17.3333 462.637 10.9658 466.999 6.44089C471.361 1.916 479.514 17.3333 479.514 17.3333Z" fill="#2C3A64"/>
<path d="M480.615 17.6842C480.615 17.6842 477.831 2.01344 484.529 2.11376C491.227 2.21408 480.615 17.6842 480.615 17.6842Z" fill="#2C3A64"/>
<path d="M481.554 16.6618C481.554 16.6618 488.785 -0.197014 495.52 1.38168C502.255 2.96037 481.554 16.6618 481.554 16.6618Z" fill="#2C3A64"/>
<path d="M481.18 17.6864C481.18 17.6864 492.693 3.43059 498.753 6.75165C504.813 10.0727 481.18 17.6864 481.18 17.6864Z" fill="#2C3A64"/>
<path d="M357.055 398.041C357.055 398.041 357.055 391.97 357.92 389.953C358.785 387.936 361.954 379.715 361.954 379.715H374.338C374.338 379.715 376.643 387.212 376.785 389.662C376.927 392.112 376.785 398.041 376.785 398.041H357.055Z" fill="#233862"/>
<path d="M435.687 398.041C435.687 398.041 435.687 391.969 434.822 389.953C433.957 387.936 430.787 379.715 430.787 379.715H418.404C418.404 379.715 416.125 387.212 415.956 389.667C415.788 392.123 415.956 398.047 415.956 398.047L435.687 398.041Z" fill="#233862"/>
<path d="M386.061 57.3337C386.061 57.3337 385.624 70.8503 383.894 76.9063L370.239 86.4577L421.725 94.1716L409.447 77.1862C409.447 77.1862 405.755 59.0655 407.685 52.3706C409.615 45.6756 386.061 57.3337 386.061 57.3337Z" fill="#FFB27D"/>
<path d="M385.994 59.2031C385.994 59.2031 390.06 69.0132 397.734 68.7967C405.408 68.5802 407.159 59.9001 407.159 59.9001L385.994 59.2031Z" fill="#ED985F"/>
<path d="M381.416 51.2559C381.416 51.2559 378.937 38.8798 377.196 35.131C375.456 31.3823 374.032 14.6555 393.182 13.7949C393.182 13.7949 400.529 14.6555 404.558 12.2109C404.558 12.2109 404.558 14.6608 403.551 15.5267C405.713 15.1458 407.937 15.3306 410.007 16.0633C412.077 16.796 413.922 18.0516 415.365 19.7084C420.549 25.4741 411.905 45.6592 412.338 50.4164L381.416 51.2559Z" fill="#B64C41"/>
<path d="M407.455 27.9219H386.253C383.399 27.9219 381.068 30.6622 381.068 34.0096V48.3235C381.068 57.4947 391.295 64.9024 396.854 65.0027C403.225 65.1136 412.639 57.1304 412.639 47.5156V34.0096C412.639 30.6622 410.324 27.9219 407.455 27.9219Z" fill="#FFB27D"/>
<path d="M381.068 41.6576C381.068 41.6576 381.099 33.0566 387.924 31.7313C394.749 30.4061 409.959 35.9236 412.116 29.6511C414.273 23.3785 382.682 23.4894 381.089 27.4916C379.496 31.4937 381.068 41.6576 381.068 41.6576Z" fill="#B64C41"/>
<path d="M358.6 187.816C358.6 187.816 360.768 254.065 357.546 291.859C354.323 329.653 357.572 382.263 357.572 382.263C357.572 382.263 367.935 387.981 379.169 382.263C379.169 382.263 391.484 309.241 391.405 291.859C391.326 273.379 404.817 190.705 404.817 190.705L358.6 187.816Z" fill="#2B478B"/>
<path d="M435.237 382.275C435.237 382.275 424.874 387.999 413.614 382.275C413.614 382.275 401.299 309.258 401.378 291.876C401.409 284.062 399.026 264.8 396.257 245.164C392.47 218.299 387.966 190.727 387.966 190.727L435.96 187.723C435.96 187.723 431.999 254.082 435.243 291.876C438.486 329.67 435.237 382.275 435.237 382.275Z" fill="#2B478B"/>
<path d="M372.26 200.972C364.47 199.916 358.89 198.86 358.89 198.86C358.89 198.86 354.745 199.219 357.192 178.748C359.054 163.172 358.474 149.106 358.057 134.634C358.009 133.05 358.057 131.117 358.141 129C359.333 130.911 372.624 152.401 376.2 168.368C378.805 180 374.881 193.722 372.26 200.972Z" fill="#27437C"/>
<path d="M426.931 80.3911V80.4227C421.173 78.963 415.325 77.8818 409.426 77.1861C404.648 83.5221 401.214 85.0163 396.847 86.7482C389.817 85.7714 383.894 77.1069 383.894 76.9062C378.843 77.3628 373.848 78.3088 368.979 79.7311C368.562 79.7786 346.1 82.7512 314.308 147.537C314.308 147.537 316.017 153.503 324.329 163.905C330.262 171.297 339.555 180.949 353.969 192.285C355.042 189.819 355.912 187.269 356.569 184.661C356.569 184.661 347.999 167.971 342.857 156.677C340.351 151.175 338.637 146.951 339.138 146.544C340.067 145.773 350.43 136.766 358.083 130.108C358.025 131.771 358.009 133.276 358.046 134.601C358.463 149.073 359.043 163.139 357.181 178.715C354.734 199.186 358.879 198.827 358.879 198.827C358.879 198.827 364.459 199.92 372.249 200.939C379.29 201.879 388.135 202.776 396.272 202.776C414.937 202.776 435.396 198.811 435.396 198.811C441.281 198.885 433.745 162.126 432.643 140.013C432.389 134.875 432.152 130.187 431.925 125.905C438.966 132.019 454.54 145.573 455.69 146.528C456.181 146.935 454.477 151.159 451.998 156.661C446.84 167.96 438.286 184.645 438.286 184.645C438.947 187.253 439.818 189.803 440.891 192.269C455.3 180.933 464.593 171.286 470.526 163.889C478.865 153.487 480.579 147.521 480.579 147.521C448.454 82.1599 426.931 80.3911 426.931 80.3911Z" fill="#2F5196"/>
<path d="M401.405 291.858C401.436 284.044 399.053 264.782 396.284 245.146C399.158 233.414 406.157 222.125 406.157 222.125C415.012 246.994 401.405 291.858 401.405 291.858Z" fill="#233862"/>
<path d="M354.887 185.507C354.887 185.507 362.661 178.3 365.831 182.339C369.001 186.378 369.576 192.719 367.129 192.286C364.681 191.853 359.639 189.546 358.917 190.702C358.194 191.858 354.972 194.06 353.996 192.286C353.02 190.512 354.887 185.507 354.887 185.507Z" fill="#FFB27D"/>
<path d="M356.596 184.686C355.938 187.292 355.068 189.84 353.996 192.304C339.582 180.968 330.262 171.322 324.355 163.925C328.828 163.592 335.357 161.992 342.867 156.691C348.026 167.99 356.596 184.686 356.596 184.686Z" fill="#FFB27D"/>
<path d="M439.964 185.507C439.964 185.507 432.19 178.3 429.02 182.339C425.851 186.378 425.276 192.724 427.728 192.286C430.181 191.848 435.217 189.546 435.94 190.702C436.662 191.858 439.885 194.06 440.866 192.286C441.847 190.512 439.964 185.507 439.964 185.507Z" fill="#FFB27D"/>
<path d="M438.275 184.686C438.934 187.292 439.803 189.84 440.876 192.304C455.29 180.968 464.609 171.322 470.516 163.925C466.043 163.592 459.514 161.992 452.004 156.691C446.825 167.99 438.275 184.686 438.275 184.686Z" fill="#FFB27D"/>
<path d="M455.68 146.559C454.53 145.598 438.84 131.955 431.841 125.867C431.841 125.867 438.829 120.624 443.149 128.269C447.468 135.915 455.68 146.559 455.68 146.559Z" fill="#2B478B"/>
<path d="M480.547 147.559C480.547 147.559 478.833 153.525 470.495 163.926C460.843 163.794 480.547 147.559 480.547 147.559Z" fill="#2B478B"/>
<path d="M384.617 73.6094C383.9 73.9515 383.266 74.4463 382.759 75.0591C382.253 75.6719 381.886 76.3881 381.685 77.1575C381.685 77.1575 390.851 86.598 396.853 86.7458L384.617 73.6094Z" fill="#EE9849"/>
<path d="M396.854 86.7497L408.689 73.1328C408.689 73.1328 411.136 74.7432 411.099 77.3937C411.099 77.3937 401.943 87.1246 396.854 86.7497Z" fill="#EE9849"/>
<path d="M394.722 85.7456C394.722 85.7456 385.688 163.816 388.831 173.336C390.25 177.544 392.097 181.596 394.343 185.427C394.625 185.912 395.029 186.315 395.516 186.595C396.002 186.875 396.553 187.022 397.114 187.022C397.675 187.022 398.226 186.875 398.713 186.595C399.199 186.315 399.603 185.912 399.886 185.427C402.28 181.256 405.418 175.226 405.418 172.163C405.418 167.2 398.562 85.6875 398.562 85.6875L394.722 85.7456Z" fill="#EE9849"/>
<path d="M392.354 81.914C392.354 81.914 397.818 81.386 401.141 81.7028C401.292 81.7188 401.438 81.7724 401.563 81.8586C401.689 81.9448 401.791 82.061 401.861 82.1967C401.93 82.3324 401.965 82.4833 401.962 82.6358C401.959 82.7884 401.918 82.9377 401.842 83.0703C400.914 84.7493 399.01 87.6638 397.022 87.6638C394.232 87.648 389.881 82.1093 392.354 81.914Z" fill="#E58638"/>
<path d="M736.688 47.1093C736.688 47.1093 731.615 32.6793 731.346 28.9305C731.077 25.1818 732.759 14.3685 745.227 13.2017C757.695 12.0348 762.352 10.7148 762.352 10.7148L759.994 13.5396C761.2 13.2513 762.453 13.2179 763.673 13.4415C764.892 13.6652 766.052 14.1409 767.078 14.8385C770.69 17.2144 772.526 24.242 771.982 30.298C771.439 36.3541 766.708 43.0226 766.65 45.5253C766.592 48.028 736.688 47.1093 736.688 47.1093Z" fill="#233862"/>
<path d="M702.659 196.836C702.659 196.836 702.369 200.136 698.936 207.301C698.936 207.301 697.354 212.174 707.67 219.487C717.986 226.799 707.954 196.836 707.954 196.836H702.659Z" fill="#D9935C"/>
<path d="M739.045 69.4805C739.045 69.4805 733.244 100.474 726.952 132.841C720.095 168.032 712.622 204.86 711.277 205.309C708.703 206.169 704.758 202.795 703.039 198.497C701.657 195.039 699.289 166.606 700.929 148.232C701.178 144.727 701.631 141.24 702.285 137.788C704.859 126.172 705.644 85.0934 713.36 78.6518C721.076 72.2102 739.045 69.4805 739.045 69.4805Z" fill="#D9935C"/>
<path d="M739.045 69.4805C739.045 69.4805 735.707 87.3427 731.345 110.11C729.964 117.338 728.471 125.053 726.952 132.851C720.771 144.995 715.465 153.227 713.83 151.674C710.486 148.506 704.616 148.126 700.903 148.242C701.152 144.738 701.605 141.25 702.259 137.798C702.459 136.88 702.654 135.776 702.839 134.525C705.001 119.915 706.225 84.5918 713.35 78.6518C721.082 72.1997 739.045 69.4805 739.045 69.4805Z" fill="#739AF0"/>
<path d="M731.345 110.115C729.964 117.343 728.471 125.057 726.952 132.856C720.771 145 715.465 153.231 713.83 151.679C710.486 148.511 704.616 148.131 700.903 148.247C701.152 144.742 701.605 141.255 702.259 137.803C702.459 136.884 702.654 135.781 702.839 134.53L721.372 89.7656L731.345 110.115Z" fill="#4A75CB"/>
<path d="M764.694 69.0214C764.831 62.77 764.725 55.2937 763.881 49L738.956 53.0814C738.956 53.0814 738.956 60.6897 739.067 69.1429C739.067 69.1429 738.386 76.9835 748.033 78.1187C757.679 79.2539 764.952 75.0722 764.694 69.0214Z" fill="#D9935C"/>
<path d="M738.897 54.6172C738.897 54.6172 744.768 66.6607 751.503 66.6607C758.238 66.6607 764.529 55.3353 764.529 55.3353L738.897 54.6172Z" fill="#CB7D45"/>
<path d="M755.501 399.787C755.501 399.787 756.408 392.717 758.507 388.509C760.606 384.301 773.971 386.983 773.971 386.983C773.971 386.983 776.645 389.274 777.22 399.982L755.501 399.787Z" fill="#233862"/>
<path d="M709.965 399.698C713.103 397.781 711.315 383.467 711.315 383.467C711.315 383.467 696.685 371.746 694.67 380.716C692.655 389.687 680.767 393.721 674.001 394.819C669.328 395.579 667.883 398.166 667.435 399.698H709.965Z" fill="#233862"/>
<path d="M739.7 55.5112C742.121 57.4172 749.193 59.3127 751.271 59.5345C751.271 59.5345 761.82 57.1849 763.718 56.0286C766.682 54.2282 766.492 50.5903 766.64 45.5269C766.825 39.5342 767.426 34.8298 766.761 31.3767C765.965 27.2425 763.349 24.893 756.023 24.2541C742.569 23.0819 736.968 26.4558 736.736 30.9701C736.673 32.1845 736.615 33.3408 736.578 34.4338C736.04 48.51 737.153 53.5048 739.7 55.5112Z" fill="#D9935C"/>
<path d="M740.275 293.309C739.768 295.926 739.416 298.571 739.22 301.229C737.865 327.793 716.885 388.534 713.135 389.933C707.333 392.125 698.188 387.468 693.404 385.942C692.434 385.656 691.604 385.021 691.072 384.16C690.541 383.298 690.346 382.271 690.525 381.274C700.915 333.464 704.728 264.623 706.12 223.861C706.822 203.333 710.339 189.151 710.339 189.151C710.339 189.151 761.498 175.486 761.804 192.773C762.052 208.079 744.837 268.071 740.275 293.309Z" fill="#2B478B"/>
<path d="M740.275 293.31L706.099 223.873C706.8 203.344 710.318 189.162 710.318 189.162C710.318 189.162 761.476 175.498 761.782 192.784C762.051 208.081 744.837 268.072 740.275 293.31Z" fill="#233862"/>
<path d="M728.877 192.848L755.922 389.085C755.922 389.085 767.8 391.952 777.019 389.661C777.019 389.661 784.93 285.291 784.276 260.057C783.622 234.824 789.961 192.542 782.831 187.88C775.7 183.218 728.877 192.848 728.877 192.848Z" fill="#2B478B"/>
<path d="M786.75 187.881C786.773 188.421 786.688 188.961 786.499 189.468C786.311 189.975 786.023 190.44 785.652 190.833C785.281 191.227 784.835 191.542 784.341 191.761C783.847 191.979 783.313 192.096 782.773 192.105L740.153 192.723L708.846 193.203C707.38 193.203 712.011 181.487 712.111 104.927C712.111 87.8459 738.55 69.4609 739.009 69.4609C739.009 71.9214 742.88 76.4622 748.845 76.8529C755.923 77.3176 764.609 73.7958 764.609 69.7091C765.406 70.5671 766.124 71.4948 766.756 72.4811C770.289 77.6397 777.409 90.2114 781.955 112.081C785.542 129.363 784.165 152.468 786.75 182.305C786.971 184.459 786.697 186.387 786.75 187.881Z" fill="#FFA412"/>
<path d="M785.178 192.318C785.178 192.318 779.514 194.858 768.918 197.07C758.544 199.165 747.988 200.227 737.405 200.238C716.694 200.37 708.846 193.227 708.846 193.227C707.38 193.227 712.011 181.51 712.111 104.95C712.111 87.8694 738.55 69.4844 739.009 69.4844C739.009 69.4844 738.37 92.2254 745.227 98.9151C745.227 98.9151 754.868 91.4598 767.378 70.2447C770.912 75.398 777.436 90.2242 781.982 112.105C782.927 116.903 783.574 121.756 783.917 126.635C785.125 141.731 784.856 160.168 786.776 182.302C786.961 184.456 786.686 186.368 786.739 187.878C786.839 190.148 787.446 192.281 785.178 192.318Z" fill="#739AF0"/>
<path d="M785.178 192.32C785.178 192.32 779.514 194.86 768.918 197.072C765.579 191.982 761.381 182.816 760.796 168.323C759.815 143.839 783.042 112.312 783.042 112.312L783.928 126.653C785.136 141.749 784.867 160.186 786.786 182.32C786.971 184.474 786.697 186.386 786.75 187.896C786.839 190.15 787.446 192.283 785.178 192.32Z" fill="#4A75CB"/>
<path d="M765.062 109.426L725.467 132.312L756.823 186.685L796.419 163.799L765.062 109.426Z" fill="#2B478B"/>
<path d="M802.614 160.279C802.614 160.279 794.507 161.071 780.642 159.645C767.733 158.261 754.979 155.689 742.542 151.963L746.956 144.412C746.956 144.412 765.01 143.62 778.232 141.677C781.137 141.285 784.017 140.729 786.86 140.014C789.734 139.243 775.463 103.054 768.264 81.7386C766.544 76.6592 765.231 72.4246 764.646 69.7266C764.646 69.7266 765.906 69.9325 767.884 70.3232C773.485 71.4267 784.877 74.0192 789.724 77.7152C796.285 82.6679 812.656 138.641 802.614 160.279Z" fill="#D9935C"/>
<path d="M747.115 144.41C747.115 144.41 741.002 138.676 738.634 138.676C736.266 138.676 729.462 141.163 728.766 143.074C728.07 144.985 727.791 148.428 729.737 149.188C731.683 149.948 739.757 151.865 741.835 152.055C743.913 152.245 749.061 151.099 747.115 144.41Z" fill="#D9935C"/>
<path d="M802.613 160.279C802.613 160.279 794.507 161.071 780.641 159.646C781.406 155.876 782.118 148.51 778.231 141.694C781.136 141.301 784.017 140.746 786.86 140.03C789.734 139.259 775.462 103.07 768.263 81.7549C767.688 74.8909 767.388 70.2656 767.388 70.2656L767.883 70.3395C773.484 71.4431 784.877 74.0355 789.723 77.7316C796.284 82.6684 812.655 138.642 802.613 160.279Z" fill="#739AF0"/>
<path d="M745.227 98.9161C745.227 98.9161 764.509 90.4102 764.799 89.7396C765.089 89.0691 763.844 83.9317 762.504 82.3847C762.504 82.3847 771.766 83.24 772.341 82.0943C772.915 80.9485 773.105 71.3919 773.105 71.3919C773.105 71.3919 769.477 67.5692 764.704 67.168C764.704 67.168 760.521 77.543 758.976 80.6476C754.878 88.879 745.227 98.9161 745.227 98.9161Z" fill="#4A75CB"/>
<path d="M740.653 82.0955C740.653 82.0955 741.893 92.0375 745.237 98.9173C745.237 98.9173 735.163 91.895 734.304 89.5982C733.444 87.3015 736.74 82.8611 736.74 82.8611C736.74 82.8611 730.728 82.7185 730.58 80.7121C730.432 78.7058 732.442 70.8176 732.442 70.8176C732.442 70.8176 737.616 67.0372 739.05 67.1797L740.653 82.0955Z" fill="#4A75CB"/>
<path d="M736.457 38.9463C736.457 38.9463 736.984 29.9704 742.543 29.8648C748.102 29.7592 757.78 29.2154 761.799 25.4297C765.817 21.644 737.907 23.3758 737.907 23.3758C737.907 23.3758 734.532 34.1838 736.457 38.9463Z" fill="#233862"/>
<path d="M758.797 26.765C758.797 26.765 766.049 29.7217 767.067 34.3364C767.067 34.3205 769.451 17.3245 758.797 26.765Z" fill="#233862"/>
<path d="M291.056 354.109L297.063 379.437L306.06 379.39L306.387 354.109H291.056Z" fill="#FFB27D"/>
<path d="M366.743 355.187L383.836 379.438L390.498 370.874L380.213 351.855L366.743 355.187Z" fill="#FFB27D"/>
<path d="M305.301 37.8421C301.904 36.7228 298.217 37.2719 295.696 37.9372C296.163 37.3551 296.769 36.9009 297.458 36.6172C295.828 36.7017 292.616 38.9879 292.616 38.9879C268.883 34.9381 271.963 68.0913 273.941 75.5361C275.919 82.9809 268.556 87.0307 258.298 95.2833C238.726 111.028 239.839 126.594 239.839 126.594C240.029 126.662 240.229 126.742 240.445 126.831C241.157 124.772 242.697 120.87 244.475 119.967C243.827 122.604 243.313 125.272 242.935 127.961C250.371 131.573 264.622 140.021 274.579 146.035C274.236 144.535 273.867 142.381 274.189 141.14L276.488 147.196C281.82 150.428 285.507 152.714 285.507 152.714C283.724 146.732 305.332 108.89 318.043 96.3235C320.553 90.3465 319.952 80.8056 319.899 80.0558C320.764 87.5428 320.337 91.9253 319.683 94.4808C329.814 80.5416 314.298 40.8042 305.301 37.8421Z" fill="#163560"/>
<path d="M314.688 98.837C314.762 98.8686 307.473 102.66 301.988 101.155C296.83 99.7504 293.46 93.0554 293.55 93.0396C295.733 92.6014 296.366 89.5971 296.318 76.6719L297.305 76.8672L313.913 80.1566C313.913 80.1566 313.533 85.389 313.523 90.3204C313.491 94.4705 313.744 98.3934 314.688 98.837Z" fill="#FFB27D"/>
<path d="M288.048 46.8568C288.048 46.8568 294.377 36.6772 306.075 42.7649C306.075 42.7702 300.005 42.9286 288.048 46.8568Z" fill="#5FABB7"/>
<path d="M313.891 80.1683C313.891 80.1683 313.512 85.4007 313.501 90.3321C304.208 90.0681 299.298 81.5833 297.283 76.8789L313.891 80.1683Z" fill="#EF9E67"/>
<path d="M293.867 77.4604C293.867 77.4604 287.575 70.8763 285.128 64.6513C283.382 60.2056 282.285 42.6446 299.937 41.6414C303.488 41.4255 307.042 42.0101 310.338 43.3521C314.557 45.1156 321.033 49.4716 318.027 65.5911L317.5 70.945L293.867 77.4604Z" fill="#163560"/>
<path d="M388.9 365.335C388.9 365.335 384.485 366.1 380.862 366.391C380.055 366.449 379.28 366.486 378.62 366.486C376.88 366.486 373.737 365.831 371.622 365.335L371.464 365.303C370.541 365.081 369.834 364.902 369.57 364.833L369.459 364.807C369.459 364.807 347.445 340.26 335.104 300.961C334.814 300.042 334.508 299.124 334.192 298.189C327.43 278.463 313.428 253.71 306.044 231.297C304.873 227.734 303.818 224.366 302.879 221.191C302.579 220.172 302.283 219.174 302.004 218.192C296.561 199.268 294.989 186.844 293.539 173.57L337.915 184.875C337.915 184.875 356.527 265.712 388.9 365.335Z" fill="#A53D38"/>
<path d="M316.798 82.7972C316.798 82.7972 295.317 87.5069 292.596 74.0695C289.874 60.6321 285.27 52.1895 298.872 48.615C312.474 45.0405 316.181 49.6288 318.18 53.895C320.179 58.1611 322.315 81.2291 316.798 82.7972Z" fill="#FFB27D"/>
<path d="M308.623 46.3095C308.623 46.3095 305.896 63.2686 297.305 67.4292C288.713 71.5898 284.304 69.953 284.304 69.953C287.98 65.1223 289.865 59.1628 289.636 53.0942C289.636 53.0942 302.658 39.6991 308.623 46.3095Z" fill="#163560"/>
<path d="M307.416 47.8794C307.416 47.8794 312.531 50.5193 314.272 53.6873C316.012 56.8552 317.964 63.8405 319.941 63.1911C319.941 63.1911 322.23 51.5753 316.012 46.5224C309.441 41.1844 307.416 47.8794 307.416 47.8794Z" fill="#163560"/>
<path d="M296.757 378.051C297.13 381.555 296.739 385.098 295.612 388.436C295.612 388.436 294.141 395.152 300.749 395.3C307.358 395.448 308.977 394.772 308.228 390.68C307.479 386.588 306.06 379.439 306.06 379.439L296.757 378.051Z" fill="#FFB27D"/>
<path d="M295.611 388.409C295.611 388.409 294.388 394.745 295.137 398.124C295.137 398.124 297.13 399.623 301.93 399.623C306.481 399.623 308.855 398.124 308.855 398.124C308.855 398.124 308.992 391.17 307.8 388.234C307.779 388.234 303.095 395.273 295.611 388.409Z" fill="#C45446"/>
<path d="M406.426 391.308C406.426 391.308 394.242 377.765 390.498 370.875L381.437 375.527L401.695 394.566L406.441 393.943L406.426 391.308Z" fill="#FFB27D"/>
<path d="M414.167 399.246C414.167 399.246 401.072 399.246 398.825 398.993C396.578 398.739 394.775 395.497 392.343 390.629C391.346 388.639 389.116 387.541 386.827 386.933V398.211H383.367L380.092 386.226C377.934 382.255 379.918 378.654 381.436 375.523C383.203 375.523 387.955 376.727 396.958 386.881C399.917 390.212 403.181 391.405 406.451 391.305C406.494 391.333 406.54 391.356 406.589 391.374C414.041 394.753 414.167 399.246 414.167 399.246Z" fill="#C45446"/>
<path d="M380.862 366.376C380.055 366.434 379.28 366.471 378.621 366.471C376.88 366.471 373.737 365.817 371.622 365.32L371.464 365.289L369.571 364.819L369.46 364.792C369.46 364.792 347.446 340.261 335.104 300.962C334.814 300.044 334.509 299.125 334.192 298.19C327.431 278.464 313.428 253.712 306.044 231.298C304.874 227.736 303.819 224.367 302.88 221.192C302.579 220.173 302.284 219.175 302.004 218.193L309.847 212.227C309.847 212.227 333.406 250.401 340.706 286.353C346.744 316.148 372.782 354.781 380.862 366.376Z" fill="#912F2F"/>
<path d="M310.643 289.7C310.781 307.182 309.895 347.374 307.621 364.016C307.621 364.016 305.464 365.927 300.116 365.949C294.637 365.949 292.205 363.947 292.205 363.947C286.499 335.018 282.443 311.079 279.484 290.45C277.063 273.522 274.906 259.007 273.25 246.515C271.784 235.427 270.703 225.955 270.186 217.776C270.119 216.667 270.059 215.581 270.007 214.518C269.943 213.119 269.891 211.751 269.87 210.437C269.848 209.122 269.838 207.797 269.87 206.556H270.059L281.082 205.5L315.918 202.062C315.316 232.692 310.585 279.541 310.643 289.7Z" fill="#A53D38"/>
<path d="M300.132 365.951C297.353 366.109 294.591 365.411 292.221 363.949C286.514 335.02 282.459 311.081 279.5 290.452C277.079 273.524 274.922 259.009 273.266 246.517C271.8 235.429 270.718 225.957 270.202 217.778C270.144 213.749 270.096 209.884 270.054 206.537C270.012 203.189 269.948 200.275 269.854 198.273L281.077 205.465L292.885 213.026C292.885 213.026 276.135 228.28 280.228 257.119C284.32 285.958 294.404 361.869 300.132 365.951Z" fill="#912F2F"/>
<path d="M309.261 92.4806C309.261 92.4806 327.161 89.6347 333.169 95.6222C340.552 102.956 354.36 145.001 353.806 149.8C353.6 151.632 346.333 150.782 343.843 148.169C331.428 135.132 313.623 102.233 309.261 92.4806Z" fill="#BC3F3F"/>
<path d="M344.033 209.888C330.669 213.368 268.308 220.226 267.77 204.608C267.638 200.796 267.77 196.16 268.071 191.202C268.999 175.753 271.536 156.666 272.749 146.164C273.303 141.354 271.457 119.764 272.876 108.042C273.032 106.522 273.319 105.019 273.735 103.549C276.43 94.6835 288.529 92.2811 294.742 92.0647L313.491 91.4258C313.491 91.4258 332.852 113.074 335.547 119.727C338.242 126.379 339.123 149.136 341.233 160.161C343.342 171.186 350.531 208.198 344.033 209.888Z" fill="#BC3F3F"/>
<path d="M307.204 157.047C307.204 157.047 296.782 189.091 268.07 191.187C268.999 175.738 271.535 156.651 272.748 146.149C273.302 141.339 271.456 119.749 272.875 108.027C273.244 108.107 273.587 108.312 273.977 108.392C305.59 114.501 310.073 150.362 307.204 157.047Z" fill="#A53D38"/>
<path d="M352.904 150.594C352.904 150.594 334.086 156.772 311.16 146.861C311.16 146.861 304.91 146.27 301.814 147.057C301.814 147.057 302.479 140.858 305.506 139.169C308.534 137.479 321.571 141.133 325.469 140.594C333.992 139.422 348.828 138.509 352.904 150.594Z" fill="#EF9E67"/>
<path d="M336.132 136.165C336.132 136.165 337.899 120.854 331.913 111.624C331.913 111.624 334.022 110.906 335.546 113.303C337.071 115.7 347.629 138.446 342.598 140.12C337.566 141.794 336.132 136.165 336.132 136.165Z" fill="#A53D38"/>
<path d="M308.66 138.719C308.391 138.719 299.773 139.849 298.243 140.926C296.714 142.003 298.064 145.778 300.938 146.137C303.813 146.496 308.66 138.719 308.66 138.719Z" fill="#EF9E67"/>
<path d="M285.1 144.52C285.1 144.52 309.646 143.622 331.913 139.309C331.913 139.309 335.984 139.34 335.504 142.904C335.024 146.468 296.914 166.379 288.534 162.546L285.1 144.52Z" fill="#FFB27D"/>
<path d="M331.913 139.309C331.913 139.309 334.518 136.141 336.132 136.141C337.746 136.141 341.97 138.205 342.598 140.095C343.225 141.985 337.603 140.623 335.504 142.883C333.405 145.143 331.913 139.309 331.913 139.309Z" fill="#FFB27D"/>
<path d="M294.747 92.0508C294.747 92.0508 274.12 92.1036 271.104 99.522C265.592 113.065 283.761 157.993 288.534 162.549C290.591 164.508 300.137 161.419 300.137 148.478C300.132 141.767 299.652 102.558 294.747 92.0508Z" fill="#BC3F3F"/>
<path d="M284.272 205.621C284.272 205.621 297.547 210.215 295.68 225.521C295.68 225.521 294.456 231.736 290.632 228.979C286.809 226.223 288.602 226.73 283.143 222.966C277.685 219.201 274.146 213.256 274.779 208.562L284.272 205.621Z" fill="#FFB27D"/>
<path d="M284.9 206.608L277.041 216.155C276.859 216.37 276.622 216.532 276.356 216.625C276.09 216.718 275.804 216.738 275.528 216.683C268.144 215.326 242.791 198.958 234.485 192.279C233.766 191.718 233.079 191.116 232.428 190.478C229.332 187.31 218.647 171.729 211.063 157.842C206.701 149.843 203.363 142.414 203.099 138.248C202.155 123.385 209.955 102.598 209.955 102.598C233.056 110.644 235.487 129.114 235.487 129.114L248.308 176.882L284.589 204.027C284.781 204.173 284.943 204.357 285.063 204.568C285.184 204.778 285.261 205.011 285.29 205.252C285.319 205.492 285.299 205.737 285.232 205.97C285.165 206.203 285.052 206.42 284.9 206.608Z" fill="#739AF0"/>
<path d="M234.485 192.298C233.767 191.737 233.08 191.136 232.429 190.498C229.333 187.33 218.647 171.749 211.063 157.863C210.082 149.468 210.757 141.601 214.228 136.094C214.212 136.094 233.853 170.693 234.485 192.298Z" fill="#4A82D3"/>
<path d="M221.173 329.801L217.243 346.169L214.812 356.317L206.722 390.11C206.722 390.11 199.797 392.222 192.598 390.11C190.829 381.858 189.914 373.447 189.866 365.008C189.823 357.711 190.488 349.659 192.619 342.061C193.469 338.973 194.598 335.968 195.994 333.085C207.397 309.743 221.173 329.801 221.173 329.801Z" fill="#FFB27D"/>
<path d="M227.877 399.999H189.867C189.554 396.211 189.911 392.396 190.922 388.732C191.166 387.904 191.467 387.095 191.824 386.309C191.824 386.309 200.315 388.236 207.646 386.309C207.646 386.309 214.528 392.18 218.69 393.975C222.851 395.77 227.439 394.799 227.877 399.999Z" fill="#2B478B"/>
<path d="M217.243 346.196L214.812 356.344C207.264 361.096 198.731 364.059 189.866 365.009C189.823 357.712 190.488 349.66 192.619 342.062C196.115 340.283 199.675 339.354 202.708 339.882C210.245 341.202 214.733 343.963 217.243 346.196Z" fill="#E8945B"/>
<path d="M208.126 400.002H189.867C189.554 396.213 189.911 392.399 190.922 388.734C195.51 390.16 204.851 393.75 208.126 400.002Z" fill="#1F396D"/>
<path d="M190.858 329.803L186.929 346.171L184.503 356.319L176.407 390.111C176.407 390.111 169.483 392.223 162.283 390.111C160.51 381.853 159.591 373.435 159.541 364.989C159.499 357.692 160.169 349.64 162.294 342.042C163.144 338.953 164.274 335.949 165.669 333.066C177.082 309.744 190.858 329.803 190.858 329.803Z" fill="#FFB27D"/>
<path d="M161.513 386.309C161.513 386.309 170.004 388.236 177.335 386.309C177.335 386.309 184.192 392.18 188.379 393.98C192.567 395.781 197.134 394.799 197.572 399.999H159.546C159.546 399.999 158.75 392.402 161.513 386.309Z" fill="#2B478B"/>
<path d="M186.929 346.196L184.503 356.344C176.95 361.097 168.412 364.06 159.541 365.009C159.499 357.712 160.169 349.66 162.294 342.062C165.796 340.283 169.356 339.354 172.383 339.882C179.93 341.202 184.419 343.963 186.929 346.196Z" fill="#E8945B"/>
<path d="M229.106 345.116C228.661 346.761 227.687 348.213 226.336 349.249C224.984 350.284 223.329 350.845 221.627 350.845H160.648C159.563 350.845 158.489 350.621 157.495 350.186C156.5 349.751 155.606 349.115 154.868 348.318C154.131 347.521 153.566 346.579 153.209 345.553C152.853 344.527 152.712 343.438 152.795 342.355C153.433 334.039 155.722 320.458 156.719 311.292C157.13 307.48 157.32 304.428 157.083 302.844C150.928 262.072 145.76 214.045 146.392 204.869C146.477 203.575 146.54 202.904 146.54 202.904C146.54 202.904 150.981 202.53 157.737 202.271C177.372 201.495 216.569 201.627 223.083 214.483C229.718 227.573 233.726 314.534 233.726 314.534C234.696 322.655 231.268 337.106 229.106 345.116Z" fill="#C65447"/>
<path d="M156.719 311.291C157.13 307.479 157.32 304.427 157.083 302.843C150.928 262.071 145.76 214.044 146.392 204.867C146.477 203.574 146.54 202.903 146.54 202.903C146.54 202.903 150.981 202.528 157.737 202.27C167.895 208.257 174.509 218.463 174.509 218.463C174.509 218.463 172.462 294.759 156.719 311.291Z" fill="#B2443B"/>
<path d="M186.881 42.116C186.881 37.5911 189.708 33.7473 194.581 34.9669C198.964 36.0652 203.246 36.0229 203.246 40.5425C203.246 45.0621 199.581 50.3051 195.061 50.3051C192.891 50.3051 190.811 49.4423 189.277 47.9066C187.743 46.3708 186.881 44.2878 186.881 42.116Z" fill="#B2443B"/>
<path d="M192.066 81.8792C192.066 81.8792 166.692 59.0013 189.661 42.8078C189.661 42.8078 196.517 40.981 200.003 41.6357C200.003 41.6357 212.487 37.9767 219.797 46.4668C227.107 54.9569 230.277 61.0974 224.016 68.6741C217.756 76.2508 192.066 81.8792 192.066 81.8792Z" fill="#C65447"/>
<path d="M162.969 220.06C162.969 220.06 169.235 232.647 157.194 242.262C157.194 242.262 151.973 245.836 151.171 241.206C150.369 236.575 151.298 238.18 150.037 231.665C148.777 225.149 150.385 218.412 154.13 215.477L162.969 220.06Z" fill="#FFB27D"/>
<path d="M212.852 81.669C212.852 81.669 212.54 85.0956 211.96 89.7261C211.681 91.9859 211.333 94.5361 210.905 97.118C210.615 98.9712 210.294 100.84 209.94 102.625L202.087 129.188L183.628 99.2986C183.628 99.2986 187.963 95.7082 193.839 76.2465C193.897 76.0406 193.933 75.9297 193.933 75.9297L212.852 81.669Z" fill="#FFB27D"/>
<path d="M223.62 212.719C223.858 215.702 223.093 216.246 223.093 216.246C223.093 216.246 211.748 220.359 183.221 218.939C180.136 218.78 177.23 218.627 174.513 218.464C156.128 217.381 146.292 216.246 146.292 216.246C146.292 216.246 131.234 181.451 159.525 138.577C162.966 133.397 166.757 128.458 170.869 123.793C175.452 118.561 176.465 111.559 178.195 104.907C178.69 103 177.256 102.578 177.973 100.783C177.973 100.783 183.131 99.3203 183.664 99.3203C186.596 101.908 190.462 106.929 200.05 107.921C206.538 108.603 209.08 104.944 210.003 102.747C212.476 103.645 215.034 105.186 217.133 106.195C234.538 114.553 236.12 130.757 236.12 130.757C236.12 130.757 220.145 183.341 219.153 189.894C218.7 192.803 222.365 197.344 223.62 212.719Z" fill="#739AF0"/>
<path d="M211.959 89.7236C211.679 91.9834 210.72 98.1714 210.313 100.753C190.799 93.1291 193.336 78.2714 193.869 76.2387C193.927 76.0328 193.964 75.9219 193.964 75.9219C193.964 75.9219 204.301 83.2662 211.959 89.7236Z" fill="#E8945B"/>
<path d="M216.147 92.3492C216.147 92.3492 193.585 93.0779 193.353 79.0016C193.121 64.9254 190.046 55.543 204.428 54.487C218.811 53.431 221.717 58.7531 222.935 63.4311C224.154 68.1091 222.039 91.8001 216.147 92.3492Z" fill="#FFB27D"/>
<path d="M218.121 52.3817C218.121 52.3817 216.702 75.8773 189.198 73.3535C189.198 73.3535 189.783 40.8134 218.121 52.3817Z" fill="#C65447"/>
<path d="M212.851 54.7109C212.851 54.7109 220.562 64.2623 224.058 67.3088C224.058 67.3088 232.629 54.9908 212.851 54.7109Z" fill="#C65447"/>
<path d="M212.851 54.7109C212.851 54.7109 219.776 66.4165 223.273 69.4683C223.273 69.4683 232.629 54.9908 212.851 54.7109Z" fill="#C65447"/>
<path d="M174.509 218.465C156.123 217.382 146.287 216.247 146.287 216.247C146.287 216.247 131.229 181.452 159.52 138.578C165.247 151.942 178.754 187.666 174.509 218.465Z" fill="#4A82D3"/>
<path d="M183.659 99.293C183.659 99.293 161.83 103.776 152.11 115.054C144.657 123.687 136.509 165.921 136.509 172.902C136.509 179.57 144.161 215.025 148.94 221.821C149.101 222.053 149.322 222.238 149.579 222.356C149.836 222.474 150.12 222.52 150.401 222.491L162.695 221.187C162.937 221.16 163.171 221.084 163.383 220.964C163.595 220.844 163.781 220.682 163.929 220.488C164.077 220.294 164.184 220.072 164.243 219.836C164.303 219.599 164.315 219.353 164.277 219.112L157.384 174.295L181.644 131.248C181.644 131.248 195.921 114.288 183.659 99.293Z" fill="#739AF0"/>
<path d="M277.3 387.865C277.932 388.982 278.786 389.958 279.808 390.733C280.83 391.509 281.999 392.067 283.244 392.374C285.691 392.845 287.883 394.193 289.409 396.165C289.672 396.523 289.831 396.947 289.868 397.39C289.905 397.833 289.819 398.278 289.619 398.675C289.419 399.072 289.113 399.405 288.736 399.639C288.358 399.873 287.923 399.997 287.479 399.999H266.683C266.265 399.999 265.851 399.912 265.468 399.742C265.086 399.573 264.743 399.325 264.462 399.014C264.181 398.704 263.969 398.338 263.838 397.94C263.707 397.542 263.662 397.121 263.704 396.704C263.862 395.162 264.025 393.367 264.094 391.989C264.247 388.985 267.258 386.566 267.258 386.566L277.3 387.865Z" fill="#2C3A64"/>
<path d="M282.01 335.365C282.875 351.205 280.718 387.173 280.718 387.173C280.718 387.173 279.268 391.186 270.117 392.147C266.988 392.428 263.834 392.169 260.793 391.381C258.947 382.866 257.238 374.738 255.666 366.998C244.364 311.479 239.971 277.201 239.971 277.201L284.589 266.82C284.589 266.82 282.633 298.162 282.058 319.536C281.863 326.194 281.82 331.891 282.01 335.365Z" fill="#35488B"/>
<path d="M284.574 266.805C284.574 266.805 282.617 298.147 282.042 319.52L255.672 366.998C244.364 311.479 239.971 277.201 239.971 277.201L284.574 266.805Z" fill="#2C3A64"/>
<path d="M239.712 195.026C239.712 195.026 222.45 187.153 209.387 194.038C196.323 200.923 204.308 257.731 222.988 263.238C222.988 263.238 257.982 274.437 239.712 195.026Z" fill="#35488B"/>
<path d="M289.657 280.05C289.605 279.971 289.546 279.902 289.488 279.828C288.771 278.74 287.215 274.844 287.215 274.844L284.42 278.54C284.346 278.624 283.239 277.758 283.181 277.848L283.455 287.352L286.24 286.692C286.359 286.661 286.476 286.618 286.588 286.565C286.938 286.406 287.233 286.147 287.437 285.821L289.684 282.257C289.895 281.926 290.004 281.541 290 281.149C289.995 280.757 289.876 280.375 289.657 280.05Z" fill="#E8945B"/>
<path d="M276.783 186.195C276.783 186.195 282.284 186.195 285.57 193.946C292.373 209.982 289.42 244.603 289.003 249.561C289.003 249.561 291.345 259.403 287.869 276.425L283.344 279.108C283.344 279.108 276.372 211.851 277.221 205.187C278.07 198.524 276.783 186.195 276.783 186.195Z" fill="#E8945B"/>
<path d="M241.099 387.865C241.731 388.982 242.584 389.958 243.606 390.733C244.628 391.509 245.797 392.067 247.042 392.374C249.49 392.845 251.682 394.193 253.208 396.165C253.471 396.523 253.629 396.947 253.666 397.39C253.703 397.833 253.617 398.278 253.417 398.675C253.217 399.072 252.912 399.405 252.534 399.639C252.156 399.873 251.722 399.997 251.278 399.999H230.477C230.058 399.999 229.645 399.912 229.262 399.742C228.88 399.573 228.537 399.325 228.257 399.014C227.976 398.703 227.764 398.337 227.634 397.939C227.504 397.541 227.459 397.12 227.502 396.704C227.655 395.162 227.818 393.367 227.887 391.989C228.04 388.985 231.052 386.566 231.052 386.566L241.099 387.865Z" fill="#2C3A64"/>
<path d="M255.565 122.742C251.114 122.742 245.544 124.659 242.533 127.579C239.368 130.673 236.035 130.831 233.678 134.49C231.215 138.302 229.69 142.262 230.93 147.626C232.28 153.487 231.985 159.152 235.677 163.466C237.496 165.578 240.46 165.837 242.533 167.796C246.325 171.386 250.639 172.548 255.565 172.548C264.842 172.548 270.617 167.046 275.364 160.187C279.172 154.696 278.418 150.995 279.309 146.296C282.12 131.475 269.795 122.742 255.565 122.742Z" fill="#35488B"/>
<path d="M268.624 182.364L250.893 191.44L247.354 179.122C247.354 179.122 249.611 174.861 250.634 167.876C251.122 164.52 251.245 161.121 251.004 157.738L265.449 165.13C265.191 166.221 264.999 167.327 264.874 168.441C264.542 171.018 264.628 173.631 265.128 176.181C265.634 178.541 266.683 180.785 268.624 182.364Z" fill="#FFB27D"/>
<path d="M227.539 271.629C227.539 271.629 224.163 316.372 224.902 387.683C227.717 389.072 230.75 389.965 233.867 390.323C243.028 391.237 245.259 387.599 245.259 387.599C245.259 387.599 254.626 352.798 256.973 337.117C259.13 322.66 273.323 270.488 273.323 270.488L227.539 271.629Z" fill="#35488B"/>
<path d="M280.348 183.609C278.766 182.87 273.83 180.885 266.383 179.66C266.462 182.21 265.781 184.591 261.309 185.177C255.355 185.953 250.033 181.888 247.338 179.121C247.338 179.121 243.119 179.575 238.245 180.647C235.724 181.182 233.241 181.888 230.814 182.759C227.956 183.815 225.487 185.124 224.169 186.74C219.591 192.369 212.039 209.312 212.039 209.312C212.039 209.312 224.586 213.969 227.75 216.704L227.819 217.306L229.786 233.627L223.947 266.114C223.898 266.395 223.871 266.679 223.868 266.965C223.869 268.039 224.231 269.082 224.896 269.926C225.561 270.77 226.49 271.365 227.534 271.616C227.534 271.616 228.035 271.701 228.963 271.827C235.16 272.704 260.328 275.708 280.053 270.344C282.203 269.749 284.079 268.421 285.355 266.589C286.632 264.758 287.23 262.538 287.046 260.312L283.829 219.904C285.549 219.608 287.521 219.297 289.14 219.117C290.085 218.959 291.048 218.937 291.999 219.054C291.999 219.054 289.773 187.506 280.348 183.609Z" fill="#F99746"/>
<path d="M243.135 243.576C242.887 254.917 235.461 268.244 228.98 271.834C228.051 271.707 227.55 271.623 227.55 271.623C226.507 271.371 225.578 270.776 224.913 269.932C224.248 269.089 223.886 268.046 223.885 266.971C223.888 266.686 223.914 266.402 223.964 266.121L229.813 233.613L227.84 217.292C227.935 217.007 227.988 216.859 227.988 216.859C227.988 216.859 243.562 223.538 243.135 243.576Z" fill="#ED7D2B"/>
<path d="M289.141 219.124C287.485 219.308 283.82 219.91 283.82 219.91L281.963 202.988C281.963 202.988 288.171 214.9 289.141 219.124Z" fill="#ED7D2B"/>
<path d="M224.992 260.307L226.511 251.859C252.228 214.603 254.174 207.924 242.608 191.197C239.295 186.408 233.272 183.414 230.815 182.749C233.241 181.877 235.724 181.172 238.246 180.637C240.688 181.782 242.935 182.912 244.675 184.422C279.969 215.025 224.992 260.307 224.992 260.307Z" fill="#35488B"/>
<path d="M240.149 224.972C240.787 224.925 243.561 223.536 243.561 223.536C243.561 223.536 244.954 213.203 255.022 212.512C255.022 212.512 259.241 212.512 258.36 215.4C257.48 218.288 257.406 217.021 256.282 221.097C255.159 225.173 252.237 228.262 249.12 228.452L245.929 229.312C245.929 229.312 238.472 225.099 240.149 224.972Z" fill="#FFB27D"/>
<path d="M243.562 223.537C243.562 223.537 226.685 225.073 224.164 226.176C224.164 226.176 225.535 222.481 227.977 216.852C225.772 214.682 218.531 211.456 213.737 209.988C210.077 219.328 208.674 228.574 210.725 237.486C210.834 237.944 211.088 238.353 211.449 238.653C211.811 238.953 212.26 239.128 212.729 239.149C218.141 239.397 236.083 239.308 249.12 228.341L243.562 223.537Z" fill="#FFB27D"/>
<path d="M265.112 176.196C256.895 175.98 250.619 167.875 250.619 167.875L264.859 168.456C264.527 171.033 264.613 173.646 265.112 176.196Z" fill="#E8945B"/>
<path d="M265.893 171.225C265.893 171.225 247.739 173.443 247.349 160.634C246.959 147.825 254.532 139.514 259.58 139.63C269.653 139.82 271.314 143.896 272.485 148.136C273.656 152.376 274.252 170.322 265.893 171.225Z" fill="#FFB27D"/>
<path d="M261.035 163.848C261.035 163.848 261.431 165.432 265.407 165.152C265.407 165.152 268.746 164.904 268.625 163.145C268.625 163.156 265.37 161.931 261.035 163.848Z" fill="white"/>
<path d="M264.073 139.752C264.073 139.752 248.562 139.752 252.127 150.407C254.374 157.128 246.901 158.169 246.901 158.169L243.304 147.398L245.556 139.008L264.073 139.752Z" fill="#35488B"/>
<path d="M799.956 178.193C782.873 173.837 764.092 147.3 764.092 147.3L768.902 143.123C773.886 149 794.597 159.127 794.597 159.127C794.486 153.746 794.629 148.841 794.966 144.374C797.266 114.014 808.679 103.903 811.843 101.68C812.095 101.487 812.359 101.31 812.634 101.152L812.666 101.786C812.708 102.689 812.793 104.505 812.877 107.003C813.478 125.604 814.238 181.836 799.956 178.193Z" fill="#D9935C"/>
<path d="M768.897 143.124C768.829 142.406 768.343 131.978 766.26 129.993C764.177 128.007 760.105 125.299 758.929 125.521C757.753 125.742 753.766 132.384 755.649 136.952C757.531 141.519 764.087 147.3 764.087 147.3L768.897 143.124Z" fill="#D9935C"/>
<path d="M773.142 144.328L761.892 144.804C761.712 144.811 761.537 144.746 761.405 144.625C761.272 144.503 761.193 144.334 761.185 144.154L760.289 122.67C760.285 122.581 760.299 122.493 760.33 122.409C760.36 122.326 760.407 122.25 760.468 122.184C760.528 122.119 760.6 122.066 760.681 122.029C760.762 121.992 760.849 121.971 760.937 121.968L772.192 121.493C772.281 121.489 772.369 121.503 772.453 121.534C772.536 121.565 772.612 121.612 772.677 121.672C772.743 121.732 772.795 121.805 772.832 121.885C772.869 121.966 772.89 122.053 772.894 122.142L773.79 143.626C773.794 143.715 773.781 143.804 773.751 143.888C773.72 143.971 773.673 144.048 773.613 144.113C773.553 144.179 773.48 144.231 773.399 144.268C773.318 144.305 773.23 144.326 773.142 144.328Z" fill="#F1A34F"/>
<path d="M770.221 144.458L760.015 144.886C759.697 144.899 759.387 144.785 759.153 144.569C758.918 144.353 758.779 144.053 758.766 143.735L757.911 123.296C757.898 122.978 758.012 122.667 758.228 122.433C758.443 122.198 758.743 122.059 759.061 122.045L769.266 121.623C769.424 121.615 769.581 121.638 769.729 121.692C769.878 121.745 770.014 121.828 770.13 121.934C770.246 122.041 770.34 122.169 770.407 122.313C770.473 122.456 770.51 122.611 770.516 122.768L771.371 143.207C771.383 143.525 771.27 143.836 771.054 144.07C770.839 144.305 770.539 144.444 770.221 144.458Z" fill="#D86713"/>
<path d="M758.09 126.316C758.09 126.316 761.16 122.884 764.229 125.508C767.299 128.132 764.024 133.723 761.365 135.249C760.12 135.909 758.942 136.689 757.848 137.578L758.09 126.316Z" fill="#D9935C"/>
<path d="M837.163 354.694C836.109 358.834 834.98 362.778 833.814 366.453C833.561 367.24 833.287 368.037 833.066 368.771L832.691 369.885C832.448 370.614 832.206 371.326 831.963 372.023C831.647 372.932 831.33 373.819 831.019 374.663C830.794 375.301 830.567 375.924 830.339 376.533C826.874 385.836 823.968 391.734 823.968 391.734L817.064 391.258C817.064 391.258 819.659 378.914 820.176 361.231C820.176 360.597 820.213 359.964 820.223 359.32C820.251 357.947 820.265 356.548 820.265 355.122C820.265 354.541 820.265 353.945 820.265 353.348C820.123 338.12 818.24 320.121 812.233 302.94C807.777 290.226 804.106 277.249 801.242 264.084C792.972 225.952 794.913 200.898 794.913 200.898L833.751 205.45L835.56 205.661C835.724 223.518 836.183 247.769 836.615 266.724C836.684 270.019 836.747 273.15 836.81 276.059C837.079 288.203 837.28 296.556 837.28 296.556C844.727 312.666 842.01 335.391 837.163 354.694Z" fill="#CB7D45"/>
<path d="M826.047 67.3959C826.047 67.3959 835.234 75.2313 826.811 84.2441C826.811 84.2441 833.831 84.9358 836.205 82.9875C835.965 83.4831 835.664 83.9461 835.308 84.3655C835.308 84.3655 843.156 84.6454 846.384 82.1955C849.611 79.7456 847.544 39.5443 825.757 44.0376C825.757 44.0376 807.297 42.6437 809.011 64.0326C810.725 85.4215 803.737 85.4215 803.737 85.4215C803.737 85.4215 805.673 86.3772 806.612 86.3772C806.612 86.3772 807.978 85.8492 808.247 85.0994C808.134 85.6592 807.925 86.1952 807.63 86.6834C807.63 86.6834 815.156 87.3962 818.911 84.5715C822.666 81.7467 827.117 71.8099 826.047 67.3959Z" fill="#233862"/>
<path d="M855.697 196.545C848.355 180.066 844.848 175.425 844.721 170.219C844.627 166.116 846.646 161.691 850.57 150.846C851.481 148.303 852.135 145.674 852.522 143C855.628 122.086 843.556 99.4771 836.035 97.9354C833.925 97.4074 830.408 89.8306 830.45 77.6602L829.511 77.845L813.689 80.976C813.689 80.976 814.047 85.9603 814.058 90.649C814.058 94.5615 813.858 98.5426 812.971 99.0072C811.832 99.1128 810.799 99.3187 810.799 99.3187C810.799 99.3187 797.418 108.728 796.559 121.495C795.409 138.539 807.407 158.745 796.764 192.812C785.9 227.57 859.753 205.653 855.697 196.545Z" fill="#D9935C"/>
<path d="M813.7 80.9747C813.7 80.9747 814.059 85.959 814.069 90.6475C822.919 90.3994 827.592 82.3211 829.512 77.8438L813.7 80.9747Z" fill="#CB7D45"/>
<path d="M831.141 76.1148C831.141 76.1148 835.777 68.781 836.89 62.5085C837.687 58.0311 835.408 41.4364 818.747 43.8282C815.393 44.2933 812.187 45.5077 809.365 47.3816C805.747 49.8262 800.525 55.1061 806.364 69.5889L807.877 74.4781L831.141 76.1148Z" fill="#233862"/>
<path d="M810.747 85.4222C810.747 85.4222 831.68 85.7654 831.69 72.7135C831.701 59.6615 834.417 50.9127 821.053 50.1418C807.688 49.371 805.088 54.3658 804.022 58.7006C802.957 63.0354 805.299 85.0104 810.747 85.4222Z" fill="#D9935C"/>
<path d="M811.517 49.8202C811.517 49.8202 817.25 65.1319 826.047 67.397C834.844 69.6621 838.657 67.302 838.657 67.302C834.317 63.4857 831.437 58.2785 830.509 52.571C830.509 52.571 815.841 42.5339 811.517 49.8202Z" fill="#233862"/>
<path d="M812.94 51.062C812.94 51.062 808.658 54.4781 807.613 57.8044C806.569 61.1308 806.105 67.9683 804.111 67.7359C804.111 67.7359 799.792 57.3292 804.639 51.4369C809.792 45.196 812.94 51.062 812.94 51.062Z" fill="#233862"/>
<path d="M812.145 51.5778C812.145 51.5778 816.227 67.6182 827.329 72.7555C827.329 72.7555 816.227 62.9032 815.288 52.3117C814.349 41.7202 812.145 51.5778 812.145 51.5778Z" fill="#233862"/>
<path d="M813.489 141.76C812.603 163.408 809.37 184.86 799.95 183.472C788.405 181.782 785.399 170.995 784.782 162.975C784.551 160.007 784.607 157.024 784.951 154.067C784.951 154.067 790.636 154.041 791.554 153.191C795.921 149.157 794.624 109.578 796.781 105.47C798.938 101.362 812.956 98.7383 812.956 98.7383C812.956 98.7383 814.37 120.355 813.489 141.76Z" fill="#EE9849"/>
<path d="M813.489 141.762C812.603 163.409 809.37 184.862 799.95 183.473C788.406 181.783 785.399 170.996 784.782 162.976C787.62 162.834 792.609 162.142 794.592 159.117C797.429 154.782 806.285 126.883 806.285 126.883C806.285 126.883 809.771 133.155 813.489 141.762Z" fill="#E58638"/>
<path d="M837.164 354.694C836.109 358.833 834.98 362.777 833.815 366.452C833.562 367.239 833.288 368.036 833.066 368.77L832.691 369.884C832.449 370.613 832.206 371.326 831.964 372.023C831.647 372.931 831.331 373.818 831.02 374.663C830.795 375.3 830.568 375.923 830.339 376.532C826.874 385.835 823.968 391.733 823.968 391.733L817.064 391.258C817.064 391.258 819.659 378.913 820.176 361.23C820.176 360.597 820.213 359.963 820.224 359.319C820.252 357.946 820.266 356.547 820.266 355.121C820.266 354.541 820.266 353.944 820.266 353.347C820.123 338.12 818.241 320.12 812.233 302.939C807.777 290.225 804.107 277.249 801.242 264.083C805.345 264.928 808.958 264.083 819.448 263.181C820.551 263.091 825.819 269.622 831.051 278.271C831.32 290.441 837.285 296.556 837.285 296.556C844.727 312.665 842.011 335.39 837.164 354.694Z" fill="#233862"/>
<path d="M801.238 171.174C801.238 171.174 824.401 176.982 844.722 170.219C844.722 170.219 855.882 193.937 858.962 204.101C862.042 214.265 867 235.253 867 235.253C867 235.253 825.741 248.009 791.823 235.253C791.823 235.253 790.278 207.3 794.724 192.727C799.17 178.155 801.238 171.174 801.238 171.174Z" fill="#233862"/>
<path d="M849.348 156.38C849.348 156.38 845.076 166.586 844.944 167.536C844.881 167.964 844.828 168.555 844.791 169.073C842.685 170.764 840.273 172.033 837.687 172.811C830.456 175.008 827.318 161.137 827.745 154.215C828.173 147.293 838.404 127.541 841.806 127.129C845.208 126.717 849.348 156.38 849.348 156.38Z" fill="#E58638"/>
<path d="M849.791 158.526L849.348 156.383C849.568 157.08 849.717 157.799 849.791 158.526Z" fill="#E58638"/>
<path d="M819.945 175.597C806.759 175.597 801.517 171.901 801.116 171.579L800.262 165.359C800.388 165.454 818.093 176.093 845.492 165.887L844.912 170.597C834.359 174.536 826.801 175.597 819.945 175.597Z" fill="#B64C41"/>
<path d="M836.468 97.5458C836.468 97.5458 825.429 104.542 817.075 102.889C817.075 102.889 815.071 101.622 817.84 100.344C820.435 99.1509 826.473 95.6186 825.15 92.1286C827.6 91.3383 829.925 90.2003 832.053 88.7495C832.203 88.6488 832.376 88.5883 832.556 88.5738C832.736 88.5592 832.916 88.591 833.081 88.6662C833.245 88.7415 833.387 88.8575 833.493 89.0034C833.599 89.1492 833.667 89.3199 833.688 89.4992C834.052 92.3451 834.912 97.5458 836.468 97.5458Z" fill="#E58638"/>
<path d="M827.945 397.541H823.536C822.059 397.303 820.973 396.881 819.459 396.68C817.16 396.379 816.099 397.319 815.888 397.541L815.846 397.583H797.129C796.654 396.907 797.129 395.35 797.551 394.204C797.702 393.822 797.939 393.481 798.244 393.206C798.548 392.931 798.912 392.731 799.307 392.62C801.29 392.044 805.203 391.532 808.8 388.285C810.815 386.458 818.536 381.574 818.536 381.574H818.578C818.747 381.574 819.554 381.822 823.066 384.79C824.881 386.321 827.977 382.63 827.977 382.63C828.401 383.019 828.745 383.487 828.989 384.008C829.426 384.898 829.566 385.905 829.39 386.881C829.111 388.57 830.012 391.712 830.73 393.834C831.167 395.117 831.537 396.031 831.537 396.031C831.537 396.031 831.721 397.06 827.945 397.541Z" fill="#233862"/>
<path d="M828.979 383.98C827.924 384.719 825.703 386.181 824.232 386.371C822.244 386.635 818.525 381.551 818.525 381.551H818.568C818.736 381.551 819.543 381.799 823.056 384.766C824.87 386.297 827.966 382.607 827.966 382.607C828.39 382.994 828.734 383.46 828.979 383.98Z" fill="#466AA5"/>
<path d="M827.945 397.539H823.536C822.059 397.301 820.973 396.879 819.459 396.678C817.16 396.377 816.099 397.317 815.888 397.539L815.846 397.581H797.129C796.654 396.905 797.129 395.348 797.551 394.202C798.12 393.674 798.278 396.398 798.605 396.842C798.932 397.285 813.9 396.995 814.739 396.367C815.577 395.738 818.193 394.64 821.806 395.501C824.97 396.256 829.585 394.329 830.73 393.816C831.167 395.099 831.537 396.013 831.537 396.013C831.537 396.013 831.721 397.058 827.945 397.539Z" fill="#466AA5"/>
<path d="M643.965 65.0047C643.965 65.0047 628.991 64.2549 628.57 55.601C628.148 46.9471 615.806 40.6586 619.387 33.6995C623.781 25.1829 619.772 16.9936 625.315 11.2701C631.428 4.96045 639.149 8.38717 643.221 4.70701C647.292 1.02684 654.745 -2.35764 662.086 2.18316C669.428 6.72397 675.039 4.29517 679.865 8.65645C685.202 13.4877 683.177 19.5702 687.576 22.8755C691.61 25.901 689.965 34.1747 686.568 40.8962C684.121 45.7432 689.765 50.284 680.076 55.8491C676.047 58.1671 676.912 64.0015 664.681 65.0047C659.164 65.4746 647.203 62.8716 643.965 65.0047Z" fill="#2C3A64"/>
<path d="M615.416 398.041C615.416 398.041 615.416 391.97 616.281 389.953C617.146 387.936 620.31 379.715 620.31 379.715H632.699C632.699 379.715 634.999 387.212 635.146 389.662C635.294 392.112 635.146 398.041 635.146 398.041H615.416Z" fill="#233862"/>
<path d="M694.069 398.041C694.069 398.041 694.069 391.97 693.204 389.953C692.339 387.936 689.175 379.715 689.175 379.715H676.77C676.77 379.715 674.465 387.212 674.323 389.662C674.181 392.112 674.323 398.041 674.323 398.041H694.069Z" fill="#233862"/>
<path d="M644.433 57.3337C644.433 57.3337 643.995 70.8503 642.271 76.9063L628.59 86.4577L680.075 94.1716L667.797 77.1862C667.797 77.1862 664.105 59.0655 666.036 52.3706C667.966 45.6756 644.433 57.3337 644.433 57.3337Z" fill="#B56F40"/>
<path d="M644.359 59.2031C644.359 59.2031 648.431 69.0132 656.099 68.7967C663.768 68.5802 665.514 59.9001 665.514 59.9001L644.359 59.2031Z" fill="#99592E"/>
<path d="M655.219 65.0027C649.665 64.9024 639.434 57.4947 639.434 48.3235V34.0096C639.434 30.6622 641.77 27.9219 644.618 27.9219H665.82C668.673 27.9219 671.004 30.6622 671.004 34.0096V47.5209C671.004 57.1304 661.595 65.1136 655.219 65.0027Z" fill="#B56F40"/>
<path d="M616.967 187.816C616.967 187.816 619.134 254.065 615.912 291.859C612.689 329.653 615.912 382.263 615.912 382.263C615.912 382.263 626.275 387.981 637.535 382.263C637.535 382.263 649.856 309.241 649.777 291.859C649.692 273.379 663.183 190.705 663.183 190.705L616.967 187.816Z" fill="#EE9849"/>
<path d="M693.605 382.275C693.605 382.275 683.246 387.999 672.012 382.275C672.012 382.275 659.692 309.258 659.771 291.876C659.808 284.062 657.419 264.8 654.65 245.164C650.863 218.299 646.359 190.727 646.359 190.727L694.353 187.723C694.353 187.723 690.398 254.082 693.636 291.876C696.874 329.67 693.605 382.275 693.605 382.275Z" fill="#EE9849"/>
<path d="M685.303 80.3911V80.4227C679.545 78.9625 673.697 77.8813 667.798 77.1861C663.02 83.5221 659.592 85.0163 655.219 86.7482C648.194 85.7714 642.272 77.1069 642.272 76.9062C637.216 77.369 632.217 78.3221 627.346 79.7522C626.929 79.7997 604.467 82.7723 572.675 147.558C572.675 147.558 574.389 153.524 582.722 163.926C588.655 171.318 597.948 180.97 612.362 192.306C613.435 189.84 614.305 187.29 614.962 184.682C614.962 184.682 606.397 167.992 601.25 156.698C598.745 151.196 597.03 146.972 597.526 146.565C598.454 145.794 608.823 136.787 616.476 130.129C616.413 131.792 616.397 133.297 616.434 134.622C616.85 149.094 617.431 163.16 615.569 178.736C613.122 199.207 617.267 198.848 617.267 198.848C617.267 198.848 622.852 199.941 630.637 200.96C637.678 201.9 646.522 202.797 654.66 202.797C673.325 202.797 693.783 198.832 693.783 198.832C699.675 198.906 692.133 162.147 691.03 140.034C690.777 134.897 690.54 130.208 690.318 125.926C697.354 132.04 712.934 145.594 714.083 146.55C714.568 146.956 712.87 151.18 710.36 156.682C705.202 167.981 696.647 184.666 696.647 184.666C697.305 187.274 698.175 189.824 699.247 192.29C713.661 180.954 722.981 171.307 728.888 163.91C737.226 153.509 738.908 147.542 738.908 147.542C706.821 82.1599 685.303 80.3911 685.303 80.3911Z" fill="#B64C41"/>
<path d="M630.626 200.972C622.842 199.916 617.256 198.86 617.256 198.86C617.256 198.86 613.111 199.219 615.558 178.748C617.42 163.172 616.84 149.106 616.423 134.634C616.376 133.05 616.423 131.117 616.513 129C617.705 130.911 630.995 152.401 634.571 168.368C637.177 180 633.247 193.722 630.626 200.972Z" fill="#AA413E"/>
<path d="M659.787 291.858C659.824 284.044 657.435 264.782 654.666 245.146C657.54 233.414 664.539 222.125 664.539 222.125C673.384 246.994 659.787 291.858 659.787 291.858Z" fill="#E58638"/>
<path d="M613.254 185.507C613.254 185.507 621.033 178.3 624.198 182.339C627.362 186.378 627.942 192.719 625.495 192.286C623.048 191.853 618.006 189.546 617.288 190.702C616.571 191.858 613.343 194.06 612.362 192.286C611.381 190.512 613.254 185.507 613.254 185.507Z" fill="#B56F40"/>
<path d="M614.957 184.686C614.299 187.292 613.429 189.84 612.357 192.304C597.943 180.968 588.65 171.322 582.717 163.925C587.189 163.592 593.719 161.992 601.234 156.691C606.397 167.99 614.957 184.686 614.957 184.686Z" fill="#B56F40"/>
<path d="M698.335 185.507C698.335 185.507 690.556 178.3 687.386 182.339C684.217 186.378 683.642 192.719 686.094 192.286C688.547 191.853 693.583 189.546 694.301 190.702C695.018 191.858 698.246 194.06 699.227 192.286C700.208 190.512 698.335 185.507 698.335 185.507Z" fill="#B56F40"/>
<path d="M696.621 184.686C697.282 187.292 698.154 189.84 699.227 192.304C713.635 180.968 722.96 171.322 728.862 163.925C724.389 163.592 717.865 161.992 710.35 156.691C705.191 167.99 696.621 184.686 696.621 184.686Z" fill="#B56F40"/>
<path d="M714.073 146.559C712.918 145.598 697.232 131.955 690.229 125.867C690.229 125.867 697.217 120.624 701.536 128.269C705.856 135.915 714.073 146.559 714.073 146.559Z" fill="#AA413E"/>
<path d="M738.898 147.559C738.898 147.559 737.19 153.525 728.878 163.926C719.215 163.794 738.898 147.559 738.898 147.559Z" fill="#AA413E"/>
<path d="M639.434 39.8113C639.434 39.8113 643.295 28.0266 655.931 29.864C668.568 31.7014 669.644 34.4047 671.005 37.541C672.365 40.6772 674.939 26.0783 674.939 26.0783L660.035 21.6484C660.035 21.6484 641.997 23.7023 640.7 26.7277L639.402 29.7584L639.434 39.8113Z" fill="#2C3A64"/>
<path d="M647.487 48.6096C645.309 48.6096 640.942 48.1239 640.177 44.3276C640.049 43.8204 640.039 43.2905 640.148 42.7788C640.257 42.267 640.482 41.7872 640.805 41.3762C641.2 40.9302 641.688 40.577 642.235 40.3415C642.782 40.1061 643.374 39.9942 643.969 40.0139H650.678C651.954 40.0139 652.846 40.3835 653.315 41.1069C654.127 42.3265 653.505 44.1534 653.199 44.882C652.144 47.3794 650.72 48.5463 648.674 48.578C648.279 48.6093 647.883 48.6199 647.487 48.6096ZM643.996 40.4575C643.462 40.434 642.93 40.5293 642.437 40.7366C641.945 40.9438 641.505 41.2578 641.148 41.656C640.868 42.017 640.675 42.4376 640.583 42.8853C640.492 43.3331 640.505 43.7959 640.62 44.2379C641.016 46.1862 642.477 47.4058 644.966 47.9338C646.183 48.1627 647.425 48.2214 648.658 48.108C650.504 48.108 651.823 47.0257 652.788 44.7078C653.004 44.1798 653.653 42.4163 652.941 41.3445C652.55 40.7531 651.78 40.4522 650.662 40.4522L643.996 40.4575Z" fill="#2C3A64"/>
<path d="M662.951 48.6096C662.542 48.6122 662.134 48.5928 661.728 48.5516C659.686 48.5516 658.252 47.3794 657.208 44.8556C656.902 44.127 656.279 42.3001 657.092 41.0805C657.572 40.3571 658.463 39.9875 659.729 39.9875H666.432C667.032 39.9638 667.63 40.0737 668.183 40.3093C668.736 40.5448 669.229 40.9002 669.628 41.3498C669.95 41.7618 670.173 42.2419 670.281 42.7534C670.388 43.2649 670.378 43.7943 670.25 44.3012C669.501 48.1239 665.14 48.6096 662.951 48.6096ZM659.739 40.4574C658.616 40.4574 657.851 40.7584 657.455 41.3498C656.743 42.4057 657.397 44.1956 657.614 44.7131C658.584 47.0309 659.892 48.1133 661.738 48.1133C662.981 48.2291 664.235 48.1705 665.462 47.9391C667.951 47.4111 669.412 46.1862 669.802 44.2431C669.917 43.8002 669.929 43.3368 669.838 42.8885C669.746 42.4401 669.554 42.0185 669.275 41.656C668.917 41.258 668.475 40.9442 667.982 40.737C667.489 40.5298 666.956 40.4343 666.421 40.4574H659.739Z" fill="#2C3A64"/>
<path d="M652.82 43.1179C652.75 43.1326 652.677 43.1189 652.617 43.0798C652.557 43.0407 652.516 42.9794 652.501 42.9094C652.486 42.8394 652.5 42.7664 652.539 42.7065C652.578 42.6466 652.639 42.6046 652.709 42.5899C652.82 42.5371 655.452 41.3597 657.783 42.5899C657.844 42.6235 657.89 42.6799 657.911 42.7469C657.932 42.814 657.926 42.8865 657.894 42.949C657.859 43.0096 657.803 43.0549 657.736 43.0755C657.67 43.096 657.598 43.0905 657.535 43.0598C655.425 41.9405 652.957 43.0598 652.931 43.0598C652.899 43.0875 652.861 43.1074 652.82 43.1179Z" fill="#2C3A64"/>
<path d="M610.21 195.831L604.092 196.945C604.092 196.945 587.3 171.073 586.82 163.153C586.351 155.608 571.219 122.576 588.93 101.952C589.748 100.997 590.619 100.089 591.54 99.2331L591.64 99.1328L591.73 99.2807C592.089 99.8826 593.497 102.449 595.148 108.056C597.727 116.853 600.949 133.189 601.677 161.384C601.682 161.389 605.801 185.54 610.21 195.831Z" fill="#F4A671"/>
<path d="M610.211 195.834C610.211 195.834 616.788 203.263 616.988 206.272C617.188 209.282 614.588 213.078 611.666 213.722C608.745 214.366 610.569 209.725 610.132 207.861C609.694 205.998 607.779 203.168 607.895 204.007C608.012 204.847 609.177 208.173 608.818 208.701C608.46 209.229 607.516 209.319 607.157 207.545C606.798 205.771 603.856 203.706 604.43 201.805C605.005 199.905 604.536 198.437 603.74 195.887C602.943 193.336 601.63 190.274 601.63 190.274L606.377 189.266L610.211 195.834Z" fill="#F4A671"/>
<path d="M565.84 61.6719C565.84 61.6719 565.692 64.8029 567.57 65.4153C569.447 66.0278 565.634 72.8072 565.935 77.3638C566.235 81.9203 568.255 83.7683 568.255 83.7683C568.255 83.7683 567.285 81.2551 567.828 79.7028C567.828 79.7028 567.738 82.9341 570.096 84.5656C572.453 86.1971 571.82 87.6068 571.82 87.6068C571.82 87.6068 577.153 86.0228 577.3 82.0048C577.417 82.8535 577.433 83.7131 577.348 84.5656C577.348 84.5656 581.947 81.1072 582.168 77.1209C582.39 73.1346 578.545 69.7713 576.794 69.729C575.043 69.6868 571.14 66.2284 571.246 64.9296C571.351 63.6307 565.84 61.6719 565.84 61.6719Z" fill="#2C3A64"/>
<path d="M580.565 39.2736C577.464 34.5586 565.154 37.1933 553.066 45.1607C540.978 53.128 533.699 63.4133 536.801 68.123C539.902 72.8327 552.196 70.2244 564.326 62.2306C576.456 54.2368 583.666 43.9832 580.565 39.2736Z" fill="#E2AF64"/>
<path d="M607.146 387.085L600.627 389.514C600.627 389.514 572.321 350.21 568.835 315.631C568.213 309.454 568.424 303.487 569.769 297.948C569.769 297.948 569.489 296.364 569.009 293.571C568.783 292.267 568.482 290.694 568.192 288.893C567.274 283.613 566.008 276.39 564.558 268.169C561.23 249.24 556.911 225.047 553.562 207.259L555.318 206.694L574.304 200.559L578.234 188.071L592.384 184.344C592.384 184.344 595.548 190.532 598.365 219.773C598.892 223.606 599.362 227.835 599.72 232.445C601.023 249.518 600.572 266.68 598.375 283.661C597.721 288.745 596.904 293.988 595.886 299.379C595.142 303.334 595.032 308.72 595.359 314.902C596.783 343.15 607.146 387.085 607.146 387.085Z" fill="#2B478B"/>
<path d="M599.731 232.423L569.009 293.571C568.783 292.267 568.482 290.693 568.192 288.893C567.274 283.613 566.008 276.39 564.558 268.169C561.23 249.24 556.911 225.047 553.562 207.258L555.318 206.693L574.304 200.558L578.234 188.071L595.111 183.039C595.111 183.039 595.522 190.531 598.344 219.772C598.897 223.605 599.372 227.835 599.731 232.423Z" fill="#233862"/>
<path d="M573.762 39.8066L552.038 72.806C552.038 72.806 549.554 67.9327 546.795 69.6803C542.492 72.4048 533.246 63.0857 535.192 49.9282C535.319 49.0676 535.472 48.2492 535.641 47.473C539.976 41.2216 544.786 34.2732 548.24 29.3682C558.198 23.3332 573.762 39.8066 573.762 39.8066Z" fill="#2C3A64"/>
<path d="M583.312 106.469C579.767 109.632 575.649 112.086 571.182 113.697C551.995 120.973 542.132 105.249 537.718 94.1298C539.631 92.7018 541.821 91.6877 544.147 91.1519C545.555 90.7876 547.048 90.4708 548.282 90.2438C550.275 88.2321 552.643 80.8033 551.905 69.8633L552.87 69.99L569.062 72.1389C569.062 72.1389 569.019 77.2024 569.304 81.949C569.536 85.6449 569.969 89.1772 570.781 89.9428C572.036 90.0378 572.79 90.1118 572.79 90.1118C576.811 95.2157 580.334 100.693 583.312 106.469Z" fill="#FFB27D"/>
<path d="M569.073 72.1425C569.073 72.1425 569.031 77.2006 569.321 81.9473C560.355 82.2641 555.081 74.397 552.882 69.9883L569.073 72.1425Z" fill="#ED985F"/>
<path d="M572.358 76.4458C572.358 76.4458 551.209 78.1459 550.355 64.9408C549.5 51.7358 546.194 43.0662 559.664 41.4241C573.134 39.782 576.082 44.6501 577.437 48.9849C578.793 53.3197 577.838 75.6643 572.358 76.4458Z" fill="#FFB27D"/>
<path d="M576.341 41.7136C572.817 37.949 570.397 38.9786 569.089 40.2616C557.111 34.628 550.255 44.5225 550.255 44.5225C549.682 50.3542 547.104 55.8057 542.961 59.9452C542.961 59.9452 546.969 62.0571 555.724 59.2271C558.393 58.3559 560.698 56.2703 562.612 53.7941C560.506 57.7786 557.868 61.4573 554.77 64.7288C565.086 59.1321 568.414 44.0632 568.735 42.4739C570.101 43.5299 572.812 45.9164 573.746 48.3399C575.017 51.6346 575.929 58.5249 577.928 58.1606C577.928 58.1342 581.625 47.3262 576.341 41.7136Z" fill="#2C3A64"/>
<path d="M627.541 398.041H594.72C594.72 398.041 593.492 392.798 595.643 389.229C597.553 386.061 596.825 384.276 595.411 381.668C597.152 382.427 599.041 382.787 600.939 382.724C602.673 382.528 604.341 381.942 605.817 381.008C607.231 382.592 613.28 389.456 615.173 390.844C617.315 392.37 626.882 391.821 627.541 398.041Z" fill="#233862"/>
<path d="M534.722 56.424C534.722 56.424 524.886 36.825 538.63 29.0794C552.375 21.3337 562.432 24.375 569.995 33.8313L534.722 56.424Z" fill="#EDBD77"/>
<path d="M597.316 109.915C594.679 96.7147 586.53 92.9553 586.53 92.9553C586.53 92.9553 585.169 90.9014 577.596 90.5793C576.414 90.5265 575.128 90.2836 573.693 90.1675L572.812 90.1094C573.102 90.5529 580.723 102.311 580.317 105.474C579.911 108.637 552.064 107.586 550.049 105.965C548.43 104.656 545.624 95.9332 544.58 92.5065C544.311 91.6564 544.158 91.1337 544.158 91.1337C544.158 91.1337 534.443 92.8286 529.876 96.6196C532.153 99.2234 534.102 102.098 535.677 105.179C535.899 105.627 536.11 106.081 536.305 106.535C536.722 107.491 537.064 108.478 537.328 109.487C537.661 110.802 537.36 112.153 536.648 113.611C535.86 115.127 534.937 116.569 533.89 117.919C533.141 118.928 532.307 119.994 531.516 121.135C532.091 123.057 532.845 125.359 533.679 127.962C535.765 134.232 537.51 140.611 538.905 147.07C539.449 149.745 539.386 152.507 538.721 155.154C538.458 156.208 538.105 157.238 537.666 158.232C536.975 159.816 536.801 161.928 536.026 163.945C532.861 172.187 529.169 182.953 532.861 188.56C535.314 195.741 592.121 178.301 588.297 170.772C588.297 170.772 590.565 131.272 592.126 119.028C592.179 118.579 592.216 118.146 592.242 117.713C592.279 117.036 592.279 116.358 592.242 115.68C597.184 113.463 597.316 109.915 597.316 109.915Z" fill="#F99746"/>
<path d="M590.089 31.6813C587.262 27.1406 577.363 27.8692 565.417 32.769C560.336 34.8815 555.441 37.4159 550.782 40.3457C545.076 43.8617 539.76 47.975 534.923 52.6162C527.011 60.3565 523.156 67.7748 525.719 71.8826C528.562 76.4444 538.551 75.6788 550.587 70.7157C549.611 69.6597 548.24 68.7516 546.794 69.6597C545.349 70.5679 543.245 70.1085 541.251 68.5246C539.78 68.2817 538.688 67.6903 538.087 66.7347C537.636 65.9587 537.475 65.0472 537.633 64.1634C538.25 59.5804 544.732 52.4684 554.046 46.6499C561.203 42.1831 568.318 39.5537 573.212 39.258C576.06 39.0732 578.165 39.6751 579.082 41.1535C579.879 42.4312 579.705 44.2106 578.724 46.2645C579.2 48.3718 579.308 50.5457 579.045 52.6901C588.185 44.3531 592.848 36.1112 590.089 31.6813Z" fill="#FFCF83"/>
<path d="M558.118 159.459C550.821 161.744 543.28 163.162 535.651 163.683C536.426 161.672 537.006 159.85 537.697 158.292C538.136 157.299 538.489 156.269 538.752 155.214C539.417 152.567 539.48 149.805 538.937 147.131C537.476 140.003 533.599 127.843 531.88 122.484C536.468 112.236 541.21 117.827 541.21 117.827C541.21 117.827 555.086 124.057 560.993 135.536C566.9 147.014 565.18 157.168 558.118 159.459Z" fill="#ED7D2B"/>
<path d="M540.413 91.939C540.413 91.939 553.598 100.387 557 118.207L560.998 116.939C560.998 116.939 559.447 104.22 544.168 91.1523L540.413 91.939Z" fill="#2B478B"/>
<path d="M587.073 118.661L582.885 118.935C583.443 108.545 580.172 98.3116 573.692 90.1758C575.127 90.2867 576.424 90.4292 577.595 90.5823C588.549 106.454 587.073 118.661 587.073 118.661Z" fill="#2B478B"/>
<path d="M592.279 185.625L595.248 184.342L592.331 140.069C592.331 140.069 589.499 119.942 589.457 116.42C589.43 115.381 589.154 114.363 588.653 113.453C588.152 112.542 587.44 111.766 586.577 111.188C586.577 111.188 565.75 112.286 559.88 112.618C554.01 112.951 554.606 116.314 554.606 116.314C554.606 116.314 557.164 127.012 557.422 128.11C561.373 144.921 538.779 155.191 538.779 155.191C538.779 155.191 535.113 164.695 532.265 173.787C527.392 189.384 531.738 211.756 531.738 211.756C532.481 223.641 533.847 274.144 535.24 289.092C535.767 294.509 536.2 298.364 536.384 299.9C536.418 300.368 536.296 300.835 536.036 301.225C533.987 304.723 532.245 308.393 530.83 312.192C516.975 349.152 532.94 394.65 532.94 394.65L537.091 392.976C537.091 392.976 546.189 342.33 553.578 319.959C554.833 316.163 556.035 313.179 557.138 311.4C560.349 306.205 563.335 297.725 566.04 287.64C571.156 268.563 575.275 243.747 578.018 224.591C578.392 224.591 582.332 197.737 592.21 185.894C592.298 185.778 592.321 185.688 592.279 185.625Z" fill="#2B478B"/>
<path d="M556.836 116.653C556.731 116.321 556.725 115.966 556.821 115.632C556.917 115.297 557.11 114.999 557.376 114.775C557.641 114.55 557.967 114.409 558.312 114.37C558.658 114.331 559.007 114.396 559.315 114.556C559.624 114.715 559.879 114.963 560.047 115.268C560.215 115.572 560.289 115.92 560.259 116.266C560.23 116.613 560.098 116.943 559.881 117.215C559.665 117.487 559.372 117.688 559.041 117.793C558.597 117.934 558.116 117.893 557.703 117.68C557.29 117.466 556.978 117.096 556.836 116.653Z" fill="#ED7D2B"/>
<path d="M557.138 116.561C557.031 116.229 557.026 115.873 557.122 115.539C557.218 115.204 557.411 114.906 557.676 114.681C557.942 114.456 558.268 114.315 558.614 114.277C558.96 114.238 559.309 114.303 559.618 114.463C559.927 114.623 560.181 114.871 560.349 115.176C560.516 115.481 560.59 115.829 560.56 116.176C560.53 116.523 560.397 116.853 560.18 117.124C559.962 117.396 559.669 117.597 559.337 117.701C558.894 117.84 558.414 117.799 558.002 117.585C557.59 117.371 557.279 117.003 557.138 116.561Z" fill="#F99746"/>
<path d="M557.724 116.026C557.724 115.956 557.751 115.889 557.801 115.839C557.85 115.79 557.918 115.762 557.988 115.762C558.058 115.762 558.125 115.79 558.174 115.839C558.224 115.889 558.252 115.956 558.252 116.026C558.252 116.059 558.246 116.092 558.234 116.124C558.221 116.155 558.203 116.183 558.179 116.207C558.155 116.23 558.127 116.249 558.096 116.261C558.065 116.274 558.032 116.28 557.998 116.279C557.963 116.282 557.928 116.278 557.895 116.266C557.861 116.255 557.831 116.237 557.805 116.213C557.779 116.189 557.759 116.16 557.745 116.128C557.731 116.096 557.724 116.061 557.724 116.026Z" fill="#2B478B"/>
<path d="M559.384 116.024C559.384 115.973 559.399 115.923 559.427 115.881C559.456 115.838 559.496 115.805 559.544 115.785C559.591 115.766 559.643 115.761 559.693 115.771C559.743 115.781 559.789 115.805 559.825 115.841C559.862 115.878 559.886 115.924 559.896 115.974C559.906 116.024 559.901 116.076 559.882 116.123C559.862 116.171 559.829 116.211 559.786 116.239C559.744 116.268 559.694 116.283 559.642 116.283C559.574 116.283 559.508 116.256 559.46 116.207C559.411 116.159 559.384 116.093 559.384 116.024Z" fill="#2B478B"/>
<path d="M582.658 114.421C582.553 114.09 582.549 113.735 582.646 113.401C582.743 113.067 582.936 112.769 583.202 112.545C583.468 112.322 583.794 112.182 584.139 112.143C584.485 112.105 584.833 112.17 585.142 112.331C585.45 112.491 585.704 112.739 585.871 113.044C586.039 113.348 586.112 113.696 586.082 114.042C586.052 114.389 585.921 114.718 585.703 114.99C585.486 115.261 585.194 115.462 584.863 115.567C584.643 115.638 584.411 115.665 584.181 115.646C583.95 115.627 583.726 115.562 583.521 115.455C583.316 115.349 583.134 115.203 582.986 115.025C582.838 114.848 582.726 114.642 582.658 114.421Z" fill="#ED7D2B"/>
<path d="M582.959 114.326C582.853 113.995 582.847 113.639 582.943 113.304C583.039 112.97 583.232 112.671 583.498 112.446C583.763 112.222 584.09 112.081 584.435 112.042C584.781 112.003 585.13 112.068 585.439 112.228C585.748 112.388 586.002 112.637 586.17 112.942C586.338 113.247 586.411 113.595 586.381 113.942C586.351 114.288 586.219 114.619 586.001 114.89C585.783 115.162 585.49 115.362 585.158 115.467C584.939 115.537 584.708 115.564 584.479 115.544C584.249 115.525 584.026 115.461 583.821 115.355C583.617 115.249 583.436 115.103 583.288 114.927C583.14 114.75 583.028 114.546 582.959 114.326Z" fill="#F99746"/>
<path d="M583.544 113.791C583.545 113.741 583.561 113.693 583.589 113.652C583.618 113.611 583.658 113.579 583.704 113.561C583.75 113.542 583.801 113.538 583.85 113.548C583.899 113.559 583.944 113.583 583.978 113.619C584.013 113.655 584.037 113.7 584.046 113.749C584.056 113.798 584.05 113.849 584.031 113.895C584.012 113.941 583.979 113.98 583.938 114.007C583.896 114.035 583.847 114.05 583.797 114.05C583.764 114.05 583.73 114.043 583.699 114.03C583.668 114.017 583.64 113.998 583.616 113.974C583.593 113.95 583.574 113.921 583.562 113.89C583.549 113.858 583.543 113.825 583.544 113.791Z" fill="#2B478B"/>
<path d="M585.206 113.795C585.206 113.725 585.234 113.658 585.283 113.609C585.333 113.559 585.4 113.531 585.47 113.531C585.54 113.531 585.607 113.559 585.657 113.609C585.706 113.658 585.734 113.725 585.734 113.795C585.734 113.862 585.707 113.927 585.66 113.974C585.612 114.022 585.548 114.049 585.481 114.049C585.446 114.051 585.411 114.046 585.378 114.034C585.345 114.022 585.315 114.004 585.289 113.981C585.264 113.957 585.243 113.928 585.229 113.896C585.214 113.865 585.207 113.83 585.206 113.795Z" fill="#2B478B"/>
<path d="M537.639 64.1875C537.639 64.1875 537.497 67.3238 539.374 67.9362C541.252 68.5487 537.439 75.3281 537.739 79.8847C538.04 84.4412 540.055 86.2892 540.055 86.2892C540.055 86.2892 539.09 83.7707 539.627 82.2184C539.627 82.2184 539.543 85.4497 541.901 87.0812C544.258 88.7127 543.625 90.1224 543.625 90.1224C543.625 90.1224 548.952 88.5385 549.105 84.5257C549.222 85.3727 549.237 86.2308 549.147 87.0812C549.147 87.0812 553.751 83.6229 553.968 79.6365C554.184 75.6502 550.344 72.2869 548.593 72.2447C546.842 72.2024 542.945 68.7441 543.045 67.4452C543.145 66.1464 537.639 64.1875 537.639 64.1875Z" fill="#2C3A64"/>
<path d="M537.665 169.195C537.665 169.195 543.994 173.197 544.922 173.161C547.095 173.081 551.383 168.329 554.943 170.521C558.503 172.712 562.01 176.376 560.776 177.839C559.542 179.301 555.344 177.575 553.335 177.87C551.325 178.166 546.368 180.632 542.871 179.454C539.506 178.335 532.238 173.747 532.238 173.747L537.665 169.195Z" fill="#FFB27D"/>
<path d="M529.886 96.6259C529.886 96.6259 506.311 124.494 498.521 140.191C498.521 140.191 507.899 160.63 538.293 177.231C539.529 176.855 540.686 176.256 541.706 175.462C544.923 173.16 541.358 171.475 540.651 171.021C532.94 166.021 519.465 144.479 519.075 142.61C518.684 140.74 535.952 123.982 541.226 117.793C546.5 111.605 538.045 93.4579 529.886 96.6259Z" fill="#FFB27D"/>
<path d="M565.834 69.0679C565.834 69.0679 568.998 70.9792 571.229 70.7574C573.46 70.5357 574.663 67.8535 574.663 67.8535C571.665 67.5357 568.635 67.9525 565.834 69.0679Z" fill="#FFF2E9"/>
<path d="M529.886 96.6262L519.301 106.975C519.301 106.975 521.716 122.287 537.76 124.261C537.76 124.261 550.908 113.701 543.034 102.74C535.16 91.7793 529.886 96.6262 529.886 96.6262Z" fill="#F99746"/>
<path d="M544.923 173.186C545.043 172.728 545.257 172.301 545.553 171.932C545.848 171.563 546.217 171.26 546.637 171.042C547.998 170.435 549.274 169.11 549.374 169.501C549.464 169.821 549.463 170.16 549.369 170.479C549.276 170.798 549.095 171.085 548.847 171.306C548.166 172.061 546.964 173.371 544.923 173.186Z" fill="#FFB27D"/>
<path d="M557.064 398.041H524.243C524.243 398.041 523.457 393.031 525.172 389.229C526.817 385.586 529.391 383.949 528.774 379.52C530.857 381.668 534.259 384.076 539 383.437C539.586 384.377 542.755 389.43 544.696 390.829C546.837 392.371 556.415 391.822 557.064 398.041Z" fill="#233862"/>
<path d="M42.7202 398.041C42.7202 398.041 42.7202 391.97 43.5799 389.953C44.4396 387.936 47.6146 379.715 47.6146 379.715H60.0192C60.0192 379.715 62.3239 387.212 62.4716 389.662C62.6193 392.112 62.4716 398.041 62.4716 398.041H42.7202Z" fill="#233862"/>
<path d="M121.378 398.041C121.378 398.041 121.378 391.969 120.513 389.953C119.648 387.936 116.483 379.715 116.483 379.715H104.094C104.094 379.715 101.79 387.212 101.647 389.667C101.505 392.123 101.647 398.047 101.647 398.047L121.378 398.041Z" fill="#233862"/>
<path d="M71.7587 57.3337C71.7587 57.3337 71.3209 70.8503 69.591 76.9063L55.9048 86.4577L107.39 94.1716L95.1123 77.1862C95.1123 77.1862 91.4204 59.0655 93.3507 52.3706C95.281 45.6756 71.7587 57.3337 71.7587 57.3337Z" fill="#FFB27D"/>
<path d="M71.6851 59.2031C71.6851 59.2031 75.7566 69.0132 83.4251 68.7967C91.0936 68.5802 92.8235 59.9001 92.8235 59.9001L71.6851 59.2031Z" fill="#ED985F"/>
<path d="M67.1075 51.2559C67.1075 51.2559 64.6287 38.8798 62.8882 35.131C61.1478 31.3823 59.7238 14.6555 78.874 13.7949C78.874 13.7949 86.2155 14.6555 90.2501 12.2109C90.2501 12.2109 90.2501 14.6608 89.2428 15.5267C91.4042 15.1462 93.6271 15.3313 95.6961 16.064C97.765 16.7966 99.6098 18.052 101.051 19.7084C106.236 25.4741 97.5969 45.6592 98.0241 50.4164L67.1075 51.2559Z" fill="#2C3A64"/>
<path d="M98.3299 34.0096V47.5209C98.3131 49.7343 97.839 51.9202 96.9375 53.9413C95.4227 57.2915 93.0365 60.1727 90.0285 62.2836C87.5286 64.0418 84.8441 65.0502 82.5499 65.008C80.551 64.9658 77.9561 63.989 75.4404 62.3258C72.0597 60.0766 68.832 56.5865 67.4607 52.4788V52.4207L67.408 52.2464C67.0015 50.9801 66.7916 49.6588 66.7856 48.3287V34.0096C66.7856 30.6569 69.1221 27.9219 71.9701 27.9219H93.1402C95.9882 27.9219 98.3299 30.6569 98.3299 34.0096Z" fill="#FFB27D"/>
<path d="M66.7597 41.6576C66.7597 41.6576 66.7913 33.0566 73.616 31.7313C80.4406 30.4061 95.6511 35.9236 97.8082 29.6511C99.9653 23.3785 68.3736 23.4894 66.7808 27.4916C65.188 31.4937 66.7597 41.6576 66.7597 41.6576Z" fill="#2C3A64"/>
<path d="M44.302 187.816C44.302 187.816 46.4696 254.065 43.2471 291.859C40.0247 329.653 43.2471 382.274 43.2471 382.274C43.2471 382.274 53.6107 387.992 64.8709 382.274C64.8709 382.274 77.1911 309.251 77.112 291.87C77.0276 273.389 90.5187 190.715 90.5187 190.715L44.302 187.816Z" fill="#2B478B"/>
<path d="M120.929 382.275C120.929 382.275 110.571 387.999 99.3372 382.275C99.3372 382.275 87.0169 309.258 87.0961 291.876C87.133 284.062 84.7438 264.8 81.9749 245.164C78.1881 218.299 73.6841 190.727 73.6841 190.727L121.678 187.723C121.678 187.723 117.723 254.082 120.961 291.876C124.199 329.67 120.929 382.275 120.929 382.275Z" fill="#2B478B"/>
<path d="M57.9519 200.969C50.1673 199.913 44.5821 198.857 44.5821 198.857C44.5821 198.857 40.4367 199.216 42.8838 178.745C44.7456 163.154 44.1654 149.088 43.7752 134.642C43.7277 133.058 43.7752 131.125 43.8648 129.008C45.0568 130.919 58.3422 152.409 61.9233 168.376C64.5023 179.997 60.5731 193.72 57.9519 200.969Z" fill="#ED7D2B"/>
<path d="M112.628 80.3911V80.4227C106.87 78.9625 101.022 77.8813 95.1232 77.1861C90.3449 83.5221 86.9167 85.0163 82.5445 86.7482C75.5195 85.7714 69.6178 77.0911 69.6178 76.9062C64.5559 77.3608 59.5501 78.3068 54.6711 79.7311C54.2544 79.7786 31.7921 82.7512 0 147.537C0 147.537 1.7088 153.503 10.0471 163.905C15.9804 171.297 25.2734 180.949 39.6874 192.285C40.7602 189.819 41.6298 187.269 42.2875 184.661C42.2875 184.661 33.7224 167.971 28.5749 156.677C26.0698 151.175 24.3557 146.951 24.8514 146.544C25.7797 145.773 36.1485 136.766 43.8012 130.108C43.7379 131.771 43.7221 133.276 43.759 134.601C44.1757 149.073 44.7558 163.139 42.8941 178.715C40.4469 199.186 44.5923 198.827 44.5923 198.827C44.5923 198.827 50.1775 199.92 57.9621 200.939C65.003 201.879 73.8476 202.776 81.9855 202.776C100.65 202.776 121.109 198.811 121.109 198.811C127 198.885 119.458 162.126 118.356 140.013C118.102 134.875 117.865 130.187 117.644 125.905C124.679 132.019 140.259 145.573 141.408 146.528C141.894 146.935 140.19 151.159 137.685 156.661C132.527 167.96 123.972 184.645 123.972 184.645C124.63 187.266 125.501 189.828 126.578 192.306C140.992 180.97 150.285 171.323 156.213 163.926C164.551 153.524 166.265 147.558 166.265 147.558C134.146 82.1599 112.628 80.3911 112.628 80.3911Z" fill="#F99746"/>
<path d="M87.0957 291.858C87.1327 284.044 84.7435 264.782 81.9746 245.146C84.849 233.414 91.8477 222.125 91.8477 222.125C100.734 246.994 87.0957 291.858 87.0957 291.858Z" fill="#233862"/>
<path d="M40.5793 185.507C40.5793 185.507 48.3586 178.3 51.523 182.339C54.6875 186.378 55.2676 192.719 52.8205 192.286C50.3733 191.853 45.3313 189.546 44.614 190.702C43.8967 191.858 40.6637 194.06 39.688 192.286C38.7123 190.512 40.5793 185.507 40.5793 185.507Z" fill="#FFB27D"/>
<path d="M42.2878 184.686C41.6296 187.292 40.76 189.84 39.6877 192.304C25.2736 180.968 15.9807 171.322 10.0474 163.925C14.5198 163.592 21.0491 161.992 28.5646 156.691C33.7227 167.99 42.2878 184.686 42.2878 184.686Z" fill="#FFB27D"/>
<path d="M125.66 185.507C125.66 185.507 117.881 178.3 114.711 182.339C111.541 186.378 110.966 192.724 113.393 192.286C115.819 191.848 120.882 189.546 121.604 190.702C122.327 191.858 125.549 194.06 126.53 192.286C127.511 190.512 125.66 185.507 125.66 185.507Z" fill="#FFB27D"/>
<path d="M123.941 184.686C124.612 187.292 125.494 189.84 126.578 192.304C140.987 180.968 150.28 171.322 156.213 163.925C151.741 163.592 145.217 161.992 137.701 156.691C132.517 167.99 123.941 184.686 123.941 184.686Z" fill="#FFB27D"/>
<path d="M90.0232 56.3268V62.3036C87.5232 64.0618 84.8387 65.0703 82.5445 65.0281C80.5456 64.9858 77.9508 64.009 75.4351 62.3459V56.3268C75.4392 54.7247 76.0768 53.1894 77.2084 52.0566C78.34 50.9237 79.8736 50.2854 81.4739 50.2812H83.9896C85.589 50.2868 87.1212 50.9257 88.2517 52.0584C89.3821 53.1911 90.019 54.7256 90.0232 56.3268Z" fill="#2C3A64"/>
<path d="M141.397 146.559C140.242 145.598 124.552 131.955 117.553 125.867C117.553 125.867 124.541 120.624 128.861 128.269C133.18 135.915 141.397 146.559 141.397 146.559Z" fill="#ED7D2B"/>
<path d="M96.9314 53.9394C94.0781 60.4389 87.4381 65.0905 82.5437 65.0272C77.8551 64.9427 69.8438 59.6522 67.4546 52.4979V52.4399L67.4019 52.2656C67.4019 52.2656 72.4386 56.5688 75.7718 54.4357H89.7587C89.7587 54.4357 93.3978 56.5001 96.9314 53.9394Z" fill="#2C3A64"/>
<path d="M166.239 147.559C166.239 147.559 164.525 153.525 156.187 163.926C146.535 163.794 166.239 147.559 166.239 147.559Z" fill="#ED7D2B"/>
<path d="M84.2372 55.6006H81.2204C80.5295 55.6006 79.6382 54.4654 79.6382 53.7737C80.0955 53.4076 80.6413 53.169 81.2204 53.082H84.2372C84.9334 53.082 85.9407 53.6575 86.1042 54.0694C86.1042 54.0694 85.6875 55.6006 84.2372 55.6006Z" fill="#FFB27D"/>
</svg>
