<svg width="80" height="80" viewBox="0 0 80 80" fill="none" xmlns="http://www.w3.org/2000/svg">
<g clip-path="url(#clip0)">
<path d="M13.856 44.0801L1.60001 55.5281H7.32001V78.4001H20.392V55.5281H26.112L13.856 44.0801Z" fill="#DFD7FF"/>
<path d="M40 22.8401L27.744 34.2801H33.464V78.4001H46.536V34.2801H52.256L40 22.8401Z" fill="#CAB5FF"/>
<path d="M66.144 1.6001L53.888 13.0401H59.608V78.4001H72.68V13.0401H78.4L66.144 1.6001Z" fill="#AC7FFF"/>
<path d="M20.392 80C19.9676 80 19.5607 79.8315 19.2606 79.5314C18.9606 79.2313 18.792 78.8244 18.792 78.4V55.52C18.792 55.0957 18.9606 54.6887 19.2606 54.3887C19.5607 54.0886 19.9676 53.92 20.392 53.92H22.056L13.856 46.272L5.65599 53.92H7.31999C7.74433 53.92 8.1513 54.0886 8.45136 54.3887C8.75142 54.6887 8.91999 55.0957 8.91999 55.52V76.8H13.92C14.3443 76.8 14.7513 76.9686 15.0514 77.2687C15.3514 77.5687 15.52 77.9757 15.52 78.4C15.52 78.8244 15.3514 79.2313 15.0514 79.5314C14.7513 79.8315 14.3443 80 13.92 80H7.31999C6.89564 80 6.48868 79.8315 6.18862 79.5314C5.88856 79.2313 5.71999 78.8244 5.71999 78.4V57.12H1.59999C1.27952 57.1189 0.966768 57.0216 0.702248 56.8407C0.437727 56.6598 0.23363 56.4036 0.116396 56.1053C-0.000838005 55.8071 -0.0258058 55.4805 0.0447272 55.1679C0.11526 54.8553 0.278043 54.5711 0.511988 54.352L12.8 42.912C13.0963 42.6353 13.4866 42.4814 13.892 42.4814C14.2974 42.4814 14.6877 42.6353 14.984 42.912L27.2 54.352C27.4339 54.5711 27.5967 54.8553 27.6672 55.1679C27.7378 55.4805 27.7128 55.8071 27.5956 56.1053C27.4783 56.4036 27.2743 56.6598 27.0097 56.8407C26.7452 57.0216 26.4325 57.1189 26.112 57.12H21.992V78.4C21.992 78.8244 21.8234 79.2313 21.5234 79.5314C21.2233 79.8315 20.8163 80 20.392 80Z" fill="#380D75"/>
<path d="M46.536 80H33.464C33.0397 80 32.6327 79.8314 32.3326 79.5313C32.0326 79.2313 31.864 78.8243 31.864 78.4V35.88H27.744C27.4235 35.8789 27.1108 35.7816 26.8463 35.6006C26.5817 35.4197 26.3776 35.1636 26.2604 34.8653C26.1432 34.567 26.1182 34.2405 26.1887 33.9278C26.2593 33.6152 26.4221 33.331 26.656 33.112L38.912 21.672C39.2079 21.3976 39.5965 21.2451 40 21.2451C40.4035 21.2451 40.7921 21.3976 41.088 21.672L53.344 33.112C53.5779 33.331 53.7407 33.6152 53.8113 33.9278C53.8818 34.2405 53.8568 34.567 53.7396 34.8653C53.6224 35.1636 53.4183 35.4197 53.1537 35.6006C52.8892 35.7816 52.5765 35.8789 52.256 35.88H48.136V71.928C48.136 72.3523 47.9674 72.7593 47.6674 73.0593C47.3673 73.3594 46.9603 73.528 46.536 73.528C46.1117 73.528 45.7047 73.3594 45.4046 73.0593C45.1046 72.7593 44.936 72.3523 44.936 71.928V34.28C44.936 33.8556 45.1046 33.4487 45.4046 33.1486C45.7047 32.8485 46.1117 32.68 46.536 32.68H48.2L40 25.032L31.8 32.68H33.464C33.8883 32.68 34.2953 32.8485 34.5954 33.1486C34.8954 33.4487 35.064 33.8556 35.064 34.28V76.8H46.536C46.9603 76.8 47.3673 76.9685 47.6674 77.2686C47.9674 77.5687 48.136 77.9756 48.136 78.4C48.136 78.8243 47.9674 79.2313 47.6674 79.5313C47.3673 79.8314 46.9603 80 46.536 80Z" fill="#380D75"/>
<path d="M72.68 80C72.2557 80 71.8487 79.8314 71.5486 79.5314C71.2486 79.2313 71.08 78.8243 71.08 78.4V13.04C71.08 12.6157 71.2486 12.2087 71.5486 11.9086C71.8487 11.6086 72.2557 11.44 72.68 11.44H74.344L66.144 3.792L57.944 11.44H59.608C60.0324 11.44 60.4393 11.6086 60.7394 11.9086C61.0394 12.2087 61.208 12.6157 61.208 13.04V76.8H66.208C66.6324 76.8 67.0393 76.9686 67.3394 77.2686C67.6394 77.5687 67.808 77.9757 67.808 78.4C67.808 78.8243 67.6394 79.2313 67.3394 79.5314C67.0393 79.8314 66.6324 80 66.208 80H59.608C59.1837 80 58.7767 79.8314 58.4766 79.5314C58.1766 79.2313 58.008 78.8243 58.008 78.4V14.64H53.888C53.5675 14.6389 53.2548 14.5416 52.9903 14.3607C52.7258 14.1798 52.5217 13.9236 52.4044 13.6253C52.2872 13.3271 52.2622 13.0005 52.3328 12.6879C52.4033 12.3752 52.5661 12.091 52.8 11.872L65.056 0.431998C65.35 0.166654 65.732 0.0197754 66.128 0.0197754C66.5241 0.0197754 66.906 0.166654 67.2 0.431998L79.456 11.872C79.6881 12.0891 79.8503 12.3705 79.9219 12.6801C79.9934 12.9898 79.9711 13.3138 79.8579 13.6107C79.7446 13.9077 79.5454 14.1642 79.2858 14.3475C79.0261 14.5308 78.7178 14.6326 78.4 14.64H74.28V78.4C74.28 78.8243 74.1114 79.2313 73.8114 79.5314C73.5113 79.8314 73.1044 80 72.68 80Z" fill="#380D75"/>
</g>
<defs>
<clipPath id="clip0">
<rect width="80" height="80" fill="white"/>
</clipPath>
</defs>
</svg>
