<svg width="174" height="174" viewBox="0 0 174 174" fill="none" xmlns="http://www.w3.org/2000/svg">
<rect x="2.74213" y="2.83752" width="168" height="168" rx="84" fill="url(#paint0_linear)" stroke="white" stroke-width="5"/>
<path d="M86.7297 36.4625C61.7297 36.4625 41.4797 56.2875 41.4797 81.3375C41.4797 99.0625 51.6297 114.413 66.4047 121.888V129.963C66.4047 133.963 69.6547 137.213 73.6547 137.213C83.8716 137.213 92.8367 137.213 99.8297 137.213C103.83 137.213 107.08 133.963 107.08 129.963V121.888C121.855 114.413 132.005 99.0625 132.005 81.3375C131.98 56.2875 111.73 36.4625 86.7297 36.4625ZM103.155 119.388V129.588C103.155 131.988 101.18 133.963 98.7797 133.963H74.3547C71.9547 133.963 69.9797 131.988 69.9797 129.588V119.363C55.1297 113.063 44.7297 98.5875 44.7297 81.7125C44.7297 59.0625 63.4797 40.7125 86.6047 40.7125C109.73 40.7125 128.48 59.0625 128.48 81.7125C128.48 98.6125 118.055 113.113 103.155 119.388Z" fill="white"/>
<path d="M111.625 75.2304C111.625 75.2304 120.35 74.2304 123 81.4054C125.65 88.5804 120.55 92.6804 120.55 92.6804C120.55 92.6804 120.75 88.8804 116.225 85.9054L118.1 83.0054C118.1 83.0054 118.6 80.7054 117.025 82.1054L115.05 84.3804C115.05 84.3804 115.75 79.5054 111.625 75.2304ZM118.6 74.3304C118.6 74.3304 114.375 72.7304 109.975 73.9304C109.975 73.9304 107.325 72.2304 104.675 72.4304C104.675 72.4304 103.8 67.0554 99.5754 65.8554C99.5754 65.8554 99.9754 61.9554 98.7004 62.3554C98.7004 62.3554 99.6504 61.1804 101.125 60.7554C102.625 60.3304 104.625 60.6804 106.65 62.0054C110.675 64.6554 108.225 69.5304 108.225 69.5304L108.675 70.2304C108.675 70.2304 110.775 70.8304 110.775 64.3554C110.75 64.3554 119.175 63.6554 118.6 74.3304ZM97.8004 65.0054C97.8004 65.0054 95.4504 63.8054 92.0504 65.5054C92.0504 65.5054 91.2254 65.5054 90.3754 65.0554C90.3754 65.0554 85.2754 58.0304 87.6754 64.1054C87.6754 64.1054 82.9754 63.9054 81.4004 65.9554L79.5754 63.8054C79.5754 63.8054 78.4504 62.5304 80.1254 60.3804C80.1254 60.3804 82.6754 57.1804 85.8754 56.6804C89.0754 56.1804 91.8004 57.0804 91.8004 57.0804C91.8004 57.0804 96.6754 58.5804 97.8004 65.0054ZM77.5504 70.9304L79.2254 68.0804C79.2254 68.0804 79.4254 66.2304 78.3754 65.1304C77.3254 64.0304 76.2504 63.0804 76.2504 63.0804C76.2504 63.0804 73.5004 60.7804 69.3254 63.0804C69.3254 63.0804 67.6504 64.3804 66.7754 65.9304C66.7754 65.9304 66.7254 67.0304 67.6004 67.4304C67.6004 67.4304 69.2754 70.0554 66.2254 68.6304C63.1754 67.1804 62.6504 67.4304 62.6504 67.4304C62.6504 67.4304 57.8505 66.7804 56.3255 72.5554C54.8005 78.3304 61.9754 80.7804 63.9254 80.5304C63.9504 80.5554 63.5754 67.1804 77.5504 70.9304Z" fill="white"/>
<path d="M101.525 92.3304C101.525 92.3304 110.4 94.6304 113.1 84.7554C113.1 84.7554 114.825 74.7304 103.4 74.3304C103.4 74.3304 101.3 63.2054 91.5754 67.7554C91.5754 67.7554 87.2004 63.2304 81.3754 68.1054C81.3754 68.1054 91.9754 65.7554 92.2504 78.0304L93.7254 79.1554C93.7254 79.1554 98.0504 71.3054 102.7 80.0804C102.7 80.0804 106.175 79.7304 107.65 81.2304C109.125 82.7304 106.475 83.1304 106.375 82.5304C106.275 81.9304 104.325 81.1804 103.425 81.6804C103.425 81.6804 103.475 88.1054 101.8 90.1554C100.15 92.1804 101.525 92.3304 101.525 92.3304Z" fill="white"/>
<path d="M114.076 87.6305C114.076 87.6305 112.201 93.6055 105.101 94.2055C105.101 94.2055 103.051 97.0555 98.6756 98.7805C98.6756 98.7805 97.5506 105.505 104.701 104.905C104.701 104.905 110.726 103.555 107.901 97.6305L108.976 96.5305C108.976 96.5305 110.501 97.6805 110.301 100.03C110.301 100.03 110.301 101.13 112.401 100.38C114.501 99.6305 116.451 98.5805 117.676 96.6805C118.901 94.7805 119.501 90.4055 115.826 87.6055C115.851 87.6305 114.376 86.0805 114.076 87.6305ZM95.7256 83.2555V86.4805C95.7256 86.4805 94.6256 89.2555 94.1756 86.4805C93.7256 83.7055 92.8506 81.7055 92.8506 81.7055C92.8506 81.7055 89.7506 75.3055 83.7256 79.2055C77.7006 83.1055 79.6756 90.8805 79.6756 90.8805C79.6756 90.8805 81.8006 94.8305 85.7756 92.5555C85.7756 92.5555 86.5756 92.2305 85.7006 90.5805C84.8256 88.9305 85.0506 88.1055 85.0506 88.1055C85.0506 88.1055 84.7506 85.2555 86.9006 87.7305C86.9006 87.7305 87.7006 92.8055 93.0006 93.8555C98.3006 94.9055 101.301 86.3805 101.376 84.8805C101.451 83.3805 101.426 80.0555 98.6756 77.9055C98.6756 77.9055 95.6256 77.2555 95.2756 80.0055C94.9006 82.8055 95.7256 83.2555 95.7256 83.2555Z" fill="white"/>
<path d="M102.625 94.3055C102.625 94.3055 100.75 94.3055 99.0254 93.4055C99.0254 93.4055 92.4754 98.4805 88.2004 93.4055C88.2004 93.4055 84.3004 96.4055 82.1004 95.5805C82.1004 95.5805 84.3504 110.98 97.2754 102.68L96.8004 99.2555C96.8004 99.2555 95.2504 101.105 89.9504 99.9055C89.9504 99.9055 87.0754 99.0805 90.3504 98.6305C90.3754 98.6555 96.4504 99.6305 102.625 94.3055ZM80.5504 99.2805C80.5504 99.2805 77.1004 99.5555 76.0754 98.8805C75.0504 98.2055 74.1004 99.2805 74.1004 99.2805C74.1004 99.2805 71.5254 100.605 70.1254 101.13C68.7254 101.655 71.9754 103.98 71.9754 103.98C71.9754 103.98 76.7504 107.355 81.4004 103.53C81.4004 103.53 83.3254 102.705 82.1254 101.505C80.9254 100.305 80.5504 99.2805 80.5504 99.2805ZM80.3504 94.3055V96.9305C80.3504 96.9305 79.8254 97.9055 78.8004 97.4555C77.7754 97.0055 78.4254 97.6555 74.5254 95.9555C74.5254 95.9555 69.3754 101.655 64.8254 97.5805C60.2754 93.5055 62.9004 89.8305 62.8504 90.1305C62.7754 90.4305 64.0254 87.1305 66.0254 86.3805C66.0254 86.3805 70.1754 91.0055 76.1504 89.3055C76.1504 89.3055 77.6504 88.8555 77.6504 90.5805C77.6254 92.3055 79.6004 94.1555 80.3504 94.3055Z" fill="white"/>
<path d="M90.3754 76.0555C90.3754 76.0555 87.7005 64.5305 78.8005 73.0555C78.8005 73.0555 78.2505 73.8805 76.1255 72.5305C74.0005 71.1805 69.2255 72.9805 69.2255 72.9805C69.2255 72.9805 63.8505 75.9805 66.2005 83.0055C66.2005 83.0055 68.5755 88.8305 76.1005 87.7055C76.1005 87.7055 76.1505 87.5055 77.5255 87.7055C77.5255 87.7055 77.2505 86.4305 77.9755 84.2055C77.9755 84.2055 79.1755 82.7055 77.9755 82.1055C77.9755 82.1055 76.8505 78.8805 72.8755 79.6305C72.8755 79.6305 70.1505 79.0805 72.9505 77.8305C75.7505 76.5555 79.6505 80.5555 79.6505 80.5555C79.6505 80.5555 84.5755 74.3305 89.0755 76.3555C89.1005 76.3555 89.9754 77.4055 90.3754 76.0555ZM63.8755 82.5805C63.8755 82.5805 65.2005 84.2305 64.6005 85.2805C64.6005 85.2805 61.8005 86.8555 60.9255 89.8305C60.9255 89.8305 58.9505 91.1055 58.2005 92.1555C57.4755 93.2055 55.7755 90.5805 55.7755 90.5805C55.7755 90.5805 51.5755 84.2555 56.8005 79.2055L63.8755 82.5805ZM60.1005 92.7055C60.1005 92.7055 59.9505 97.9055 67.2255 101.48C67.2255 101.48 62.6755 103.655 60.1005 100.73C57.5255 97.8305 58.8505 93.1305 60.1005 92.7055ZM85.5505 105.88C85.5505 105.88 86.2255 107.13 88.1755 106.705V134.38H85.5505V105.88Z" fill="white"/>
<defs>
<linearGradient id="paint0_linear" x1="7.04977" y1="78.0185" x2="167.385" y2="78.0185" gradientUnits="userSpaceOnUse">
<stop stop-color="#8426EB"/>
<stop offset="1" stop-color="#16A0EE"/>
</linearGradient>
</defs>
</svg>
